<?xml version="1.0" standalone="no"?>
<!DOCTYPE svg PUBLIC "-//W3C//DTD SVG 20010904//EN"
 "http://www.w3.org/TR/2001/REC-SVG-20010904/DTD/svg10.dtd">
<svg version="1.0" xmlns="http://www.w3.org/2000/svg"
 width="681.000000pt" height="720.000000pt" viewBox="0 0 681.000000 720.000000"
 preserveAspectRatio="xMidYMid meet">

<g transform="translate(0.000000,720.000000) scale(0.100000,-0.100000)"
fill="#000000" stroke="none">
<path d="M540 6825 c0 -43 4 -75 10 -75 6 0 10 13 10 28 0 23 6 30 33 37 60
18 45 85 -19 85 l-34 0 0 -75z m70 30 c0 -20 -5 -25 -25 -25 -20 0 -25 5 -25
25 0 20 5 25 25 25 20 0 25 -5 25 -25z"/>
<path d="M700 6873 c-17 -21 -20 -36 -16 -63 13 -82 110 -81 131 2 7 26 -8 66
-29 80 -25 17 -65 8 -86 -19z m91 -17 c8 -16 8 -34 2 -53 -8 -23 -15 -28 -44
-28 -27 0 -35 5 -43 27 -15 42 6 78 44 78 22 0 33 -6 41 -24z"/>
<path d="M1167 6893 c-15 -14 -6 -19 24 -15 26 4 30 2 27 -14 -2 -11 -13 -20
-26 -22 -27 -4 -30 -22 -3 -22 24 0 42 -22 32 -39 -6 -9 -20 -12 -40 -9 -35 5
-42 -7 -10 -17 28 -9 66 2 73 21 4 9 0 27 -9 40 -9 14 -11 25 -5 29 16 10 12
42 -6 49 -21 8 -49 8 -57 -1z"/>
<path d="M1298 6851 c-35 -62 -35 -71 2 -71 20 0 30 -5 30 -15 0 -8 5 -15 10
-15 6 0 10 7 10 15 0 8 8 15 18 15 16 1 16 1 0 14 -13 9 -18 27 -18 60 0 61
-17 60 -52 -3z m32 -16 c0 -29 -4 -35 -21 -35 -11 0 -19 3 -17 8 21 42 32 62
35 62 1 0 3 -16 3 -35z"/>
<path d="M1467 6893 c-13 -13 -7 -19 20 -18 41 0 40 -27 -1 -73 -20 -22 -36
-42 -36 -46 0 -3 23 -6 50 -6 28 0 50 5 50 10 0 6 -14 10 -31 10 l-30 0 25 33
c28 37 33 66 14 85 -13 13 -50 16 -61 5z"/>
<path d="M1570 6890 c0 -5 18 -10 40 -10 l41 0 -15 -27 c-29 -58 -45 -103 -35
-103 10 0 69 120 69 140 0 5 -22 10 -50 10 -27 0 -50 -4 -50 -10z"/>
<path d="M1714 6879 c-19 -21 -19 -22 4 -15 21 7 22 5 22 -43 0 -38 -4 -51
-14 -51 -8 0 -18 -4 -21 -10 -4 -6 12 -10 42 -10 42 1 46 2 31 14 -14 10 -18
28 -18 75 0 67 -12 78 -46 40z"/>
<path d="M1838 6851 c-35 -62 -35 -71 2 -71 20 0 30 -5 30 -15 0 -8 5 -15 10
-15 6 0 10 6 10 14 0 8 6 17 13 20 10 5 10 7 0 12 -8 3 -13 25 -13 55 0 64
-17 64 -52 0z m32 -16 c0 -29 -4 -35 -21 -35 -11 0 -19 3 -17 8 21 42 32 62
35 62 1 0 3 -16 3 -35z"/>
<path d="M4538 6889 c-22 -12 -24 -33 -3 -25 12 4 15 -4 15 -44 0 -38 -4 -50
-15 -50 -8 0 -15 -4 -15 -10 0 -5 20 -10 45 -10 25 0 45 5 45 10 0 6 -7 10
-15 10 -12 0 -15 14 -15 65 0 67 -6 75 -42 54z"/>
<path d="M4646 6884 c-18 -18 -21 -85 -6 -115 12 -21 41 -25 71 -9 15 9 19 22
19 63 0 29 -5 58 -12 65 -17 17 -54 15 -72 -4z m49 -60 c0 -37 -4 -49 -15 -49
-16 0 -27 63 -16 92 12 31 31 6 31 -43z"/>
<path d="M4990 6825 c0 -43 4 -75 10 -75 6 0 10 13 10 28 0 23 6 30 33 37 60
18 45 85 -19 85 l-34 0 0 -75z m70 30 c0 -20 -5 -25 -25 -25 -20 0 -25 5 -25
25 0 20 5 25 25 25 20 0 25 -5 25 -25z"/>
<path d="M5150 6873 c-17 -21 -20 -36 -16 -63 13 -82 110 -81 131 2 7 26 -8
66 -29 80 -25 17 -65 8 -86 -19z m91 -17 c8 -16 8 -34 2 -53 -8 -23 -15 -28
-43 -28 -27 0 -35 5 -42 26 -14 42 5 79 42 79 22 0 33 -6 41 -24z"/>
<path d="M5624 6879 c-19 -21 -19 -22 4 -15 21 7 22 5 22 -43 0 -38 -4 -51
-14 -51 -8 0 -18 -4 -21 -10 -4 -6 12 -10 42 -10 42 1 46 2 31 14 -14 10 -18
28 -18 75 0 67 -12 78 -46 40z"/>
<path d="M5737 6882 c-22 -24 -22 -95 -1 -116 37 -38 84 -7 84 55 0 22 -5 49
-10 60 -13 24 -52 25 -73 1z m58 -57 c0 -47 -2 -50 -25 -50 -20 0 -26 6 -28
29 -6 49 6 78 31 74 19 -3 22 -9 22 -53z"/>
<path d="M5924 6879 c-19 -21 -19 -22 4 -15 21 7 22 5 22 -43 0 -38 -4 -51
-14 -51 -8 0 -18 -4 -21 -10 -4 -6 12 -10 42 -10 42 1 46 2 31 14 -14 10 -18
28 -18 75 0 67 -12 78 -46 40z"/>
<path d="M6037 6893 c-13 -13 -7 -19 20 -18 41 0 40 -27 -1 -73 -20 -22 -36
-42 -36 -46 0 -3 23 -6 50 -6 28 0 50 5 50 10 0 6 -15 10 -34 10 l-35 0 30 32
c31 34 37 66 17 86 -13 13 -50 16 -61 5z"/>
<path d="M6150 6865 c0 -30 3 -35 24 -35 29 0 49 -22 40 -45 -5 -12 -15 -16
-40 -13 -35 4 -46 -5 -18 -16 28 -11 51 -6 68 13 25 27 17 53 -21 71 -41 19
-43 40 -3 40 17 0 30 5 30 10 0 6 -18 10 -40 10 -39 0 -40 -1 -40 -35z"/>
<path d="M6288 6851 c-35 -62 -35 -71 2 -71 20 0 30 -5 30 -15 0 -8 5 -15 10
-15 6 0 10 6 10 14 0 8 6 17 13 20 10 5 10 7 0 12 -8 3 -13 25 -13 55 0 64
-17 64 -52 0z m32 -16 c0 -29 -4 -35 -21 -35 -11 0 -19 3 -17 8 21 42 32 62
35 62 1 0 3 -16 3 -35z"/>
<path d="M840 6853 c0 -5 7 -17 15 -27 13 -17 13 -23 -1 -44 -20 -31 -9 -43
12 -13 l16 22 15 -20 c22 -32 36 -25 17 8 -16 28 -16 31 0 55 20 31 4 35 -18
5 l-14 -21 -11 21 c-11 20 -31 29 -31 14z"/>
<path d="M940 6850 c0 -5 7 -28 16 -50 9 -22 14 -52 11 -66 -9 -49 16 -18 44
54 29 76 21 101 -10 30 l-18 -43 -13 43 c-12 38 -30 58 -30 32z"/>
<path d="M5290 6853 c0 -5 7 -17 15 -27 13 -17 13 -23 -1 -44 -20 -31 -9 -43
12 -13 l16 22 15 -20 c22 -32 36 -25 17 8 -16 28 -16 31 0 55 20 31 4 35 -18
5 l-14 -21 -11 21 c-11 20 -31 29 -31 14z"/>
<path d="M5390 6851 c0 -6 7 -29 16 -51 9 -22 14 -52 11 -66 -9 -49 16 -18 44
54 29 76 21 102 -10 30 l-18 -43 -12 37 c-12 36 -31 60 -31 39z"/>
<path d="M4815 6840 c-4 -6 13 -10 44 -10 28 0 51 5 51 10 0 6 -20 10 -44 10
-25 0 -48 -4 -51 -10z"/>
<path d="M4815 6790 c3 -5 24 -10 45 -10 21 0 42 5 45 10 4 6 -13 10 -45 10
-32 0 -49 -4 -45 -10z"/>
<path d="M630 6765 c0 -8 5 -15 10 -15 6 0 10 7 10 15 0 8 -4 15 -10 15 -5 0
-10 -7 -10 -15z"/>
<path d="M1040 6765 c0 -8 5 -15 10 -15 6 0 10 7 10 15 0 8 -4 15 -10 15 -5 0
-10 -7 -10 -15z"/>
<path d="M5080 6765 c0 -8 5 -15 10 -15 6 0 10 7 10 15 0 8 -4 15 -10 15 -5 0
-10 -7 -10 -15z"/>
<path d="M5490 6765 c0 -8 5 -15 10 -15 6 0 10 7 10 15 0 8 -4 15 -10 15 -5 0
-10 -7 -10 -15z"/>
<path d="M730 6540 c0 -83 17 -112 22 -37 2 35 7 43 26 45 20 3 22 -1 22 -42
0 -25 5 -46 10 -46 6 0 10 20 10 44 0 48 -18 71 -50 63 -17 -4 -20 0 -20 24 0
16 -4 29 -10 29 -6 0 -10 -33 -10 -80z"/>
<path d="M1200 6540 c0 -83 17 -112 22 -37 2 35 7 43 26 45 20 3 22 -1 22 -42
0 -25 5 -46 10 -46 6 0 10 20 10 44 0 48 -18 71 -50 63 -17 -4 -20 0 -20 24 0
16 -4 29 -10 29 -6 0 -10 -33 -10 -80z"/>
<path d="M5370 6540 c0 -47 4 -80 10 -80 6 0 10 33 10 80 0 47 -4 80 -10 80
-6 0 -10 -33 -10 -80z"/>
<path d="M290 6583 c-17 -21 -20 -36 -16 -63 10 -63 77 -83 115 -34 24 30 26
55 10 87 -25 47 -76 51 -109 10z m91 -17 c8 -16 8 -34 2 -53 -8 -23 -15 -28
-44 -28 -27 0 -35 5 -43 27 -15 42 6 78 44 78 22 0 33 -6 41 -24z"/>
<path d="M1330 6600 c0 -5 5 -10 10 -10 6 0 10 5 10 10 0 6 -4 10 -10 10 -5 0
-10 -4 -10 -10z"/>
<path d="M4620 6583 c-17 -21 -20 -36 -16 -63 7 -42 31 -62 70 -58 43 4 42 23
-1 23 -32 0 -39 4 -47 27 -7 19 -6 35 2 54 11 22 17 26 47 22 22 -2 34 0 32 6
-2 6 -17 12 -34 14 -24 2 -36 -3 -53 -25z"/>
<path d="M5430 6600 c0 -5 5 -10 10 -10 6 0 10 5 10 10 0 6 -4 10 -10 10 -5 0
-10 -4 -10 -10z"/>
<path d="M1390 6585 c0 -8 -5 -15 -12 -15 -9 0 -9 -3 0 -12 7 -7 12 -24 12
-39 0 -15 3 -34 6 -43 7 -17 44 -22 44 -6 0 6 -7 10 -15 10 -10 0 -15 11 -15
35 0 24 5 35 15 35 8 0 15 5 15 10 0 6 -7 10 -15 10 -8 0 -15 7 -15 15 0 8 -4
15 -10 15 -5 0 -10 -7 -10 -15z"/>
<path d="M5490 6585 c0 -8 -5 -15 -12 -15 -9 0 -9 -3 0 -12 7 -7 12 -24 12
-39 0 -15 3 -34 6 -43 7 -17 44 -22 44 -6 0 6 -7 10 -15 10 -10 0 -15 11 -15
35 0 24 5 35 15 35 8 0 15 5 15 10 0 6 -7 10 -15 10 -8 0 -15 7 -15 15 0 8 -4
15 -10 15 -5 0 -10 -7 -10 -15z"/>
<path d="M430 6563 c0 -5 7 -17 15 -27 13 -17 13 -23 -1 -44 -9 -13 -13 -27
-9 -30 6 -6 19 9 29 33 2 6 11 0 21 -12 24 -33 39 -28 19 6 -16 28 -16 31 0
55 20 31 4 35 -18 5 l-14 -21 -11 21 c-11 20 -31 29 -31 14z"/>
<path d="M530 6560 c0 -5 7 -28 16 -50 9 -22 14 -52 11 -66 -9 -48 15 -18 43
54 30 76 22 102 -9 30 l-18 -43 -13 43 c-12 38 -30 58 -30 32z"/>
<path d="M650 6513 c0 -29 5 -53 10 -53 6 0 10 18 10 41 0 32 4 42 20 46 31 8
24 22 -10 20 -29 -2 -30 -3 -30 -54z"/>
<path d="M850 6560 c0 -5 7 -28 16 -50 9 -22 14 -52 11 -66 -9 -48 15 -18 43
54 30 76 22 102 -9 30 l-18 -43 -13 43 c-12 38 -30 58 -30 32z"/>
<path d="M970 6513 c0 -63 17 -72 22 -10 2 35 7 43 26 45 20 3 22 -1 22 -42 0
-25 5 -46 10 -46 15 0 12 86 -3 98 -7 6 -27 10 -45 10 -32 -1 -32 -1 -32 -55z"/>
<path d="M1106 6554 c-32 -32 -10 -94 34 -94 31 0 33 18 3 22 -24 3 -28 8 -28
33 0 25 4 30 28 33 15 2 25 8 22 13 -9 14 -42 11 -59 -7z"/>
<path d="M1330 6515 c0 -30 5 -55 10 -55 6 0 10 25 10 55 0 30 -4 55 -10 55
-5 0 -10 -25 -10 -55z"/>
<path d="M1477 6552 c-34 -37 -11 -92 38 -92 37 0 39 18 3 22 -49 5 -48 28 1
28 45 0 54 16 25 44 -21 21 -47 20 -67 -2z m58 -12 c4 -6 -7 -10 -25 -10 -18
0 -29 4 -25 10 3 6 15 10 25 10 10 0 22 -4 25 -10z"/>
<path d="M1620 6513 c0 -63 17 -72 22 -10 2 35 7 43 26 45 20 3 22 -1 22 -42
0 -25 5 -46 10 -46 15 0 12 86 -3 98 -7 6 -27 10 -45 10 -32 -1 -32 -1 -32
-55z"/>
<path d="M1757 6552 c-21 -24 -22 -56 -1 -77 24 -23 66 -15 83 16 13 24 13 29
-2 53 -21 31 -56 34 -80 8z m68 -21 c10 -31 -5 -52 -34 -49 -26 3 -38 26 -27
54 8 21 53 18 61 -5z"/>
<path d="M1880 6513 c0 -63 18 -71 22 -10 2 34 7 42 23 42 16 0 21 -8 23 -42
2 -24 7 -43 12 -43 5 0 7 15 5 34 -3 41 7 59 31 54 14 -2 20 -13 22 -46 2 -23
7 -42 12 -42 9 0 4 86 -6 101 -7 12 -41 11 -49 -1 -5 -8 -11 -8 -19 -1 -7 6
-27 9 -44 8 -32 -2 -32 -3 -32 -54z"/>
<path d="M2077 6552 c-34 -37 -11 -92 38 -92 37 0 39 18 3 22 -49 5 -48 28 1
28 45 0 54 16 25 44 -21 21 -47 20 -67 -2z m58 -12 c4 -6 -7 -10 -25 -10 -18
0 -29 4 -25 10 3 6 15 10 25 10 10 0 22 -4 25 -10z"/>
<path d="M4730 6560 c0 -5 7 -28 16 -50 9 -22 14 -52 11 -66 -9 -48 15 -18 43
54 30 76 22 102 -9 30 l-18 -43 -13 43 c-12 38 -30 58 -30 32z"/>
<path d="M4850 6513 c0 -63 17 -72 22 -10 2 35 7 43 26 45 20 3 22 -1 22 -42
0 -25 5 -46 10 -46 15 0 12 86 -3 98 -7 6 -27 10 -45 10 -32 -1 -32 -1 -32
-55z"/>
<path d="M4987 6552 c-34 -37 -11 -92 37 -92 29 0 49 22 49 55 0 52 -53 74
-86 37z m68 -21 c10 -31 -5 -52 -34 -49 -26 3 -38 26 -27 54 8 21 53 18 61 -5z"/>
<path d="M5110 6493 c0 -42 4 -73 10 -73 6 0 10 11 10 24 0 19 4 22 23 19 30
-6 50 19 49 59 -1 37 -15 48 -59 46 l-33 -1 0 -74z m72 40 c7 -33 -4 -54 -26
-51 -37 5 -34 68 3 68 11 0 21 -8 23 -17z"/>
<path d="M5247 6552 c-21 -23 -22 -56 -1 -76 23 -24 61 -20 80 8 34 53 -37
115 -79 68z m68 -21 c10 -31 -5 -52 -34 -49 -26 3 -38 26 -27 54 8 21 53 18
61 -5z"/>
<path d="M5430 6515 c0 -30 5 -55 10 -55 6 0 10 25 10 55 0 30 -4 55 -10 55
-5 0 -10 -25 -10 -55z"/>
<path d="M5577 6552 c-34 -37 -11 -92 38 -92 37 0 39 18 3 22 -49 5 -48 28 1
28 45 0 54 16 25 44 -21 21 -47 20 -67 -2z m58 -12 c4 -6 -7 -10 -25 -10 -18
0 -29 4 -25 10 3 6 15 10 25 10 10 0 22 -4 25 -10z"/>
<path d="M5720 6513 c0 -63 18 -71 22 -10 2 35 7 43 26 45 20 3 22 -1 22 -42
0 -25 5 -46 10 -46 15 0 12 86 -3 99 -7 6 -28 9 -45 8 -32 -2 -32 -3 -32 -54z"/>
<path d="M5857 6552 c-34 -37 -11 -92 37 -92 29 0 49 22 49 55 0 52 -53 74
-86 37z m68 -21 c10 -31 -5 -52 -34 -49 -26 3 -38 26 -27 54 8 21 53 18 61 -5z"/>
<path d="M5980 6513 c0 -63 18 -71 22 -10 2 34 7 42 23 42 16 0 21 -8 23 -42
2 -24 8 -43 13 -43 6 0 10 12 9 28 -4 56 -1 64 23 60 18 -2 23 -11 28 -48 6
-46 9 -46 13 1 4 39 -11 69 -33 69 -11 0 -23 -5 -26 -10 -5 -8 -11 -8 -19 -1
-7 6 -27 9 -44 8 -32 -2 -32 -3 -32 -54z"/>
<path d="M6177 6552 c-34 -37 -11 -92 38 -92 37 0 39 18 3 22 -49 5 -48 28 1
28 45 0 54 16 25 44 -21 21 -47 20 -67 -2z m58 -12 c4 -6 -7 -10 -25 -10 -18
0 -29 4 -25 10 3 6 15 10 25 10 10 0 22 -4 25 -10z"/>
<path d="M907 6313 c-13 -13 -7 -19 20 -18 41 0 40 -27 -1 -73 -20 -22 -36
-42 -36 -46 0 -3 23 -6 50 -6 55 0 69 17 18 22 l-31 3 26 31 c29 34 34 63 15
82 -13 13 -50 16 -61 5z"/>
<path d="M1020 6285 c0 -30 3 -35 24 -35 29 0 49 -22 40 -45 -5 -12 -15 -16
-40 -13 -35 4 -46 -5 -18 -16 28 -11 51 -6 68 13 25 27 17 53 -21 71 -41 19
-43 40 -3 40 17 0 30 5 30 10 0 6 -18 10 -40 10 -39 0 -40 -1 -40 -35z"/>
<path d="M1156 6305 c-25 -25 -31 -81 -12 -110 28 -43 86 -26 86 25 0 23 -5
31 -25 36 -14 3 -31 4 -39 1 -12 -5 -13 -1 -7 16 6 15 18 23 40 25 17 2 29 8
26 13 -9 14 -52 11 -69 -6z m54 -90 c0 -20 -5 -25 -24 -25 -15 0 -26 7 -29 19
-6 25 0 31 30 31 18 0 23 -5 23 -25z"/>
<path d="M1330 6293 c-17 -21 -20 -36 -16 -63 7 -42 31 -62 70 -58 43 4 42 23
-1 23 -30 0 -38 4 -45 26 -5 16 -5 37 2 54 9 24 15 27 45 23 22 -2 34 0 32 6
-2 6 -17 12 -34 14 -24 2 -36 -3 -53 -25z"/>
<path d="M1450 6245 l0 -75 40 0 c22 0 40 5 40 10 0 6 -13 10 -30 10 -25 0
-30 4 -30 25 0 20 5 25 25 25 14 0 25 5 25 10 0 6 -11 10 -25 10 -18 0 -25 5
-25 20 0 16 7 20 30 20 17 0 30 5 30 10 0 6 -18 10 -40 10 l-40 0 0 -75z"/>
<path d="M5127 6313 c-13 -13 -7 -19 20 -18 41 0 40 -27 -1 -73 -20 -22 -36
-42 -36 -46 0 -3 23 -6 50 -6 28 0 50 5 50 10 0 6 -13 10 -30 10 -35 0 -37 3
-10 30 26 26 35 66 20 85 -13 15 -51 20 -63 8z"/>
<path d="M5256 6305 c-25 -25 -31 -81 -12 -110 28 -43 86 -26 86 25 0 23 -5
31 -25 36 -14 3 -32 4 -40 0 -18 -6 -19 -1 -5 25 7 12 21 19 41 19 18 0 28 4
24 10 -9 15 -52 12 -69 -5z m54 -90 c0 -20 -5 -25 -25 -25 -14 0 -25 4 -25 9
0 5 -3 16 -6 25 -5 13 1 16 25 16 26 0 31 -4 31 -25z"/>
<path d="M5367 6302 c-22 -24 -22 -95 -1 -116 39 -40 84 -7 84 63 0 26 -5 52
-12 59 -18 18 -53 15 -71 -6z m58 -57 c0 -47 -2 -50 -25 -50 -20 0 -26 6 -28
29 -6 49 6 78 31 74 19 -3 22 -9 22 -53z"/>
<path d="M5550 6293 c-17 -21 -20 -36 -16 -63 7 -42 31 -62 70 -58 43 4 42 23
-1 23 -31 0 -38 4 -46 28 -6 20 -6 37 2 54 10 21 17 24 46 21 22 -2 34 0 32 6
-2 6 -17 12 -34 14 -24 2 -36 -3 -53 -25z"/>
<path d="M5670 6245 l0 -75 40 0 c22 0 40 5 40 10 0 6 -13 10 -30 10 -25 0
-30 4 -30 25 0 20 5 25 25 25 14 0 25 5 25 10 0 6 -11 10 -25 10 -18 0 -25 5
-25 20 0 16 7 20 30 20 17 0 30 5 30 10 0 6 -18 10 -40 10 l-40 0 0 -75z"/>
<path d="M1640 5960 c0 -47 4 -80 10 -80 6 0 10 33 10 80 0 47 -4 80 -10 80
-6 0 -10 -33 -10 -80z"/>
<path d="M5120 5960 c0 -47 4 -80 10 -80 6 0 10 33 10 80 0 47 -4 80 -10 80
-6 0 -10 -33 -10 -80z"/>
<path d="M5347 6013 c-15 -30 -11 -133 4 -133 5 0 9 20 9 45 0 33 4 45 15 45
8 0 15 5 15 10 0 6 -7 10 -15 10 -8 0 -15 7 -15 15 0 8 9 15 21 15 11 0 17 5
14 10 -11 19 -34 10 -48 -17z"/>
<path d="M650 6020 c0 -5 5 -10 10 -10 6 0 10 5 10 10 0 6 -4 10 -10 10 -5 0
-10 -4 -10 -10z"/>
<path d="M1040 6020 c0 -5 5 -10 10 -10 6 0 10 5 10 10 0 6 -4 10 -10 10 -5 0
-10 -4 -10 -10z"/>
<path d="M1700 6020 c0 -5 5 -10 10 -10 6 0 10 5 10 10 0 6 -4 10 -10 10 -5 0
-10 -4 -10 -10z"/>
<path d="M5910 6020 c0 -5 5 -10 10 -10 6 0 10 5 10 10 0 6 -4 10 -10 10 -5 0
-10 -4 -10 -10z"/>
<path d="M6300 6020 c0 -5 5 -10 10 -10 6 0 10 5 10 10 0 6 -4 10 -10 10 -5 0
-10 -4 -10 -10z"/>
<path d="M960 6005 c0 -8 -5 -15 -12 -15 -9 0 -9 -3 0 -12 7 -7 12 -24 12 -39
0 -15 3 -34 6 -43 7 -17 44 -22 44 -6 0 6 -7 10 -15 10 -10 0 -15 11 -15 35 0
24 5 35 15 35 8 0 15 5 15 10 0 6 -7 10 -15 10 -8 0 -15 7 -15 15 0 8 -4 15
-10 15 -5 0 -10 -7 -10 -15z"/>
<path d="M1390 6005 c0 -8 -5 -15 -12 -15 -9 0 -9 -3 0 -12 7 -7 12 -24 12
-39 0 -15 3 -34 6 -43 7 -17 44 -22 44 -6 0 6 -7 10 -15 10 -10 0 -15 11 -15
35 0 24 5 35 15 35 8 0 15 5 15 10 0 6 -7 10 -15 10 -8 0 -15 7 -15 15 0 8 -4
15 -10 15 -5 0 -10 -7 -10 -15z"/>
<path d="M1760 6005 c0 -8 -5 -15 -12 -15 -9 0 -9 -3 0 -12 7 -7 12 -24 12
-39 0 -15 3 -34 6 -43 7 -17 44 -22 44 -6 0 6 -7 10 -15 10 -10 0 -15 11 -15
35 0 24 5 35 15 35 8 0 15 5 15 10 0 6 -7 10 -15 10 -8 0 -15 7 -15 15 0 8 -4
15 -10 15 -5 0 -10 -7 -10 -15z"/>
<path d="M6220 6005 c0 -8 -5 -15 -12 -15 -9 0 -9 -3 0 -12 7 -7 12 -24 12
-39 0 -15 3 -34 6 -43 7 -17 44 -22 44 -6 0 6 -7 10 -15 10 -10 0 -15 11 -15
35 0 24 5 35 15 35 8 0 15 5 15 10 0 6 -7 10 -15 10 -8 0 -15 7 -15 15 0 8 -4
15 -10 15 -5 0 -10 -7 -10 -15z"/>
<path d="M200 5933 c0 -63 18 -71 22 -10 2 35 7 43 26 45 20 3 22 -1 22 -42 0
-25 5 -46 10 -46 15 0 12 86 -3 99 -7 6 -28 9 -45 8 -32 -2 -32 -3 -32 -54z"/>
<path d="M337 5972 c-21 -24 -22 -56 -1 -77 24 -23 66 -15 83 16 13 24 13 29
-2 53 -21 31 -56 34 -80 8z m68 -21 c10 -31 -5 -52 -34 -49 -26 3 -38 26 -27
54 8 21 53 18 61 -5z"/>
<path d="M460 5933 c0 -63 17 -72 22 -10 2 34 7 42 23 42 16 0 21 -9 26 -45 7
-50 9 -50 16 0 5 42 16 55 37 47 11 -4 16 -19 16 -47 0 -23 4 -39 8 -36 9 5 7
69 -2 93 -6 16 -42 17 -51 3 -5 -7 -11 -8 -19 -1 -6 5 -26 9 -44 9 -32 -1 -32
-1 -32 -55z"/>
<path d="M650 5935 c0 -30 5 -55 10 -55 6 0 10 25 10 55 0 30 -4 55 -10 55 -5
0 -10 -25 -10 -55z"/>
<path d="M710 5933 c0 -63 17 -72 22 -10 2 35 7 43 26 45 20 3 22 -1 22 -42 0
-25 5 -46 10 -46 15 0 12 86 -3 98 -7 6 -27 10 -45 10 -32 -1 -32 -1 -32 -55z"/>
<path d="M847 5983 c-14 -14 -6 -19 23 -15 40 6 39 -14 -1 -23 -59 -13 -45
-65 17 -63 33 1 34 2 34 43 0 22 -5 46 -12 53 -13 13 -50 16 -61 5z m51 -65
c-5 -15 -48 -24 -48 -10 0 14 12 22 33 22 10 0 17 -5 15 -12z"/>
<path d="M1040 5935 c0 -30 5 -55 10 -55 6 0 10 25 10 55 0 30 -4 55 -10 55
-5 0 -10 -25 -10 -55z"/>
<path d="M1107 5972 c-34 -37 -11 -92 37 -92 29 0 49 22 49 55 0 52 -53 74
-86 37z m68 -21 c10 -31 -5 -52 -34 -49 -26 3 -38 26 -27 54 8 21 53 18 61 -5z"/>
<path d="M1230 5933 c0 -63 17 -72 22 -10 2 35 7 43 26 45 20 3 22 -1 22 -42
0 -25 5 -46 10 -46 15 0 12 86 -3 98 -7 6 -27 10 -45 10 -32 -1 -32 -1 -32
-55z"/>
<path d="M1477 5972 c-34 -37 -11 -92 37 -92 29 0 49 22 49 55 0 52 -53 74
-86 37z m68 -21 c10 -31 -5 -52 -34 -49 -26 3 -38 26 -27 54 8 21 53 18 61 -5z"/>
<path d="M1700 5935 c0 -30 5 -55 10 -55 6 0 10 25 10 55 0 30 -4 55 -10 55
-5 0 -10 -25 -10 -55z"/>
<path d="M1840 5940 c0 -27 3 -51 8 -51 4 -1 24 -3 45 -4 l37 -2 0 53 c0 64
-17 73 -22 12 -2 -36 -7 -44 -25 -46 -21 -3 -23 1 -23 42 0 25 -4 46 -10 46
-5 0 -10 -22 -10 -50z"/>
<path d="M1970 5933 c0 -29 5 -53 10 -53 6 0 10 18 10 41 0 32 4 42 20 46 30
8 24 22 -10 21 -29 -1 -30 -2 -30 -55z"/>
<path d="M2052 5973 c-5 -10 -8 -43 -8 -73 1 -59 11 -68 62 -56 19 5 25 12 22
29 -2 17 -12 23 -38 27 l-35 6 33 7 c25 5 32 12 32 30 0 13 5 28 12 35 9 9 3
12 -30 12 -29 0 -44 -5 -50 -17z m53 -23 c0 -8 -10 -16 -22 -18 -18 -3 -23 2
-23 18 0 16 5 21 23 18 12 -2 22 -10 22 -18z m10 -80 c-3 -5 -17 -10 -31 -10
-13 0 -24 5 -24 10 0 6 14 10 31 10 17 0 28 -4 24 -10z"/>
<path d="M2150 5980 c0 -5 7 -28 16 -50 9 -22 14 -52 11 -66 -9 -48 15 -18 43
54 30 76 22 102 -9 30 l-18 -43 -13 43 c-12 38 -30 58 -30 32z"/>
<path d="M4307 5983 c-14 -14 -6 -19 23 -15 40 6 39 -14 -1 -23 -59 -13 -45
-65 17 -63 33 1 34 2 34 43 0 22 -5 46 -12 53 -13 13 -50 16 -61 5z m51 -65
c-5 -15 -48 -24 -48 -10 0 14 12 22 33 22 10 0 17 -5 15 -12z"/>
<path d="M4420 5913 c0 -42 4 -73 10 -73 6 0 10 11 10 24 0 19 4 22 23 19 41
-8 67 48 41 86 -11 14 -25 20 -49 19 l-35 -1 0 -74z m72 40 c7 -33 -4 -54 -26
-51 -37 5 -34 68 3 68 11 0 21 -8 23 -17z"/>
<path d="M4550 5913 c0 -42 4 -73 10 -73 6 0 10 11 10 24 0 19 4 22 24 19 18
-4 29 2 41 20 14 23 15 30 3 54 -11 23 -20 28 -51 28 l-37 1 0 -73z m72 40 c7
-33 -4 -54 -26 -51 -37 5 -34 68 3 68 11 0 21 -8 23 -17z"/>
<path d="M4680 5933 c0 -29 5 -53 10 -53 6 0 10 18 10 41 0 32 4 42 20 46 30
8 24 22 -10 21 -29 -1 -30 -2 -30 -55z"/>
<path d="M4767 5972 c-34 -37 -11 -92 37 -92 29 0 49 22 49 55 0 52 -53 74
-86 37z m68 -21 c10 -31 -5 -52 -34 -49 -26 3 -38 26 -27 54 8 21 53 18 61 -5z"/>
<path d="M4880 5982 c0 -26 34 -102 45 -102 14 0 51 97 41 107 -3 3 -14 -14
-24 -38 l-19 -44 -13 43 c-11 36 -30 58 -30 34z"/>
<path d="M5007 5983 c-14 -14 -6 -19 23 -15 40 6 39 -14 -1 -23 -59 -13 -45
-65 17 -63 33 1 34 2 34 43 0 22 -5 46 -12 53 -13 13 -50 16 -61 5z m51 -65
c-5 -15 -48 -24 -48 -10 0 14 12 22 33 22 10 0 17 -5 15 -12z"/>
<path d="M5217 5972 c-21 -24 -22 -56 -1 -77 24 -23 66 -15 83 16 13 24 13 29
-2 53 -21 31 -56 34 -80 8z m68 -21 c10 -31 -5 -52 -34 -49 -26 3 -38 26 -27
54 8 21 53 18 61 -5z"/>
<path d="M5460 5933 c0 -63 18 -71 22 -10 2 35 7 43 26 45 20 3 22 -1 22 -42
0 -25 5 -46 10 -46 15 0 12 86 -3 99 -7 6 -28 9 -45 8 -32 -2 -32 -3 -32 -54z"/>
<path d="M5597 5972 c-21 -23 -22 -56 -1 -76 23 -24 61 -20 80 8 34 53 -37
115 -79 68z m68 -21 c10 -31 -5 -52 -34 -49 -26 3 -38 26 -27 54 8 21 53 18
61 -5z"/>
<path d="M5720 5933 c0 -63 18 -71 22 -10 2 34 7 42 23 42 16 0 21 -8 23 -42
3 -45 18 -60 19 -20 1 65 2 68 26 65 18 -2 23 -10 25 -45 2 -24 7 -43 11 -43
10 0 6 84 -4 100 -8 13 -42 13 -50 0 -5 -8 -11 -8 -19 -1 -7 6 -27 9 -44 8
-32 -2 -32 -3 -32 -54z"/>
<path d="M5910 5935 c0 -30 5 -55 10 -55 6 0 10 25 10 55 0 30 -4 55 -10 55
-5 0 -10 -25 -10 -55z"/>
<path d="M5970 5933 c0 -63 18 -71 22 -10 2 35 7 43 26 45 20 3 22 -1 22 -42
0 -25 5 -46 10 -46 15 0 12 86 -3 99 -7 6 -28 9 -45 8 -32 -2 -32 -3 -32 -54z"/>
<path d="M6107 5983 c-14 -14 -6 -19 23 -15 40 6 39 -14 -1 -23 -59 -13 -45
-65 17 -63 33 1 34 2 34 43 0 22 -5 46 -12 53 -13 13 -50 16 -61 5z m51 -65
c-5 -15 -48 -24 -48 -10 0 14 12 22 33 22 10 0 17 -5 15 -12z"/>
<path d="M6300 5935 c0 -30 5 -55 10 -55 6 0 10 25 10 55 0 30 -4 55 -10 55
-5 0 -10 -25 -10 -55z"/>
<path d="M6367 5972 c-35 -39 -8 -96 42 -90 17 2 30 13 39 31 12 24 11 31 -2
53 -20 29 -56 32 -79 6z m68 -21 c10 -31 -5 -52 -34 -49 -26 3 -38 26 -27 54
8 21 53 18 61 -5z"/>
<path d="M6490 5933 c0 -63 17 -72 22 -10 2 35 7 43 26 45 20 3 22 -1 22 -42
0 -25 5 -46 10 -46 15 0 12 86 -3 98 -7 6 -27 10 -45 10 -32 -1 -32 -1 -32
-55z"/>
<path d="M5156 5474 c-34 -33 -8 -81 39 -72 15 3 25 1 25 -6 0 -20 -23 -36
-53 -36 -16 0 -26 -4 -22 -10 10 -17 54 -11 75 10 40 40 19 130 -30 130 -10 0
-26 -7 -34 -16z m62 -31 c3 -19 -1 -23 -22 -23 -28 0 -41 14 -32 36 9 24 50
13 54 -13z"/>
<path d="M5337 5483 c-13 -13 -7 -19 20 -18 41 0 40 -27 -1 -73 -20 -22 -36
-42 -36 -46 0 -3 23 -6 50 -6 28 0 50 5 50 10 0 6 -13 10 -30 10 -35 0 -38 9
-10 32 26 23 36 64 20 83 -13 15 -51 20 -63 8z"/>
<path d="M984 5459 c-19 -21 -19 -22 4 -15 21 7 22 5 22 -43 0 -38 -4 -51 -14
-51 -8 0 -18 -4 -21 -10 -4 -6 12 -10 42 -10 42 1 46 2 31 14 -14 10 -18 28
-18 75 0 67 -12 78 -46 40z"/>
<path d="M1109 5459 l-24 -20 23 6 c21 6 22 3 22 -44 0 -38 -4 -51 -14 -51 -8
0 -18 -4 -21 -10 -4 -6 12 -10 42 -10 42 1 46 2 31 14 -14 10 -18 28 -18 75 0
33 -4 61 -9 61 -5 0 -19 -9 -32 -21z"/>
<path d="M5516 5434 c-32 -32 -10 -94 34 -94 31 0 33 18 3 22 -24 3 -28 8 -28
33 0 25 4 30 28 33 15 2 25 8 22 13 -9 14 -42 11 -59 -7z"/>
<path d="M5610 5393 c0 -63 17 -72 22 -10 2 34 7 42 23 42 16 0 21 -9 26 -45
7 -50 10 -51 14 -2 5 69 55 71 55 2 0 -22 4 -40 8 -40 10 0 7 84 -3 100 -8 13
-42 13 -50 0 -5 -7 -11 -8 -19 -1 -6 5 -26 9 -44 9 -32 -1 -32 -1 -32 -55z"/>
<path d="M1276 5424 c-32 -32 -10 -94 34 -94 31 0 33 18 3 22 -24 3 -28 8 -28
33 0 25 4 30 28 33 15 2 25 8 22 13 -9 14 -42 11 -59 -7z"/>
<path d="M1370 5383 c0 -63 18 -71 22 -10 2 34 7 42 23 42 16 0 21 -8 23 -42
2 -24 7 -43 11 -43 4 0 7 15 6 34 -3 42 7 59 31 54 14 -2 20 -13 22 -46 2 -23
7 -42 11 -42 9 0 6 83 -4 99 -8 14 -42 14 -50 1 -5 -8 -11 -8 -19 -1 -7 6 -27
9 -44 8 -32 -2 -32 -3 -32 -54z"/>
<path d="M5270 5355 c0 -8 5 -15 10 -15 6 0 10 7 10 15 0 8 -4 15 -10 15 -5 0
-10 -7 -10 -15z"/>
<path d="M4590 2700 l0 -2590 875 0 875 0 0 2590 0 2590 -875 0 -875 0 0
-2590z m1720 0 l0 -2560 -845 0 -845 0 0 2560 0 2560 845 0 845 0 0 -2560z"/>
<path d="M5880 5070 c0 -47 4 -80 10 -80 6 0 10 33 10 80 0 47 -4 80 -10 80
-6 0 -10 -33 -10 -80z"/>
<path d="M5067 5093 c-14 -14 -6 -19 23 -15 40 6 39 -14 -1 -23 -59 -13 -45
-65 17 -63 33 1 34 2 34 43 0 22 -5 46 -12 53 -13 13 -50 16 -61 5z m51 -65
c-5 -15 -48 -24 -48 -10 0 14 12 22 33 22 10 0 17 -5 15 -12z"/>
<path d="M5180 5024 c0 -43 4 -74 10 -74 6 0 10 11 10 24 0 19 4 22 24 19 32
-6 60 33 50 71 -6 26 -23 34 -71 34 -22 1 -23 -3 -23 -74z m72 39 c7 -33 -4
-54 -26 -51 -37 5 -34 68 3 68 11 0 21 -8 23 -17z"/>
<path d="M5310 5024 c0 -43 4 -74 10 -74 6 0 10 11 10 24 0 19 4 22 24 19 32
-6 60 33 50 71 -6 26 -23 34 -71 34 -22 1 -23 -3 -23 -74z m72 39 c7 -33 -4
-54 -26 -51 -37 5 -34 68 3 68 11 0 21 -8 23 -17z"/>
<path d="M5440 5043 c0 -29 5 -53 10 -53 6 0 10 18 10 41 0 32 4 42 20 46 30
8 24 22 -10 21 -29 -1 -30 -2 -30 -55z"/>
<path d="M5527 5082 c-21 -24 -22 -56 -1 -77 24 -23 66 -15 83 16 13 24 13 29
-2 53 -21 31 -56 34 -80 8z m68 -21 c10 -31 -5 -52 -34 -49 -26 3 -38 26 -27
54 8 21 53 18 61 -5z"/>
<path d="M5640 5092 c0 -25 34 -102 45 -102 6 0 21 25 32 55 24 64 11 75 -16
13 l-18 -43 -13 43 c-11 36 -30 58 -30 34z"/>
<path d="M5767 5093 c-14 -14 -6 -19 23 -15 40 6 39 -14 -1 -23 -59 -13 -45
-65 17 -63 33 1 34 2 34 43 0 22 -5 46 -12 53 -13 13 -50 16 -61 5z m51 -65
c-5 -15 -48 -24 -48 -10 0 14 12 22 33 22 10 0 17 -5 15 -12z"/>
<path d="M4917 4833 c-15 -30 -11 -133 4 -133 5 0 9 20 9 45 0 33 4 45 15 45
8 0 15 5 15 10 0 6 -7 10 -15 10 -8 0 -15 7 -15 15 0 8 9 15 21 15 11 0 17 5
14 10 -11 19 -34 10 -48 -17z"/>
<path d="M5480 4840 c0 -5 5 -10 10 -10 6 0 10 5 10 10 0 6 -4 10 -10 10 -5 0
-10 -4 -10 -10z"/>
<path d="M5870 4840 c0 -5 5 -10 10 -10 6 0 10 5 10 10 0 6 -4 10 -10 10 -5 0
-10 -4 -10 -10z"/>
<path d="M5790 4825 c0 -8 -5 -15 -12 -15 -9 0 -9 -3 0 -12 7 -7 12 -24 12
-39 0 -15 3 -34 6 -43 7 -17 44 -22 44 -6 0 6 -7 10 -15 10 -10 0 -15 11 -15
35 0 24 5 35 15 35 8 0 15 5 15 10 0 6 -7 10 -15 10 -8 0 -15 7 -15 15 0 8 -4
15 -10 15 -5 0 -10 -7 -10 -15z"/>
<path d="M4787 4792 c-21 -24 -22 -56 -1 -77 24 -23 66 -15 83 16 13 24 13 29
-2 53 -21 31 -56 34 -80 8z m68 -21 c10 -31 -5 -52 -34 -49 -26 3 -38 26 -27
54 8 21 53 18 61 -5z"/>
<path d="M5030 4753 c0 -63 17 -72 22 -10 2 35 7 43 26 45 20 3 22 -1 22 -42
0 -25 5 -46 10 -46 15 0 12 86 -3 98 -7 6 -27 10 -45 10 -32 -1 -32 -1 -32
-55z"/>
<path d="M5167 4792 c-21 -24 -22 -56 -1 -77 24 -23 66 -15 83 16 13 24 13 29
-2 53 -21 31 -56 34 -80 8z m68 -21 c10 -31 -5 -52 -34 -49 -26 3 -38 26 -27
54 8 21 53 18 61 -5z"/>
<path d="M5290 4753 c0 -63 18 -72 22 -10 2 34 7 42 23 42 16 0 21 -8 23 -42
2 -24 7 -43 12 -43 5 0 10 19 12 43 2 34 7 42 23 42 16 0 21 -8 23 -42 2 -24
7 -43 13 -43 12 0 12 51 0 83 -9 22 -14 24 -80 24 l-71 0 0 -54z"/>
<path d="M5480 4755 c0 -30 5 -55 10 -55 6 0 10 25 10 55 0 30 -4 55 -10 55
-5 0 -10 -25 -10 -55z"/>
<path d="M5540 4753 c0 -63 17 -72 22 -10 2 35 7 43 26 45 20 3 22 -1 22 -42
0 -25 5 -46 10 -46 15 0 12 86 -3 98 -7 6 -27 10 -45 10 -32 -1 -32 -1 -32
-55z"/>
<path d="M5677 4803 c-14 -14 -6 -19 23 -15 40 6 39 -14 -1 -23 -59 -13 -45
-65 17 -63 33 1 34 2 34 43 0 22 -5 46 -12 53 -13 13 -50 16 -61 5z m51 -65
c-5 -15 -48 -24 -48 -10 0 14 12 22 33 22 10 0 17 -5 15 -12z"/>
<path d="M5870 4755 c0 -30 5 -55 10 -55 6 0 10 25 10 55 0 30 -4 55 -10 55
-5 0 -10 -25 -10 -55z"/>
<path d="M5937 4792 c-21 -24 -22 -56 -1 -77 24 -23 66 -15 83 16 13 24 13 29
-2 53 -21 31 -56 34 -80 8z m68 -21 c10 -31 -5 -52 -34 -49 -26 3 -38 26 -27
54 8 21 53 18 61 -5z"/>
<path d="M6060 4753 c0 -63 17 -72 22 -10 2 35 7 43 26 45 20 3 22 -1 22 -42
0 -25 5 -46 10 -46 15 0 12 86 -3 98 -7 6 -27 10 -45 10 -32 -1 -32 -1 -32
-55z"/>
<path d="M5170 4492 l0 -79 35 -1 c43 -2 70 31 59 72 -6 26 -43 44 -63 31 -7
-4 -11 5 -11 24 0 17 -4 31 -10 31 -6 0 -10 -33 -10 -78z m72 -9 c7 -33 -4
-54 -26 -51 -37 5 -34 68 3 68 11 0 21 -8 23 -17z"/>
<path d="M5540 4490 c0 -83 17 -112 22 -37 2 35 7 43 26 45 20 3 22 -1 22 -42
0 -25 5 -46 10 -46 6 0 10 20 10 44 0 48 -18 71 -50 63 -17 -4 -20 0 -20 24 0
16 -4 29 -10 29 -6 0 -10 -33 -10 -80z"/>
<path d="M5460 4535 c0 -8 -5 -15 -12 -15 -9 0 -9 -3 0 -12 7 -7 12 -24 12
-39 0 -15 3 -34 6 -43 7 -17 44 -22 44 -6 0 6 -7 10 -15 10 -10 0 -15 11 -15
35 0 24 5 35 15 35 8 0 15 5 15 10 0 6 -7 10 -15 10 -8 0 -15 7 -15 15 0 8 -4
15 -10 15 -5 0 -10 -7 -10 -15z"/>
<path d="M5290 4510 c0 -5 7 -28 16 -50 9 -22 14 -52 11 -66 -9 -49 16 -18 44
54 29 76 21 101 -10 30 l-18 -43 -13 43 c-12 38 -30 58 -30 32z"/>
<path d="M5677 4502 c-34 -37 -11 -92 38 -92 37 0 39 18 3 22 -49 5 -48 28 1
28 42 0 48 8 31 41 -13 24 -52 25 -73 1z m58 -12 c4 -6 -7 -10 -25 -10 -18 0
-29 4 -25 10 3 6 15 10 25 10 10 0 22 -4 25 -10z"/>
<path d="M5140 4245 c0 -8 -7 -15 -16 -15 -12 0 -14 -3 -6 -13 7 -8 9 -29 5
-50 -4 -29 -2 -38 11 -43 9 -4 20 -3 24 1 4 4 1 10 -5 12 -24 9 -12 73 13 73
8 0 14 5 14 10 0 6 -7 10 -15 10 -9 0 -12 6 -9 15 4 8 1 15 -5 15 -6 0 -11 -7
-11 -15z"/>
<path d="M5420 4245 c0 -8 -7 -15 -16 -15 -12 0 -14 -3 -6 -13 7 -8 9 -29 5
-50 -4 -29 -2 -38 11 -43 10 -4 22 -2 29 5 8 8 7 11 -6 11 -10 0 -17 8 -17 19
0 30 11 51 26 51 8 0 14 5 14 10 0 6 -7 10 -15 10 -9 0 -12 6 -9 15 4 8 1 15
-5 15 -6 0 -11 -7 -11 -15z"/>
<path d="M5042 4218 c-18 -18 -15 -36 8 -48 30 -16 24 -30 -12 -30 -23 0 -29
-3 -21 -11 15 -15 54 -7 67 14 9 15 7 22 -11 34 -30 20 -29 33 3 33 14 0 23 4
19 10 -8 14 -38 13 -53 -2z"/>
<path d="M5206 4211 c-13 -43 -17 -91 -9 -91 5 0 14 17 19 38 6 23 17 41 32
47 31 14 28 24 -8 23 -18 -1 -31 -7 -34 -17z"/>
<path d="M5295 4216 c-11 -8 -18 -27 -19 -52 l-1 -39 41 -1 41 -1 10 52 9 52
-32 1 c-17 1 -39 -5 -49 -12z m55 -22 c0 -27 -20 -54 -40 -54 -22 0 -26 20
-10 51 13 23 50 26 50 3z"/>
<path d="M5496 4214 c-23 -22 -30 -62 -16 -79 14 -17 56 -20 65 -5 4 6 -7 10
-24 10 -39 0 -40 16 -2 25 40 9 58 30 41 50 -16 19 -44 19 -64 -1z m52 -16
c-5 -15 -48 -24 -48 -10 0 14 12 22 33 22 10 0 17 -5 15 -12z"/>
<path d="M5605 4216 c-11 -8 -18 -27 -19 -52 -1 -38 0 -39 32 -37 43 2 37 -21
-6 -25 -40 -4 -42 -22 -3 -22 38 0 51 18 66 88 l12 59 -32 1 c-18 1 -40 -5
-50 -12z m55 -22 c0 -27 -20 -54 -40 -54 -22 0 -26 20 -10 51 13 23 50 26 50
3z"/>
<path d="M5721 4211 c-37 -37 -22 -91 24 -91 33 0 57 33 53 72 -2 27 -7 34
-30 36 -17 2 -34 -4 -47 -17z m59 -20 c0 -35 -12 -51 -36 -51 -26 0 -31 18
-14 51 14 25 50 25 50 0z"/>
<path d="M5842 4218 c-18 -18 -15 -36 8 -48 30 -16 24 -30 -12 -30 -23 0 -29
-3 -21 -11 15 -15 54 -7 67 14 9 15 7 22 -11 34 -30 20 -29 33 3 33 14 0 23 4
19 10 -8 14 -38 13 -53 -2z"/>
<path d="M5360 2690 c0 -5 5 -10 10 -10 6 0 10 5 10 10 0 6 -4 10 -10 10 -5 0
-10 -4 -10 -10z"/>
<path d="M5750 2690 c0 -5 5 -10 10 -10 6 0 10 5 10 10 0 6 -4 10 -10 10 -5 0
-10 -4 -10 -10z"/>
<path d="M5670 2675 c0 -8 -5 -15 -12 -15 -9 0 -9 -3 0 -12 7 -7 12 -24 12
-39 0 -15 3 -34 6 -43 7 -17 44 -22 44 -6 0 6 -7 10 -15 10 -10 0 -15 11 -15
35 0 24 5 35 15 35 8 0 15 5 15 10 0 6 -7 10 -15 10 -8 0 -15 7 -15 15 0 8 -4
15 -10 15 -5 0 -10 -7 -10 -15z"/>
<path d="M4910 2603 c0 -63 17 -72 22 -10 2 35 7 43 26 45 20 3 22 -1 22 -42
0 -25 5 -46 10 -46 15 0 12 86 -3 98 -7 6 -27 10 -45 10 -32 -1 -32 -1 -32
-55z"/>
<path d="M5047 2642 c-21 -24 -22 -56 -1 -77 24 -23 66 -15 83 16 13 24 13 29
-2 53 -21 31 -56 34 -80 8z m68 -21 c10 -31 -5 -52 -34 -49 -26 3 -38 26 -27
54 8 21 53 18 61 -5z"/>
<path d="M5170 2603 c0 -63 18 -72 22 -10 2 34 7 42 23 42 16 0 21 -8 23 -42
2 -24 7 -43 12 -43 5 0 10 19 12 43 2 34 7 42 23 42 15 0 20 -7 21 -30 3 -51
4 -55 14 -55 13 0 13 51 1 83 -9 22 -14 24 -80 24 l-71 0 0 -54z"/>
<path d="M5360 2605 c0 -30 5 -55 10 -55 6 0 10 25 10 55 0 30 -4 55 -10 55
-5 0 -10 -25 -10 -55z"/>
<path d="M5420 2603 c0 -63 17 -72 22 -10 2 35 7 43 26 45 20 3 22 -1 22 -42
0 -25 5 -46 10 -46 15 0 12 86 -3 98 -7 6 -27 10 -45 10 -32 -1 -32 -1 -32
-55z"/>
<path d="M5557 2653 c-14 -14 -6 -19 23 -15 39 6 39 -14 0 -23 -35 -8 -43 -18
-35 -45 5 -16 14 -19 46 -18 39 1 39 1 39 43 0 22 -5 46 -12 53 -13 13 -50 16
-61 5z m51 -65 c-5 -15 -48 -24 -48 -10 0 14 12 22 33 22 10 0 17 -5 15 -12z"/>
<path d="M5750 2605 c0 -30 5 -55 10 -55 6 0 10 25 10 55 0 30 -4 55 -10 55
-5 0 -10 -25 -10 -55z"/>
<path d="M5817 2642 c-21 -24 -22 -56 -1 -77 24 -23 66 -15 83 16 13 24 13 29
-2 53 -21 31 -56 34 -80 8z m68 -21 c10 -31 -5 -52 -34 -49 -26 3 -38 26 -27
54 8 21 53 18 61 -5z"/>
<path d="M5940 2603 c0 -63 17 -72 22 -10 2 35 7 43 26 45 20 3 22 -1 22 -42
0 -25 5 -46 10 -46 15 0 12 86 -3 98 -7 6 -27 10 -45 10 -32 -1 -32 -1 -32
-55z"/>
<path d="M5540 1060 c0 -5 5 -10 10 -10 6 0 10 5 10 10 0 6 -4 10 -10 10 -5 0
-10 -4 -10 -10z"/>
<path d="M5780 1060 c0 -5 5 -10 10 -10 6 0 10 5 10 10 0 6 -4 10 -10 10 -5 0
-10 -4 -10 -10z"/>
<path d="M4850 1045 c0 -8 -5 -15 -12 -15 -9 0 -9 -3 0 -12 7 -7 12 -24 12
-39 0 -15 3 -34 6 -43 7 -17 44 -22 44 -6 0 6 -7 10 -15 10 -10 0 -15 11 -15
35 0 24 5 35 15 35 8 0 15 5 15 10 0 6 -7 10 -15 10 -8 0 -15 7 -15 15 0 8 -4
15 -10 15 -5 0 -10 -7 -10 -15z"/>
<path d="M4930 973 c0 -29 5 -53 10 -53 6 0 10 18 10 41 0 32 4 42 20 46 30 8
24 22 -10 21 -29 -1 -30 -2 -30 -55z"/>
<path d="M5017 1023 c-14 -14 -6 -19 23 -15 40 6 39 -14 -1 -23 -59 -13 -45
-65 17 -63 33 1 34 2 34 43 0 22 -5 46 -12 53 -13 13 -50 16 -61 5z m51 -65
c-5 -15 -48 -24 -48 -10 0 14 12 22 33 22 10 0 17 -5 15 -12z"/>
<path d="M5130 973 c0 -63 17 -72 22 -10 2 35 7 43 26 45 20 3 22 -1 22 -42 0
-25 5 -46 10 -46 15 0 12 86 -3 98 -7 6 -27 10 -45 10 -32 -1 -32 -1 -32 -55z"/>
<path d="M5262 1018 c-18 -18 -15 -27 20 -48 26 -16 29 -20 15 -26 -9 -3 -24
-3 -33 0 -10 4 -14 1 -12 -6 3 -7 18 -13 34 -13 40 0 47 39 10 57 -33 14 -33
28 -1 28 14 0 25 5 25 10 0 14 -43 13 -58 -2z"/>
<path d="M5350 973 c0 -63 18 -72 22 -10 2 34 7 42 23 42 16 0 21 -8 23 -42 2
-24 7 -43 12 -43 5 0 10 19 12 43 2 34 7 42 23 42 16 0 21 -8 23 -42 2 -24 7
-43 13 -43 12 0 12 51 0 83 -9 22 -14 24 -80 24 l-71 0 0 -54z"/>
<path d="M5540 975 c0 -30 5 -55 10 -55 6 0 10 25 10 55 0 30 -4 55 -10 55 -5
0 -10 -25 -10 -55z"/>
<path d="M5602 1018 c-18 -18 -15 -27 20 -48 26 -16 29 -20 15 -26 -9 -3 -24
-3 -33 0 -10 4 -14 1 -12 -6 3 -7 18 -13 34 -13 40 0 47 39 10 57 -33 14 -33
28 -1 28 14 0 25 5 25 10 0 14 -43 13 -58 -2z"/>
<path d="M5689 1014 c-12 -14 -10 -19 14 -38 34 -27 35 -40 2 -33 -16 3 -24 0
-22 -7 2 -6 17 -11 33 -11 40 0 47 39 10 57 -33 14 -33 28 -1 28 14 0 25 5 25
10 0 16 -46 11 -61 -6z"/>
<path d="M5780 975 c0 -30 5 -55 10 -55 6 0 10 25 10 55 0 30 -4 55 -10 55 -5
0 -10 -25 -10 -55z"/>
<path d="M5847 1012 c-21 -24 -22 -56 -1 -77 24 -23 66 -15 83 16 13 24 13 29
-2 53 -21 31 -56 34 -80 8z m68 -21 c10 -31 -5 -52 -34 -49 -26 3 -38 26 -27
54 8 21 53 18 61 -5z"/>
<path d="M5970 973 c0 -63 17 -72 22 -10 2 35 7 43 26 45 20 3 22 -1 22 -42 0
-25 5 -46 10 -46 15 0 12 86 -3 98 -7 6 -27 10 -45 10 -32 -1 -32 -1 -32 -55z"/>
<path d="M5170 761 c0 -24 -3 -28 -23 -24 -44 9 -71 -42 -47 -88 8 -14 20 -18
50 -17 l40 1 0 79 c0 45 -4 78 -10 78 -5 0 -10 -13 -10 -29z m-5 -76 c0 -21
-5 -31 -19 -33 -26 -5 -40 12 -32 43 5 20 12 26 29 23 17 -2 22 -10 22 -33z"/>
<path d="M5460 710 c0 -47 4 -80 10 -80 6 0 10 12 10 28 l1 27 24 -30 c30 -36
45 -26 16 11 l-21 27 22 24 c27 29 12 30 -19 1 l-23 -21 0 46 c0 26 -4 47 -10
47 -6 0 -10 -33 -10 -80z"/>
<path d="M5680 755 c0 -8 -5 -15 -12 -15 -9 0 -9 -3 0 -12 7 -7 12 -24 12 -39
0 -15 3 -34 6 -43 7 -17 44 -22 44 -6 0 6 -7 10 -15 10 -10 0 -15 11 -15 35 0
24 5 35 15 35 8 0 15 5 15 10 0 6 -7 10 -15 10 -8 0 -15 7 -15 15 0 8 -4 15
-10 15 -5 0 -10 -7 -10 -15z"/>
<path d="M5237 722 c-21 -24 -22 -56 -1 -77 24 -23 66 -15 83 16 13 24 13 29
-2 53 -21 31 -56 34 -80 8z m68 -21 c10 -31 -5 -52 -34 -49 -26 3 -38 26 -27
54 8 21 53 18 61 -5z"/>
<path d="M5366 724 c-34 -33 -12 -94 34 -94 38 0 39 18 3 22 -24 3 -28 8 -28
33 0 25 4 30 28 33 15 2 27 8 27 13 0 15 -47 10 -64 -7z"/>
<path d="M5567 722 c-34 -37 -11 -92 38 -92 37 0 39 18 3 22 -49 5 -48 28 1
28 42 0 48 8 31 41 -13 24 -52 25 -73 1z m58 -12 c4 -6 -7 -10 -25 -10 -18 0
-29 4 -25 10 3 6 15 10 25 10 10 0 22 -4 25 -10z"/>
<path d="M330 2680 l0 -2570 925 0 925 0 0 2570 0 2570 -925 0 -925 0 0 -2570z
m1820 0 l0 -2540 -895 0 -895 0 0 2540 0 2540 895 0 895 0 0 -2540z"/>
<path d="M1150 2660 c0 -5 5 -10 10 -10 6 0 10 5 10 10 0 6 -4 10 -10 10 -5 0
-10 -4 -10 -10z"/>
<path d="M1540 2660 c0 -5 5 -10 10 -10 6 0 10 5 10 10 0 6 -4 10 -10 10 -5 0
-10 -4 -10 -10z"/>
<path d="M1460 2645 c0 -8 -5 -15 -12 -15 -9 0 -9 -3 0 -12 7 -7 12 -24 12
-39 0 -15 3 -34 6 -43 7 -17 44 -22 44 -6 0 6 -7 10 -15 10 -10 0 -15 11 -15
35 0 24 5 35 15 35 8 0 15 5 15 10 0 6 -7 10 -15 10 -8 0 -15 7 -15 15 0 8 -4
15 -10 15 -5 0 -10 -7 -10 -15z"/>
<path d="M700 2573 c0 -63 17 -72 22 -10 2 35 7 43 26 45 20 3 22 -1 22 -42 0
-25 5 -46 10 -46 15 0 12 86 -3 98 -7 6 -27 10 -45 10 -32 -1 -32 -1 -32 -55z"/>
<path d="M837 2612 c-21 -24 -22 -56 -1 -77 24 -23 66 -15 83 16 13 24 13 29
-2 53 -21 31 -56 34 -80 8z m68 -21 c10 -31 -5 -52 -34 -49 -26 3 -38 26 -27
54 8 21 53 18 61 -5z"/>
<path d="M960 2573 c0 -63 18 -72 22 -10 2 34 7 42 23 42 16 0 21 -8 23 -42 2
-24 7 -43 12 -43 5 0 10 19 12 43 2 34 7 42 23 42 16 0 21 -8 23 -42 2 -24 7
-43 13 -43 12 0 12 51 0 83 -9 22 -14 24 -80 24 l-71 0 0 -54z"/>
<path d="M1150 2575 c0 -30 5 -55 10 -55 6 0 10 25 10 55 0 30 -4 55 -10 55
-5 0 -10 -25 -10 -55z"/>
<path d="M1210 2573 c0 -63 17 -72 22 -10 2 35 7 43 26 45 20 3 22 -1 22 -42
0 -25 5 -46 10 -46 15 0 12 86 -3 98 -7 6 -27 10 -45 10 -32 -1 -32 -1 -32
-55z"/>
<path d="M1347 2623 c-14 -14 -6 -19 23 -15 40 6 39 -14 -1 -23 -59 -13 -45
-65 17 -63 33 1 34 2 34 43 0 22 -5 46 -12 53 -13 13 -50 16 -61 5z m51 -65
c-5 -15 -48 -24 -48 -10 0 14 12 22 33 22 10 0 17 -5 15 -12z"/>
<path d="M1540 2575 c0 -30 5 -55 10 -55 6 0 10 25 10 55 0 30 -4 55 -10 55
-5 0 -10 -25 -10 -55z"/>
<path d="M1607 2612 c-21 -24 -22 -56 -1 -77 24 -23 66 -15 83 16 13 24 13 29
-2 53 -21 31 -56 34 -80 8z m68 -21 c10 -31 -5 -52 -34 -49 -26 3 -38 26 -27
54 8 21 53 18 61 -5z"/>
<path d="M1730 2573 c0 -63 17 -72 22 -10 2 35 7 43 26 45 20 3 22 -1 22 -42
0 -25 5 -46 10 -46 15 0 12 86 -3 98 -7 6 -27 10 -45 10 -32 -1 -32 -1 -32
-55z"/>
<path d="M1330 1020 c0 -5 5 -10 10 -10 6 0 10 5 10 10 0 6 -4 10 -10 10 -5 0
-10 -4 -10 -10z"/>
<path d="M1570 1020 c0 -5 5 -10 10 -10 6 0 10 5 10 10 0 6 -4 10 -10 10 -5 0
-10 -4 -10 -10z"/>
<path d="M640 1005 c0 -8 -5 -15 -12 -15 -9 0 -9 -3 0 -12 7 -7 12 -24 12 -39
0 -15 3 -34 6 -43 7 -17 44 -22 44 -6 0 6 -7 10 -15 10 -10 0 -15 11 -15 35 0
24 5 35 15 35 8 0 15 5 15 10 0 6 -7 10 -15 10 -8 0 -15 7 -15 15 0 8 -4 15
-10 15 -5 0 -10 -7 -10 -15z"/>
<path d="M720 933 c0 -29 5 -53 10 -53 6 0 10 18 10 41 0 32 4 42 20 46 30 8
24 22 -10 21 -29 -1 -30 -2 -30 -55z"/>
<path d="M807 983 c-14 -14 -6 -19 23 -15 40 6 39 -14 -1 -23 -59 -13 -45 -65
17 -63 33 1 34 2 34 43 0 22 -5 46 -12 53 -13 13 -50 16 -61 5z m51 -65 c-5
-15 -48 -24 -48 -10 0 14 12 22 33 22 10 0 17 -5 15 -12z"/>
<path d="M920 933 c0 -63 17 -72 22 -10 2 35 7 43 26 45 20 3 22 -1 22 -42 0
-25 5 -46 10 -46 15 0 12 86 -3 98 -7 6 -27 10 -45 10 -32 -1 -32 -1 -32 -55z"/>
<path d="M1052 978 c-18 -18 -15 -27 20 -48 26 -16 29 -20 15 -26 -9 -3 -24
-3 -33 0 -10 4 -14 1 -12 -6 3 -7 18 -13 34 -13 40 0 47 39 10 57 -33 14 -33
28 -1 28 14 0 25 5 25 10 0 14 -43 13 -58 -2z"/>
<path d="M1140 933 c0 -63 18 -72 22 -10 2 34 7 42 23 42 16 0 21 -8 23 -42 2
-24 7 -43 12 -43 5 0 10 19 12 43 2 34 7 42 23 42 16 0 21 -8 23 -42 2 -24 7
-43 13 -43 12 0 12 51 0 83 -9 22 -14 24 -80 24 l-71 0 0 -54z"/>
<path d="M1330 935 c0 -30 5 -55 10 -55 6 0 10 25 10 55 0 30 -4 55 -10 55 -5
0 -10 -25 -10 -55z"/>
<path d="M1392 978 c-18 -18 -15 -27 20 -48 26 -16 29 -20 15 -26 -9 -3 -24
-3 -33 0 -10 4 -14 1 -12 -6 3 -7 18 -13 34 -13 40 0 47 39 10 57 -33 14 -33
28 -1 28 14 0 25 5 25 10 0 14 -43 13 -58 -2z"/>
<path d="M1482 978 c-18 -18 -15 -27 20 -48 26 -16 29 -20 15 -26 -9 -3 -24
-3 -33 0 -10 4 -14 1 -12 -6 3 -7 18 -13 34 -13 40 0 47 39 10 57 -33 14 -33
28 -1 28 14 0 25 5 25 10 0 14 -43 13 -58 -2z"/>
<path d="M1570 935 c0 -30 5 -55 10 -55 6 0 10 25 10 55 0 30 -4 55 -10 55 -5
0 -10 -25 -10 -55z"/>
<path d="M1637 972 c-21 -24 -22 -56 -1 -77 24 -23 66 -15 83 16 13 24 13 29
-2 53 -21 31 -56 34 -80 8z m68 -21 c10 -31 -5 -52 -34 -49 -26 3 -38 26 -27
54 8 21 53 18 61 -5z"/>
<path d="M1760 933 c0 -63 17 -72 22 -10 2 35 7 43 26 45 20 3 22 -1 22 -42 0
-25 5 -46 10 -46 15 0 12 86 -3 98 -7 6 -27 10 -45 10 -32 -1 -32 -1 -32 -55z"/>
<path d="M960 721 c0 -24 -3 -28 -23 -24 -44 9 -71 -42 -47 -88 8 -14 20 -18
50 -17 l40 1 0 79 c0 45 -4 78 -10 78 -5 0 -10 -13 -10 -29z m-5 -76 c0 -21
-5 -31 -19 -33 -26 -5 -40 12 -32 43 5 20 12 26 29 23 17 -2 22 -10 22 -33z"/>
<path d="M1250 670 c0 -47 4 -80 10 -80 6 0 10 12 10 28 l1 27 24 -30 c30 -36
45 -26 16 11 l-21 27 22 24 c27 29 12 30 -19 1 l-23 -21 0 46 c0 26 -4 47 -10
47 -6 0 -10 -33 -10 -80z"/>
<path d="M1470 715 c0 -8 -5 -15 -12 -15 -9 0 -9 -3 0 -12 7 -7 12 -24 12 -39
0 -15 3 -34 6 -43 7 -17 44 -22 44 -6 0 6 -7 10 -15 10 -10 0 -15 11 -15 35 0
24 5 35 15 35 8 0 15 5 15 10 0 6 -7 10 -15 10 -8 0 -15 7 -15 15 0 8 -4 15
-10 15 -5 0 -10 -7 -10 -15z"/>
<path d="M1027 682 c-21 -24 -22 -56 -1 -77 24 -23 66 -15 83 16 13 24 13 29
-2 53 -21 31 -56 34 -80 8z m68 -21 c10 -31 -5 -52 -34 -49 -26 3 -38 26 -27
54 8 21 53 18 61 -5z"/>
<path d="M1156 684 c-34 -33 -12 -94 34 -94 38 0 39 18 3 22 -24 3 -28 8 -28
33 0 25 4 30 28 33 15 2 27 8 27 13 0 15 -47 10 -64 -7z"/>
<path d="M1357 682 c-34 -37 -11 -92 38 -92 37 0 39 18 3 22 -49 5 -48 28 1
28 42 0 48 8 31 41 -13 24 -52 25 -73 1z m58 -12 c4 -6 -7 -10 -25 -10 -18 0
-29 4 -25 10 3 6 15 10 25 10 10 0 22 -4 25 -10z"/>
<path d="M2407 2773 c-15 -14 -6 -19 24 -15 26 4 30 2 27 -14 -2 -11 -13 -20
-26 -22 -27 -4 -30 -22 -3 -22 24 0 42 -22 32 -39 -6 -9 -20 -12 -40 -9 -35 5
-42 -7 -10 -17 28 -9 66 2 73 21 4 9 0 27 -9 40 -9 14 -11 25 -5 29 16 10 12
42 -6 49 -21 8 -49 8 -57 -1z"/>
<path d="M2527 2773 c-15 -14 -6 -19 24 -15 26 4 30 2 27 -14 -2 -11 -13 -20
-26 -22 -27 -4 -30 -22 -3 -22 24 0 42 -22 32 -39 -6 -9 -20 -12 -40 -9 -35 5
-42 -7 -10 -17 52 -17 99 29 66 62 -12 12 -13 20 -4 34 8 13 8 21 -2 33 -14
16 -52 22 -64 9z"/>
<path d="M3937 2773 c-13 -13 -7 -19 20 -18 41 0 40 -27 -1 -73 -20 -22 -36
-42 -36 -46 0 -3 23 -6 50 -6 28 0 50 5 50 10 0 6 -13 10 -30 10 -36 0 -37 2
-5 36 27 29 32 63 13 82 -13 13 -50 16 -61 5z"/>
<path d="M4040 2770 c0 -5 18 -10 40 -10 l41 0 -15 -27 c-29 -57 -45 -103 -35
-103 9 0 69 122 69 141 0 5 -22 9 -50 9 -27 0 -50 -4 -50 -10z"/>
<path d="M2706 2724 c-32 -32 -10 -94 34 -94 31 0 33 18 3 22 -24 3 -28 8 -28
33 0 25 4 30 28 33 15 2 25 8 22 13 -9 14 -42 11 -59 -7z"/>
<path d="M2800 2683 c0 -63 17 -72 22 -10 2 34 7 42 23 42 16 0 21 -8 23 -42
4 -52 18 -58 17 -8 -2 38 16 61 40 51 10 -3 15 -19 15 -46 0 -22 4 -40 9 -40
10 0 6 84 -5 101 -7 12 -41 11 -49 -1 -5 -7 -11 -8 -19 -1 -6 5 -26 9 -44 9
-32 -1 -32 -1 -32 -55z"/>
<path d="M4236 2724 c-32 -32 -10 -94 34 -94 31 0 33 18 3 22 -24 3 -28 8 -28
33 0 25 4 30 28 33 15 2 25 8 22 13 -9 14 -42 11 -59 -7z"/>
<path d="M4330 2683 c0 -63 17 -72 22 -10 2 34 7 42 23 42 16 0 21 -8 23 -42
4 -53 16 -56 19 -6 2 41 15 58 37 50 11 -4 16 -19 16 -48 0 -45 11 -47 16 -3
4 39 -13 74 -35 74 -11 0 -23 -5 -26 -10 -5 -7 -11 -8 -19 -1 -6 5 -26 9 -44
9 -32 -1 -32 -1 -32 -55z"/>
</g>
</svg>
