<?xml version="1.0" standalone="no"?>
<!DOCTYPE svg PUBLIC "-//W3C//DTD SVG 20010904//EN"
 "http://www.w3.org/TR/2001/REC-SVG-20010904/DTD/svg10.dtd">
<svg version="1.0" xmlns="http://www.w3.org/2000/svg"
 width="364.000000pt" height="720.000000pt" viewBox="0 0 364.000000 720.000000"
 preserveAspectRatio="xMidYMid meet">

<g transform="translate(0.000000,720.000000) scale(0.100000,-0.100000)"
fill="#000000" stroke="none">
<path d="M1898 6793 c7 -3 16 -2 19 1 4 3 -2 6 -13 5 -11 0 -14 -3 -6 -6z"/>
<path d="M1717 6765 c-47 -16 -57 -25 -29 -25 11 0 24 5 27 10 3 6 15 10 25
10 10 0 22 5 25 10 8 13 -2 12 -48 -5z"/>
<path d="M1855 6770 c-3 -5 -1 -10 4 -10 6 0 11 5 11 10 0 6 -2 10 -4 10 -3 0
-8 -4 -11 -10z"/>
<path d="M1997 6760 c4 -16 8 -18 20 -9 11 10 11 14 1 20 -21 14 -26 10 -21
-11z"/>
<path d="M2040 6752 c0 -4 25 -18 55 -31 60 -26 71 -43 60 -98 -4 -24 -3 -33
4 -28 6 3 11 24 11 46 0 38 1 39 22 28 13 -7 29 -18 36 -26 8 -8 17 -12 20 -9
5 6 -39 44 -73 62 -11 6 -29 15 -40 21 -45 24 -95 42 -95 35z"/>
<path d="M1615 6731 c-10 -17 12 -21 25 -6 10 12 10 15 -3 15 -9 0 -18 -4 -22
-9z"/>
<path d="M1982 6713 c-17 -30 -15 -37 4 -19 8 9 14 22 11 29 -2 7 -8 4 -15
-10z"/>
<path d="M1561 6706 c-7 -8 -22 -12 -34 -10 -21 4 -21 4 -2 -5 12 -6 15 -10 6
-10 -8 -1 -12 -3 -9 -6 8 -8 88 27 82 36 -8 13 -30 11 -43 -5z"/>
<path d="M1920 6702 c0 -12 -4 -22 -10 -22 -5 0 -10 -4 -10 -10 0 -5 6 -10 14
-10 19 0 31 39 17 53 -8 8 -11 5 -11 -11z"/>
<path d="M2648 6682 c-10 -12 -10 -16 0 -19 6 -3 12 -12 13 -21 0 -14 2 -14 6
-2 3 8 12 22 20 31 12 14 11 17 -6 22 -12 3 -26 -2 -33 -11z"/>
<path d="M2744 6671 c11 -11 23 -21 28 -21 14 0 -1 19 -25 31 -22 12 -22 12
-3 -10z"/>
<path d="M1815 6669 c-4 -6 -5 -12 -2 -15 2 -3 7 2 10 11 7 17 1 20 -8 4z"/>
<path d="M1157 6653 c-13 -12 -7 -23 14 -23 11 0 18 4 14 9 -3 5 5 12 17 14
18 3 16 5 -8 6 -17 0 -34 -2 -37 -6z"/>
<path d="M1960 6650 c0 -5 5 -10 11 -10 5 0 7 5 4 10 -3 6 -8 10 -11 10 -2 0
-4 -4 -4 -10z"/>
<path d="M2635 6638 c5 -13 2 -18 -9 -18 -9 0 -16 -8 -16 -17 0 -15 3 -14 22
5 18 18 20 24 10 34 -11 11 -12 10 -7 -4z"/>
<path d="M1796 6623 c-6 -14 -5 -15 5 -6 7 7 10 15 7 18 -3 3 -9 -2 -12 -12z"/>
<path d="M1726 6608 c-14 -15 -25 -19 -49 -14 -23 4 -28 3 -17 -4 23 -15 56
-12 71 6 7 8 21 13 31 11 23 -6 23 0 0 12 -14 8 -23 5 -36 -11z"/>
<path d="M1201 6583 c1 -34 2 -35 9 -13 11 36 11 50 0 50 -5 0 -10 -17 -9 -37z"/>
<path d="M1597 6609 c7 -7 15 -10 18 -7 3 3 -2 9 -12 12 -14 6 -15 5 -6 -5z"/>
<path d="M2300 6610 c0 -5 7 -10 16 -10 8 0 12 5 9 10 -3 6 -10 10 -16 10 -5
0 -9 -4 -9 -10z"/>
<path d="M1457 6593 c-4 -3 -7 -11 -7 -17 0 -6 5 -5 12 2 6 6 9 14 7 17 -3 3
-9 2 -12 -2z"/>
<path d="M1535 6579 c-4 -6 -13 -8 -21 -5 -8 3 -14 1 -14 -4 0 -6 11 -10 25
-10 16 0 25 6 25 15 0 18 -6 19 -15 4z"/>
<path d="M1330 6571 c0 -5 10 -11 23 -15 38 -10 43 -7 13 9 -33 17 -36 18 -36
6z"/>
<path d="M2160 6569 c0 -5 5 -7 10 -4 6 3 10 8 10 11 0 2 -4 4 -10 4 -5 0 -10
-5 -10 -11z"/>
<path d="M1225 6561 c-3 -5 -1 -12 5 -16 5 -3 10 1 10 9 0 18 -6 21 -15 7z"/>
<path d="M1976 6539 c-8 -42 0 -50 9 -9 4 17 5 34 2 36 -2 3 -7 -10 -11 -27z"/>
<path d="M870 6535 c-13 -14 -29 -25 -37 -25 -9 0 -8 -5 5 -18 23 -24 47 -17
50 15 1 14 7 32 13 39 20 25 -7 15 -31 -11z"/>
<path d="M2567 6553 c-4 -3 -7 -11 -7 -17 0 -6 5 -5 12 2 6 6 9 14 7 17 -3 3
-9 2 -12 -2z"/>
<path d="M2628 6553 c7 -3 16 -2 19 1 4 3 -2 6 -13 5 -11 0 -14 -3 -6 -6z"/>
<path d="M2590 6539 c0 -5 5 -7 10 -4 6 3 10 8 10 11 0 2 -4 4 -10 4 -5 0 -10
-5 -10 -11z"/>
<path d="M1551 6524 c0 -11 3 -14 6 -6 3 7 2 16 -1 19 -3 4 -6 -2 -5 -13z"/>
<path d="M1265 6520 c3 -5 11 -10 16 -10 6 0 7 5 4 10 -3 6 -11 10 -16 10 -6
0 -7 -4 -4 -10z"/>
<path d="M1711 6514 c0 -11 3 -14 6 -6 3 7 2 16 -1 19 -3 4 -6 -2 -5 -13z"/>
<path d="M2523 6515 c-3 -9 -3 -18 0 -22 4 -3 -1 -19 -9 -35 -17 -32 -14 -47
5 -24 6 7 13 32 16 55 4 42 -1 53 -12 26z"/>
<path d="M1230 6510 c0 -6 7 -10 15 -10 8 0 15 2 15 4 0 2 -7 6 -15 10 -8 3
-15 1 -15 -4z"/>
<path d="M1566 6485 c4 -8 11 -15 16 -15 6 0 5 6 -2 15 -7 8 -14 15 -16 15 -2
0 -1 -7 2 -15z"/>
<path d="M2860 6490 c0 -5 5 -10 11 -10 5 0 7 5 4 10 -3 6 -8 10 -11 10 -2 0
-4 -4 -4 -10z"/>
<path d="M1297 6474 c3 -8 -3 -27 -14 -42 -11 -15 -18 -33 -15 -40 5 -17 42
51 42 78 0 11 -4 20 -10 20 -5 0 -7 -7 -3 -16z"/>
<path d="M779 6460 c-13 -10 -20 -19 -16 -20 4 0 17 9 29 20 28 26 17 26 -13
0z"/>
<path d="M2146 6465 c-3 -9 -6 -22 -5 -28 0 -7 5 -1 10 12 5 13 8 26 5 28 -2
2 -6 -3 -10 -12z"/>
<path d="M2910 6466 c0 -9 5 -16 10 -16 6 0 10 4 10 9 0 6 -4 13 -10 16 -5 3
-10 -1 -10 -9z"/>
<path d="M990 6450 c-13 -8 -13 -10 2 -10 9 0 20 5 23 10 8 13 -5 13 -25 0z"/>
<path d="M1572 6435 c0 -16 2 -22 5 -12 2 9 2 23 0 30 -3 6 -5 -1 -5 -18z"/>
<path d="M900 6446 c0 -2 7 -9 15 -16 9 -7 15 -8 15 -2 0 5 -7 12 -15 16 -8 3
-15 4 -15 2z"/>
<path d="M835 6418 c3 -13 9 -33 12 -45 3 -13 9 -23 13 -23 4 0 4 17 -1 38 -5
20 -9 40 -9 45 0 4 -5 7 -11 7 -7 0 -9 -8 -4 -22z"/>
<path d="M2126 6395 c-3 -9 -6 -22 -5 -28 0 -7 5 -1 10 12 5 13 8 26 5 28 -2
2 -6 -3 -10 -12z"/>
<path d="M2460 6400 c0 -5 4 -10 9 -10 6 0 13 5 16 10 3 6 -1 10 -9 10 -9 0
-16 -4 -16 -10z"/>
<path d="M2980 6406 c0 -2 9 -6 20 -9 11 -3 18 -1 14 4 -5 9 -34 13 -34 5z"/>
<path d="M1290 6381 c0 -5 5 -13 10 -16 6 -3 10 -2 10 4 0 5 -4 13 -10 16 -5
3 -10 2 -10 -4z"/>
<path d="M3060 6375 c14 -7 27 -11 30 -9 6 7 -22 24 -40 23 -9 0 -5 -6 10 -14z"/>
<path d="M630 6371 c0 -3 9 -12 21 -19 16 -10 24 -11 35 -1 8 6 12 15 9 18 -9
8 -65 10 -65 2z"/>
<path d="M935 6370 c3 -5 8 -10 11 -10 2 0 4 5 4 10 0 6 -5 10 -11 10 -5 0 -7
-4 -4 -10z"/>
<path d="M2476 6364 c-11 -8 -16 -14 -10 -14 13 0 39 18 34 24 -3 2 -14 -2
-24 -10z"/>
<path d="M2832 6368 c-7 -7 -12 -19 -12 -27 0 -11 5 -8 16 7 18 25 15 39 -4
20z"/>
<path d="M2870 6369 c0 -5 5 -7 10 -4 6 3 10 8 10 11 0 2 -4 4 -10 4 -5 0 -10
-5 -10 -11z"/>
<path d="M1730 6354 c0 -8 5 -12 10 -9 6 4 8 11 5 16 -9 14 -15 11 -15 -7z"/>
<path d="M2426 6361 c-4 -5 -4 -16 -1 -23 10 -25 -24 -42 -76 -40 -38 2 -49
-1 -49 -13 0 -17 -16 -20 -25 -5 -9 14 -35 -7 -35 -27 0 -7 -7 -25 -16 -38 -9
-13 -14 -30 -12 -37 4 -12 29 25 44 65 4 10 17 17 34 17 16 0 30 7 34 15 4 12
14 14 39 10 28 -6 39 -2 63 20 18 17 25 28 17 31 -7 3 -9 12 -6 20 6 15 -3 19
-11 5z"/>
<path d="M1290 6331 c0 -9 8 -12 28 -8 19 4 34 -1 49 -16 13 -11 26 -18 29
-14 8 7 -20 37 -35 37 -6 0 -11 4 -11 9 0 4 -13 8 -30 7 -18 -1 -30 -6 -30
-15z"/>
<path d="M810 6330 c8 -5 20 -10 25 -10 6 0 3 5 -5 10 -8 5 -19 10 -25 10 -5
0 -3 -5 5 -10z"/>
<path d="M584 6306 c-16 -14 -24 -25 -19 -25 14 0 59 38 53 45 -3 3 -19 -6
-34 -20z"/>
<path d="M3180 6322 c0 -7 -8 -12 -17 -13 -10 -1 -2 -5 17 -9 43 -10 46 -8 20
15 -11 10 -20 13 -20 7z"/>
<path d="M880 6310 c8 -5 20 -10 25 -10 6 0 3 5 -5 10 -8 5 -19 10 -25 10 -5
0 -3 -5 5 -10z"/>
<path d="M1581 6304 c0 -11 3 -14 6 -6 3 7 2 16 -1 19 -3 4 -6 -2 -5 -13z"/>
<path d="M3040 6310 c0 -5 5 -10 10 -10 6 0 10 5 10 10 0 6 -4 10 -10 10 -5 0
-10 -4 -10 -10z"/>
<path d="M530 6300 c0 -5 5 -10 11 -10 5 0 7 5 4 10 -3 6 -8 10 -11 10 -2 0
-4 -4 -4 -10z"/>
<path d="M920 6299 c0 -4 9 -13 20 -19 16 -8 20 -8 20 3 0 8 -9 17 -20 20 -11
3 -20 1 -20 -4z"/>
<path d="M1950 6305 c0 -5 5 -17 10 -25 5 -8 10 -10 10 -5 0 6 -5 17 -10 25
-5 8 -10 11 -10 5z"/>
<path d="M3100 6300 l-25 -8 28 -1 c15 -1 27 4 27 9 0 6 -1 10 -2 9 -2 -1 -14
-5 -28 -9z"/>
<path d="M2790 6285 c-11 -13 -10 -14 4 -9 9 3 16 10 16 15 0 13 -6 11 -20 -6z"/>
<path d="M2984 6274 c-18 -14 -18 -15 4 -4 12 6 22 13 22 15 0 8 -5 6 -26 -11z"/>
<path d="M999 6248 c17 -18 32 -30 35 -27 7 7 -42 59 -55 59 -5 0 4 -14 20
-32z"/>
<path d="M1390 6273 c0 -13 35 -53 47 -53 21 0 53 -47 53 -80 0 -40 7 -37 14
7 5 27 1 35 -32 62 -20 17 -47 40 -59 52 -13 12 -23 18 -23 12z"/>
<path d="M2907 6260 c-9 -11 -17 -33 -16 -48 l0 -27 11 25 c6 14 12 29 12 33
1 5 10 15 20 23 15 10 16 14 5 14 -8 0 -22 -9 -32 -20z"/>
<path d="M2007 6236 c3 -15 10 -29 15 -32 6 -4 7 2 3 17 -10 35 -23 45 -18 15z"/>
<path d="M1580 6244 c0 -7 9 -22 21 -35 16 -19 18 -20 10 -4 -17 34 -31 51
-31 39z"/>
<path d="M1721 6223 c-1 -12 4 -25 9 -28 12 -7 12 2 0 30 -8 19 -9 19 -9 -2z"/>
<path d="M2720 6221 c0 -5 5 -13 10 -16 6 -3 10 -2 10 4 0 5 -4 13 -10 16 -5
3 -10 2 -10 -4z"/>
<path d="M1060 6216 c0 -2 9 -6 20 -9 11 -3 18 -1 14 4 -5 9 -34 13 -34 5z"/>
<path d="M2111 6194 c0 -11 3 -14 6 -6 3 7 2 16 -1 19 -3 4 -6 -2 -5 -13z"/>
<path d="M960 6180 c0 -5 5 -10 11 -10 5 0 7 5 4 10 -3 6 -8 10 -11 10 -2 0
-4 -4 -4 -10z"/>
<path d="M1058 6183 c7 -3 16 -2 19 1 4 3 -2 6 -13 5 -11 0 -14 -3 -6 -6z"/>
<path d="M1134 6176 c11 -9 28 -16 39 -16 10 0 48 -30 83 -67 35 -37 64 -62
64 -56 0 16 -125 143 -141 143 -8 0 -25 3 -39 6 -24 5 -24 5 -6 -10z"/>
<path d="M2751 6174 c0 -11 3 -14 6 -6 3 7 2 16 -1 19 -3 4 -6 -2 -5 -13z"/>
<path d="M2031 6154 c0 -11 3 -14 6 -6 3 7 2 16 -1 19 -3 4 -6 -2 -5 -13z"/>
<path d="M2101 6154 c0 -11 3 -14 6 -6 3 7 2 16 -1 19 -3 4 -6 -2 -5 -13z"/>
<path d="M1706 6145 c-9 -26 -7 -32 5 -12 6 10 9 21 6 23 -2 3 -7 -2 -11 -11z"/>
<path d="M2185 6150 c-3 -5 -17 -10 -30 -10 -14 0 -29 -9 -35 -20 -7 -14 -7
-20 0 -20 5 0 10 7 10 15 0 10 10 15 34 15 21 0 36 6 40 15 6 17 -9 21 -19 5z"/>
<path d="M3600 6135 c-19 -7 -53 -16 -74 -20 l-39 -6 28 -15 c36 -19 62 -19
46 0 -9 11 -6 15 16 19 16 3 37 13 48 21 24 19 20 19 -25 1z"/>
<path d="M1621 6124 c0 -11 3 -14 6 -6 3 7 2 16 -1 19 -3 4 -6 -2 -5 -13z"/>
<path d="M2555 6115 c-14 -13 -25 -29 -25 -35 0 -6 -15 -17 -32 -25 -18 -8
-28 -14 -21 -15 20 0 63 22 63 34 0 5 12 23 27 38 33 34 22 38 -12 3z"/>
<path d="M2608 6133 c7 -3 16 -2 19 1 4 3 -2 6 -13 5 -11 0 -14 -3 -6 -6z"/>
<path d="M2087 6116 c-4 -10 -5 -21 -2 -24 9 -9 17 6 13 25 -3 17 -4 17 -11
-1z"/>
<path d="M3050 6109 c-38 -8 -82 -59 -50 -59 6 0 10 7 10 15 0 21 32 35 82 36
24 0 52 4 63 9 24 9 -56 9 -105 -1z"/>
<path d="M3193 6109 c17 -10 205 -14 214 -5 4 3 0 6 -8 6 -8 0 -61 2 -117 4
-57 1 -97 -1 -89 -5z"/>
<path d="M1000 6101 c0 -5 9 -7 20 -4 11 3 20 7 20 9 0 2 -9 4 -20 4 -11 0
-20 -4 -20 -9z"/>
<path d="M1058 6103 c7 -3 16 -2 19 1 4 3 -2 6 -13 5 -11 0 -14 -3 -6 -6z"/>
<path d="M1516 6095 c4 -8 10 -15 15 -15 4 0 6 7 3 15 -4 8 -10 15 -15 15 -4
0 -6 -7 -3 -15z"/>
<path d="M280 6079 c0 -5 5 -7 10 -4 6 3 10 8 10 11 0 2 -4 4 -10 4 -5 0 -10
-5 -10 -11z"/>
<path d="M1142 6068 c14 -8 36 -22 49 -33 l23 -20 -20 27 c-10 15 -24 28 -31
28 -6 0 -20 2 -30 5 -10 3 -6 0 9 -7z"/>
<path d="M2825 6070 c-16 -7 -17 -9 -3 -9 9 -1 20 4 23 9 7 11 7 11 -20 0z"/>
<path d="M1510 6062 c0 -8 10 -22 22 -31 l22 -18 -22 -28 c-12 -15 -19 -32
-15 -38 4 -7 8 -6 11 3 3 8 13 24 23 36 18 20 18 21 -11 55 -16 18 -29 28 -30
21z"/>
<path d="M1610 6060 c0 -5 5 -10 10 -10 6 0 10 5 10 10 0 6 -4 10 -10 10 -5 0
-10 -4 -10 -10z"/>
<path d="M2065 6060 c-3 -5 1 -10 9 -10 9 0 16 5 16 10 0 6 -4 10 -9 10 -6 0
-13 -4 -16 -10z"/>
<path d="M2765 6050 c-13 -6 -15 -9 -5 -9 8 0 22 4 30 9 18 12 2 12 -25 0z"/>
<path d="M1995 6040 c-3 -5 -2 -10 4 -10 5 0 13 5 16 10 3 6 2 10 -4 10 -5 0
-13 -4 -16 -10z"/>
<path d="M2941 6036 c-13 -7 -20 -16 -15 -18 13 -8 54 9 54 22 0 13 -10 12
-39 -4z"/>
<path d="M940 6036 c0 -3 9 -10 20 -16 11 -6 20 -8 20 -6 0 3 -9 10 -20 16
-11 6 -20 8 -20 6z"/>
<path d="M2335 6032 c-5 -4 -16 -15 -24 -25 -12 -15 -12 -17 0 -12 8 3 20 14
27 25 13 22 13 24 -3 12z"/>
<path d="M2423 6033 c9 -2 23 -2 30 0 6 3 -1 5 -18 5 -16 0 -22 -2 -12 -5z"/>
<path d="M1621 6010 c0 -14 4 -32 9 -40 9 -13 10 -13 9 0 -1 8 -5 26 -9 40
l-8 25 -1 -25z"/>
<path d="M1955 6020 c-3 -5 -2 -10 4 -10 5 0 13 5 16 10 3 6 2 10 -4 10 -5 0
-13 -4 -16 -10z"/>
<path d="M2036 6007 c5 -20 2 -32 -11 -41 -19 -14 -14 -53 5 -41 6 4 7 11 4
17 -4 6 1 17 10 24 16 11 16 15 2 41 l-16 28 6 -28z"/>
<path d="M1335 6003 c4 -10 9 -34 13 -53 6 -36 28 -67 40 -56 3 4 1 10 -5 14
-6 4 -14 20 -17 35 -3 15 -8 38 -11 52 -3 14 -10 25 -16 25 -7 0 -8 -7 -4 -17z"/>
<path d="M2825 5975 c-27 -24 -52 -42 -56 -40 -3 3 -27 -20 -53 -51 -26 -30
-51 -52 -56 -49 -11 7 -41 -5 -35 -15 3 -4 -2 -11 -11 -14 -9 -4 -14 -13 -10
-21 4 -10 -1 -15 -14 -15 -11 0 -20 -7 -20 -15 0 -8 -7 -15 -15 -15 -9 0 -12
-6 -8 -17 4 -11 8 -13 11 -5 7 21 22 2 22 -29 0 -19 5 -29 15 -29 11 0 15 11
15 35 0 22 6 38 15 41 18 7 20 31 3 37 -21 7 10 56 32 50 11 -3 32 10 59 38
22 23 39 45 36 47 -2 3 19 16 46 30 28 15 55 34 60 44 5 10 16 18 24 18 8 0
15 5 15 10 0 20 -26 8 -75 -35z"/>
<path d="M1000 6000 c8 -5 24 -9 35 -9 l20 0 -20 9 c-11 5 -27 9 -35 9 -13 1
-13 0 0 -9z"/>
<path d="M1927 6003 c-4 -3 -7 -13 -7 -22 1 -13 3 -13 11 2 11 19 8 33 -4 20z"/>
<path d="M2650 5998 c-16 -7 -20 -12 -12 -15 8 -3 21 2 30 11 19 18 17 19 -18
4z"/>
<path d="M1090 5977 c0 -3 21 -22 47 -43 26 -21 44 -33 40 -27 -9 14 -87 77
-87 70z"/>
<path d="M2275 5962 c-11 -10 -29 -29 -40 -42 l-20 -24 31 24 c17 14 37 33 43
43 14 21 11 21 -14 -1z"/>
<path d="M1547 5943 c-4 -3 -7 -19 -7 -34 0 -21 4 -27 15 -23 24 10 17 -12
-10 -30 -24 -16 -24 -16 -7 -50 9 -19 20 -32 24 -30 9 6 -2 37 -16 46 -12 8
11 38 30 38 20 0 17 16 -8 40 -12 11 -16 20 -10 20 7 0 12 7 12 15 0 16 -12
20 -23 8z"/>
<path d="M2526 5935 c-11 -8 -15 -15 -9 -15 6 0 16 7 23 15 16 19 11 19 -14 0z"/>
<path d="M1705 5906 c10 -14 19 -26 22 -26 7 0 -17 39 -28 46 -6 3 -3 -5 6
-20z"/>
<path d="M1652 5900 c0 -14 2 -19 5 -12 2 6 2 18 0 25 -3 6 -5 1 -5 -13z"/>
<path d="M2479 5899 c-6 -12 -23 -33 -38 -46 l-26 -24 28 17 c24 15 66 74 53
74 -3 0 -10 -10 -17 -21z"/>
<path d="M2013 5896 c-24 -11 -30 -31 -13 -41 6 -3 10 -1 10 5 0 7 10 20 23
31 24 20 15 23 -20 5z"/>
<path d="M1195 5890 c3 -5 11 -10 16 -10 6 0 7 5 4 10 -3 6 -11 10 -16 10 -6
0 -7 -4 -4 -10z"/>
<path d="M1400 5889 c0 -9 7 -22 15 -29 10 -8 13 -20 9 -34 -6 -18 -5 -19 10
-7 21 17 20 20 -9 56 -17 21 -25 25 -25 14z"/>
<path d="M2169 5874 c-13 -15 -37 -40 -54 -57 l-30 -30 33 17 c17 9 32 21 32
25 0 5 12 23 26 40 32 38 25 41 -7 5z"/>
<path d="M1237 5869 c7 -7 15 -10 18 -7 3 3 -2 9 -12 12 -14 6 -15 5 -6 -5z"/>
<path d="M1295 5850 c11 -5 29 -8 40 -8 16 0 15 2 -5 8 -34 11 -60 11 -35 0z"/>
<path d="M1926 5845 c-3 -9 -6 -22 -5 -28 0 -7 5 -1 10 12 5 13 8 26 5 28 -2
2 -6 -3 -10 -12z"/>
<path d="M1741 5834 c0 -11 3 -14 6 -6 3 7 2 16 -1 19 -3 4 -6 -2 -5 -13z"/>
<path d="M1360 5836 c0 -2 7 -7 16 -10 8 -3 12 -2 9 4 -6 10 -25 14 -25 6z"/>
<path d="M1640 5808 c0 -36 10 -32 14 6 2 14 -1 26 -5 26 -5 0 -9 -14 -9 -32z"/>
<path d="M2012 5818 c-15 -15 -15 -31 0 -46 12 -12 14 -20 24 -89 3 -24 10
-41 14 -38 4 2 4 26 -1 52 -8 41 -6 49 13 70 12 13 18 23 13 23 -4 0 -13 -7
-20 -17 -18 -24 -38 -6 -31 28 6 32 5 34 -12 17z"/>
<path d="M1450 5812 c0 -10 33 -42 44 -42 4 0 20 -14 37 -31 23 -24 28 -34 19
-44 -13 -16 4 -85 21 -85 13 0 11 17 -2 26 -6 3 -9 22 -7 43 6 48 -6 73 -47
95 -19 10 -36 25 -39 32 -6 15 -26 19 -26 6z"/>
<path d="M2774 5807 c-3 -9 -4 -44 -2 -78 l4 -63 39 -3 c49 -3 65 10 65 52 0
37 -21 60 -49 52 -16 -4 -21 1 -23 21 -3 29 -25 41 -34 19z m71 -93 c0 -19 -5
-29 -15 -29 -16 0 -25 28 -16 51 10 25 31 10 31 -22z"/>
<path d="M2902 5808 c7 -19 38 -22 38 -4 0 10 -9 16 -21 16 -12 0 -19 -5 -17
-12z"/>
<path d="M2400 5795 c-7 -9 -10 -18 -7 -21 3 -3 10 4 17 15 13 25 8 27 -10 6z"/>
<path d="M2437 5735 c-25 -72 -25 -75 -7 -75 11 0 20 7 20 15 0 10 10 15 31
15 16 0 28 -4 25 -9 -6 -8 15 -21 35 -21 16 0 10 36 -17 94 -36 79 -54 75 -87
-19z m62 -12 c1 -7 -8 -13 -19 -13 -23 0 -23 0 -9 37 10 26 12 27 19 8 5 -11
9 -26 9 -32z"/>
<path d="M1905 5789 c-4 -6 -5 -12 -2 -15 2 -3 7 2 10 11 7 17 1 20 -8 4z"/>
<path d="M1721 5764 c0 -11 3 -14 6 -6 3 7 2 16 -1 19 -3 4 -6 -2 -5 -13z"/>
<path d="M1657 5738 c8 -47 21 -68 41 -68 13 0 12 3 -6 16 -14 10 -22 26 -22
44 0 16 -4 32 -10 35 -6 4 -7 -6 -3 -27z"/>
<path d="M2667 5763 c-14 -13 -6 -20 18 -15 14 2 25 0 25 -6 0 -5 -14 -12 -31
-16 -26 -5 -30 -10 -27 -33 3 -26 7 -28 51 -30 l47 -2 0 35 c0 50 -16 74 -49
74 -15 0 -31 -3 -34 -7z m46 -68 c1 -5 -6 -11 -15 -13 -11 -2 -18 3 -18 13 0
17 30 18 33 0z"/>
<path d="M2908 5760 c-8 -26 5 -100 18 -100 10 0 14 15 14 55 0 41 -4 55 -14
55 -8 0 -16 -5 -18 -10z"/>
<path d="M2977 5763 c-14 -13 -6 -20 18 -15 15 2 25 0 25 -7 0 -6 -8 -11 -19
-11 -24 0 -44 -24 -39 -47 2 -14 14 -18 51 -20 l47 -2 0 35 c0 50 -16 74 -49
74 -15 0 -31 -3 -34 -7z m51 -65 c-7 -19 -38 -22 -38 -4 0 10 9 16 21 16 12 0
19 -5 17 -12z"/>
<path d="M2385 5739 c-4 -6 -5 -12 -2 -15 2 -3 7 2 10 11 7 17 1 20 -8 4z"/>
<path d="M1870 5697 c0 -14 -20 -43 -52 -76 -29 -30 -44 -49 -33 -43 38 20 95
91 95 117 0 14 -2 25 -5 25 -3 0 -5 -10 -5 -23z"/>
<path d="M2363 5683 c-7 -15 -11 -28 -9 -31 6 -6 28 38 24 48 -2 5 -9 -3 -15
-17z"/>
<path d="M2465 5660 c-3 -5 -3 -10 1 -10 4 0 -1 -7 -12 -16 -11 -8 -13 -14 -5
-12 18 5 47 48 33 48 -6 0 -14 -4 -17 -10z"/>
<path d="M1684 5625 c-9 -14 -14 -28 -11 -31 3 -3 13 8 22 25 19 37 12 41 -11
6z"/>
<path d="M2335 5630 c-3 -5 -1 -10 4 -10 6 0 11 5 11 10 0 6 -2 10 -4 10 -3 0
-8 -4 -11 -10z"/>
<path d="M2031 5613 c0 -12 -5 -25 -11 -28 -5 -3 -10 -11 -10 -18 0 -7 6 -5
16 5 9 9 14 26 11 39 -4 23 -4 23 -6 2z"/>
<path d="M2413 5623 c-7 -3 -13 -11 -13 -19 0 -7 -13 -20 -30 -29 -16 -8 -33
-22 -38 -31 -9 -16 -105 -44 -155 -44 -16 0 -26 -4 -22 -10 7 -12 48 -13 59
-2 4 4 11 7 14 8 57 5 101 21 124 44 14 16 29 26 31 24 3 -3 15 9 27 26 23 32
24 40 3 33z"/>
<path d="M2299 5593 c-13 -16 -12 -17 4 -4 9 7 17 15 17 17 0 8 -8 3 -21 -13z"/>
<path d="M1575 5589 c-4 -6 -4 -13 -1 -16 3 -4 6 -1 6 6 0 7 5 9 10 6 6 -3 10
-1 10 4 0 14 -17 14 -25 0z"/>
<path d="M1661 5553 c0 -17 -5 -43 -11 -58 -6 -16 -6 -24 0 -20 12 7 23 67 17
92 -3 10 -5 5 -6 -14z"/>
<path d="M2258 5573 c7 -3 16 -2 19 1 4 3 -2 6 -13 5 -11 0 -14 -3 -6 -6z"/>
<path d="M1992 5538 c-7 -7 -12 -19 -12 -27 1 -13 2 -13 11 2 5 9 17 17 24 17
8 0 15 5 15 10 0 14 -23 13 -38 -2z"/>
<path d="M1591 5514 c-12 -26 -7 -64 8 -64 5 0 6 11 3 25 -2 14 1 31 7 39 7 8
8 17 3 20 -5 3 -14 -6 -21 -20z"/>
<path d="M2580 5531 c8 -5 31 -11 50 -15 24 -4 28 -3 15 2 -31 14 -83 24 -65
13z"/>
<path d="M2700 5523 l-25 -15 25 7 c14 4 33 7 43 6 9 0 15 4 12 10 -8 12 -25
10 -55 -8z"/>
<path d="M2948 5533 c6 -2 18 -2 25 0 6 3 1 5 -13 5 -14 0 -19 -2 -12 -5z"/>
<path d="M3050 5535 c0 -15 55 -85 58 -75 3 7 -2 17 -11 21 -8 5 -18 20 -21
34 -5 21 -26 37 -26 20z"/>
<path d="M2110 5505 c-7 -9 -11 -17 -8 -20 2 -2 12 4 21 15 9 11 13 20 8 20
-5 0 -14 -7 -21 -15z"/>
<path d="M2494 5505 c-3 -8 -4 -20 -2 -27 3 -7 7 -1 10 15 6 29 1 36 -8 12z"/>
<path d="M1953 5479 c-13 -5 -23 -15 -23 -23 0 -7 -9 -16 -20 -19 -21 -5 -28
-27 -7 -23 30 7 47 20 47 37 0 21 16 26 23 7 2 -7 8 -10 12 -6 4 3 3 13 -2 21
-6 10 -14 12 -30 6z"/>
<path d="M2023 5463 c18 -5 24 -43 7 -43 -5 0 -10 -5 -10 -12 0 -6 8 -4 19 6
24 22 16 56 -13 55 -17 -1 -17 -2 -3 -6z"/>
<path d="M2085 5450 c-19 -8 -19 -9 2 -9 12 -1 25 4 28 9 7 12 -2 12 -30 0z"/>
<path d="M2456 5444 c-5 -14 -4 -15 9 -4 17 14 19 20 6 20 -5 0 -12 -7 -15
-16z"/>
<path d="M1620 5440 c0 -5 5 -10 10 -10 6 0 10 5 10 10 0 6 -4 10 -10 10 -5 0
-10 -4 -10 -10z"/>
<path d="M2389 5399 c-47 -34 -75 -58 -49 -43 31 17 100 66 100 70 0 8 -7 4
-51 -27z"/>
<path d="M1590 5409 c0 -5 5 -7 10 -4 6 3 10 8 10 11 0 2 -4 4 -10 4 -5 0 -10
-5 -10 -11z"/>
<path d="M1846 5385 c4 -8 10 -15 15 -15 5 0 9 7 9 15 0 8 -7 15 -15 15 -9 0
-12 -6 -9 -15z"/>
<path d="M1590 5380 c0 -5 5 -10 11 -10 5 0 7 5 4 10 -3 6 -8 10 -11 10 -2 0
-4 -4 -4 -10z"/>
<path d="M1895 5380 c3 -5 2 -10 -3 -10 -5 0 -17 -11 -26 -25 -22 -33 -13 -32
19 2 27 30 31 43 14 43 -5 0 -7 -4 -4 -10z"/>
<path d="M2018 5360 c-4 -14 -5 -55 -2 -91 3 -53 1 -68 -11 -73 -9 -3 -15 -17
-15 -33 1 -27 2 -26 21 12 16 32 19 56 17 125 -2 53 -6 75 -10 60z"/>
<path d="M3125 5360 c-16 -7 -17 -9 -3 -9 9 -1 20 4 23 9 7 11 7 11 -20 0z"/>
<path d="M1810 5325 c0 -8 2 -15 4 -15 2 0 6 7 10 15 3 8 1 15 -4 15 -6 0 -10
-7 -10 -15z"/>
<path d="M3097 5327 c-4 -10 -7 -26 -7 -35 1 -15 2 -15 11 1 6 10 9 25 7 35
-3 16 -4 15 -11 -1z"/>
<path d="M2213 5299 c-35 -22 -46 -37 -15 -20 22 13 58 40 52 41 -3 0 -20 -10
-37 -21z"/>
<path d="M1560 5300 c0 -5 4 -10 9 -10 5 0 18 -3 28 -6 16 -5 16 -4 -1 10 -23
18 -36 20 -36 6z"/>
<path d="M1635 5300 c-3 -5 3 -10 14 -10 22 0 29 -24 11 -35 -16 -10 -1 -25
26 -25 20 0 24 -5 24 -30 0 -16 5 -30 10 -30 6 0 8 11 4 28 -8 33 -23 54 -35
46 -5 -3 -9 4 -9 15 0 43 -28 69 -45 41z"/>
<path d="M1830 5301 c0 -5 5 -13 10 -16 6 -3 10 -2 10 4 0 5 -4 13 -10 16 -5
3 -10 2 -10 -4z"/>
<path d="M1862 5273 c0 -5 -2 -16 -7 -26 -4 -10 -2 -23 5 -31 8 -11 9 -20 0
-35 -7 -14 -7 -21 0 -21 12 0 12 0 15 68 1 28 -2 52 -7 52 -4 0 -7 -3 -6 -7z"/>
<path d="M3096 5248 c26 -46 48 -68 67 -68 11 0 34 -12 49 -27 15 -15 28 -21
28 -15 0 21 -39 52 -65 52 -17 0 -32 10 -47 35 -21 32 -49 52 -32 23z"/>
<path d="M2121 5195 c-17 -20 -31 -41 -31 -47 0 -12 69 62 70 75 0 13 -8 7
-39 -28z"/>
<path d="M1730 5153 c0 -14 39 -33 45 -23 14 23 53 8 95 -35 24 -25 49 -45 55
-45 5 1 0 9 -12 19 -13 11 -23 30 -23 45 0 13 -4 27 -9 30 -4 3 -6 -7 -3 -22
l5 -27 -30 33 c-34 36 -36 36 -64 22 -13 -8 -25 -7 -39 0 -11 6 -20 7 -20 3z"/>
<path d="M1992 5097 c-14 -40 -15 -47 -3 -47 5 0 13 18 19 40 12 48 1 53 -16
7z"/>
<path d="M2066 5095 c-9 -26 -7 -32 5 -12 6 10 9 21 6 23 -2 3 -7 -2 -11 -11z"/>
<path d="M3345 5050 c3 -5 8 -10 11 -10 2 0 4 5 4 10 0 6 -5 10 -11 10 -5 0
-7 -4 -4 -10z"/>
<path d="M1948 5043 c7 -3 16 -2 19 1 4 3 -2 6 -13 5 -11 0 -14 -3 -6 -6z"/>
<path d="M1986 5031 c-4 -7 -5 -15 -2 -18 9 -9 19 4 14 18 -4 11 -6 11 -12 0z"/>
<path d="M2036 5023 c-6 -14 -5 -15 5 -6 7 7 10 15 7 18 -3 3 -9 -2 -12 -12z"/>
<path d="M1966 4963 c-7 -36 -2 -66 12 -71 8 -2 11 13 9 47 -2 56 -12 67 -21
24z"/>
<path d="M2149 4916 c-2 -2 -3 -38 -1 -80 3 -56 7 -76 17 -76 9 0 15 15 17 43
2 29 8 42 18 42 10 0 16 -13 18 -42 4 -57 32 -61 32 -5 0 49 -20 77 -49 69
-18 -4 -21 -1 -21 24 0 25 -17 39 -31 25z"/>
<path d="M2275 4911 c-7 -12 12 -24 25 -16 11 7 4 25 -10 25 -5 0 -11 -4 -15
-9z"/>
<path d="M1490 4835 c0 -60 3 -75 15 -75 11 0 15 13 16 53 l1 52 17 -50 c24
-69 44 -69 70 -3 l20 53 0 -52 c1 -39 5 -53 15 -53 18 0 23 20 22 90 -1 49 -3
55 -24 58 -19 3 -26 -5 -46 -49 l-23 -53 -17 52 c-15 44 -22 52 -42 52 -23 0
-24 -2 -24 -75z"/>
<path d="M2340 4886 c0 -8 -6 -17 -12 -20 -10 -5 -10 -7 0 -12 6 -3 12 -23 12
-45 0 -42 16 -57 48 -44 16 8 16 8 0 12 -13 3 -18 14 -18 39 0 26 4 34 18 34
16 1 16 1 0 14 -10 7 -18 18 -18 25 0 6 -7 11 -15 11 -8 0 -15 -6 -15 -14z"/>
<path d="M1706 4854 c-23 -23 -20 -71 4 -84 25 -14 72 -9 77 7 3 7 -8 10 -28
10 -18 -1 -34 4 -36 11 -3 8 7 12 31 12 28 0 36 4 36 18 0 40 -54 57 -84 26z
m54 -14 c0 -5 -9 -10 -21 -10 -11 0 -17 5 -14 10 3 6 13 10 21 10 8 0 14 -4
14 -10z"/>
<path d="M1812 4816 c2 -38 7 -52 20 -54 13 -3 17 6 20 40 2 30 7 43 18 43 10
0 16 -13 18 -42 4 -58 32 -61 32 -4 0 42 16 63 31 40 5 -8 9 -29 9 -46 0 -23
5 -33 16 -33 12 0 15 11 13 54 l-2 54 -89 -1 -89 -1 3 -50z"/>
<path d="M2009 4846 c-2 -62 4 -122 14 -128 7 -4 10 -21 9 -38 -3 -30 10 -41
24 -18 5 7 3 8 -6 3 -10 -6 -12 -2 -7 16 4 13 7 36 7 52 0 21 5 27 23 27 32 0
47 18 47 56 0 41 -16 53 -68 52 -36 0 -42 -4 -43 -22z m76 -32 c0 -19 -5 -29
-15 -29 -16 0 -25 28 -16 51 10 25 31 10 31 -22z"/>
<path d="M2280 4814 c0 -40 3 -55 13 -52 18 7 20 108 1 108 -10 0 -14 -14 -14
-56z"/>
<path d="M2426 4854 c-9 -8 -16 -29 -16 -45 0 -35 34 -55 74 -45 36 9 32 24
-5 22 -18 0 -34 5 -36 12 -3 8 7 12 31 12 28 0 36 4 36 18 0 40 -54 57 -84 26z
m54 -14 c0 -5 -9 -10 -21 -10 -11 0 -17 5 -14 10 3 6 13 10 21 10 8 0 14 -4
14 -10z"/>
<path d="M3363 4824 c-8 -18 -8 -30 0 -49 7 -14 15 -25 18 -25 5 0 0 91 -5 97
-1 1 -6 -9 -13 -23z"/>
<path d="M3260 4722 c1 -14 37 -55 42 -46 2 5 -6 19 -19 31 -13 12 -23 19 -23
15z"/>
<path d="M3255 4630 c-10 -11 -14 -20 -9 -20 5 0 15 9 22 20 7 11 11 20 9 20
-2 0 -12 -9 -22 -20z"/>
<path d="M2020 4620 c0 -5 7 -10 15 -10 8 0 15 5 15 10 0 6 -7 10 -15 10 -8 0
-15 -4 -15 -10z"/>
<path d="M3220 4589 c0 -5 5 -7 10 -4 6 3 10 8 10 11 0 2 -4 4 -10 4 -5 0 -10
-5 -10 -11z"/>
<path d="M2013 4563 c-17 -36 -16 -38 7 -40 11 -1 20 2 20 8 0 5 -5 9 -10 9
-6 0 -8 11 -4 25 8 33 2 32 -13 -2z"/>
<path d="M3175 4519 c-4 -6 -5 -12 -2 -15 2 -3 7 2 10 11 7 17 1 20 -8 4z"/>
<path d="M2040 4484 c0 -8 5 -12 10 -9 6 3 10 10 10 16 0 5 -4 9 -10 9 -5 0
-10 -7 -10 -16z"/>
<path d="M2000 4460 c0 -5 7 -10 16 -10 8 0 12 5 9 10 -3 6 -10 10 -16 10 -5
0 -9 -4 -9 -10z"/>
<path d="M1988 4434 c-8 -8 2 -35 19 -52 16 -17 16 -12 0 27 -7 17 -16 29 -19
25z"/>
<path d="M1425 4341 c-3 -5 -1 -12 5 -16 5 -3 10 1 10 9 0 18 -6 21 -15 7z"/>
<path d="M2007 4343 c-4 -3 -7 -15 -7 -25 0 -11 -4 -16 -10 -13 -5 3 -10 -1
-10 -9 0 -9 4 -16 8 -16 8 0 42 52 42 64 0 8 -15 8 -23 -1z"/>
<path d="M3522 4290 c0 -19 2 -27 5 -17 2 9 2 25 0 35 -3 9 -5 1 -5 -18z"/>
<path d="M731 4158 l0 -113 27 73 c33 94 54 95 88 7 13 -33 23 -66 23 -72 1
-18 -26 -16 -33 2 -3 9 -18 15 -35 15 -16 0 -31 -6 -35 -15 -3 -8 -12 -15 -21
-15 -10 0 -15 -10 -15 -30 l0 -30 460 0 460 0 0 145 0 145 -460 0 -460 0 1
-112z m389 27 c0 -8 -6 -15 -14 -15 -17 0 -28 14 -19 24 12 12 33 6 33 -9z
m320 0 c0 -8 -6 -15 -14 -15 -17 0 -28 14 -19 24 12 12 33 6 33 -9z m60 -20
c0 -8 7 -15 15 -15 8 0 15 -4 15 -10 0 -5 -7 -10 -15 -10 -23 0 -20 -67 3 -73
16 -4 16 -4 0 -12 -32 -13 -48 2 -48 44 0 22 -6 42 -12 45 -10 5 -10 7 0 12 6
3 12 12 12 20 0 8 7 14 15 14 8 0 15 -7 15 -15z m-540 -30 c0 -7 -7 -15 -15
-19 -9 -3 -15 -19 -15 -41 0 -24 -4 -35 -15 -35 -11 0 -15 13 -15 53 0 53 1
54 30 55 19 0 30 -4 30 -13z m98 -3 c3 -9 -3 -11 -22 -6 -33 8 -34 -9 -1 -24
50 -23 12 -78 -40 -58 -25 9 -17 24 10 18 14 -2 25 0 25 5 0 5 -11 15 -25 21
-27 13 -32 31 -13 50 16 16 60 12 66 -6z m62 -37 c0 -42 -3 -55 -15 -55 -16 0
-18 6 -17 55 0 50 1 55 17 55 12 0 15 -13 15 -55z m120 35 c16 -29 13 -90 -4
-90 -10 0 -16 14 -18 43 -2 29 -8 42 -18 42 -10 0 -16 -13 -18 -42 -2 -29 -8
-43 -18 -43 -13 0 -16 12 -16 55 0 48 2 51 42 52 30 2 42 -3 50 -17z m128 8
c20 -20 15 -76 -7 -88 -45 -23 -91 -1 -91 45 0 13 7 31 16 39 18 19 65 21 82
4z m72 -44 c0 -47 -3 -55 -17 -52 -14 2 -18 14 -18 48 -1 53 1 60 21 60 10 0
14 -14 14 -56z m188 44 c7 -7 12 -20 12 -30 0 -14 -8 -18 -36 -18 -24 0 -34
-4 -31 -12 2 -7 18 -12 36 -12 33 2 42 -10 15 -20 -48 -18 -84 1 -84 45 0 49
56 79 88 47z"/>
<path d="M1304 4116 c-10 -26 0 -51 21 -51 16 0 20 7 20 30 0 33 -30 49 -41
21z"/>
<path d="M1575 4120 c-3 -5 3 -10 14 -10 12 0 21 5 21 10 0 6 -6 10 -14 10 -8
0 -18 -4 -21 -10z"/>
<path d="M1975 4250 c-4 -6 -14 -9 -22 -5 -13 5 -14 3 -3 -10 12 -14 15 -14
29 -1 8 9 12 18 9 21 -3 4 -9 1 -13 -5z"/>
<path d="M3220 4246 c0 -2 8 -10 18 -17 15 -13 16 -12 3 4 -13 16 -21 21 -21
13z"/>
<path d="M3525 4227 c-8 -28 -3 -42 12 -36 5 2 6 18 2 34 l-6 30 -8 -28z"/>
<path d="M1931 4214 c0 -11 3 -14 6 -6 3 7 2 16 -1 19 -3 4 -6 -2 -5 -13z"/>
<path d="M1951 4194 c0 -11 3 -14 6 -6 3 7 2 16 -1 19 -3 4 -6 -2 -5 -13z"/>
<path d="M1962 4165 c4 -4 3 -14 -4 -22 -6 -7 -8 -16 -5 -19 3 -3 10 3 16 15
8 15 8 22 -1 27 -7 4 -10 4 -6 -1z"/>
<path d="M791 4127 c-14 -37 -14 -37 9 -37 21 0 24 12 10 45 -7 19 -9 18 -19
-8z"/>
<path d="M3346 4115 c4 -8 11 -15 16 -15 6 0 5 6 -2 15 -7 8 -14 15 -16 15 -2
0 -1 -7 2 -15z"/>
<path d="M1926 4101 c-4 -6 0 -18 8 -27 12 -12 16 -12 16 -2 0 22 -17 42 -24
29z"/>
<path d="M1944 3988 c-4 -13 -16 -31 -27 -40 -14 -13 -16 -18 -6 -18 24 0 36
14 44 48 8 36 0 44 -11 10z"/>
<path d="M1849 3963 c0 -5 -2 -37 -5 -73 -3 -36 -7 -71 -9 -78 -3 -7 0 -10 5
-7 14 9 12 -9 -2 -23 -9 -9 -9 -12 -1 -12 7 0 15 9 18 20 3 11 11 20 16 20 5
0 9 36 9 80 0 64 -3 80 -15 80 -8 0 -15 -3 -16 -7z"/>
<path d="M2420 3890 c0 -64 3 -80 15 -80 12 0 15 16 15 80 0 64 -3 80 -15 80
-12 0 -15 -16 -15 -80z"/>
<path d="M2477 3964 c-9 -10 2 -24 19 -24 8 0 14 7 14 15 0 15 -21 21 -33 9z"/>
<path d="M1280 3885 c0 -60 3 -75 15 -75 10 0 15 10 15 30 0 25 4 30 25 30 21
0 25 -5 25 -30 0 -23 4 -30 20 -30 18 0 20 7 20 75 0 68 -2 75 -20 75 -16 0
-20 -7 -20 -35 0 -31 -3 -35 -25 -35 -22 0 -25 4 -25 35 0 24 -5 35 -15 35
-12 0 -15 -15 -15 -75z"/>
<path d="M2540 3936 c0 -8 -6 -17 -12 -20 -10 -5 -10 -7 0 -12 6 -3 12 -23 12
-45 0 -42 16 -57 48 -44 16 8 16 8 0 12 -23 6 -26 73 -3 73 8 0 15 5 15 10 0
6 -7 10 -15 10 -8 0 -15 7 -15 15 0 8 -7 15 -15 15 -8 0 -15 -6 -15 -14z"/>
<path d="M3410 3929 c0 -5 5 -7 10 -4 6 3 10 8 10 11 0 2 -4 4 -10 4 -5 0 -10
-5 -10 -11z"/>
<path d="M1438 3909 c-22 -12 -24 -71 -4 -88 18 -15 78 -11 83 6 3 7 -8 10
-28 10 -18 -1 -34 4 -36 11 -3 8 7 12 31 12 28 0 36 4 36 18 0 37 -44 54 -82
31z m52 -19 c0 -5 -9 -10 -21 -10 -11 0 -17 5 -14 10 3 6 13 10 21 10 8 0 14
-4 14 -10z"/>
<path d="M1550 3864 c0 -41 4 -54 15 -54 10 0 15 10 15 34 0 19 5 38 11 41 19
12 87 16 94 5 4 -6 -4 -10 -17 -10 -28 0 -48 -17 -48 -41 0 -20 19 -27 68 -27
30 -1 32 1 32 34 0 51 -15 74 -50 74 -16 0 -32 -5 -35 -10 -4 -7 -11 -8 -18
-2 -7 6 -24 10 -39 10 -27 0 -28 -2 -28 -54z m133 -19 c1 -5 -6 -11 -15 -13
-11 -2 -18 3 -18 13 0 17 30 18 33 0z"/>
<path d="M1758 3909 c-22 -12 -24 -71 -4 -88 17 -14 72 -11 68 4 -1 5 -12 10
-25 10 -18 0 -22 6 -22 30 0 25 4 30 23 29 12 0 22 5 22 13 0 15 -37 17 -62 2z"/>
<path d="M1913 3908 c-44 -57 3 -118 71 -92 27 10 18 22 -15 20 -18 0 -34 5
-36 12 -3 8 7 12 31 12 28 0 36 4 36 18 0 10 -5 23 -12 30 -16 16 -63 15 -75
0z m57 -18 c0 -5 -9 -10 -21 -10 -11 0 -17 5 -14 10 3 6 13 10 21 10 8 0 14
-4 14 -10z"/>
<path d="M2036 3904 c-33 -32 -9 -94 35 -94 52 0 74 42 49 91 -13 23 -62 26
-84 3z m59 -39 c0 -23 -4 -30 -20 -30 -21 0 -31 25 -21 51 11 28 41 12 41 -21z"/>
<path d="M2160 3842 c0 -55 3 -73 13 -69 6 2 12 14 11 25 0 18 4 20 23 16 32
-8 53 12 53 51 0 41 -15 54 -62 52 l-38 -1 0 -74z m65 22 c0 -19 -5 -29 -15
-29 -16 0 -25 28 -16 51 10 25 31 10 31 -22z"/>
<path d="M2296 3904 c-33 -32 -9 -94 35 -94 36 0 59 19 59 50 0 35 -23 60 -55
60 -13 0 -31 -7 -39 -16z m59 -39 c0 -23 -4 -30 -20 -30 -21 0 -31 25 -21 51
11 28 41 12 41 -21z"/>
<path d="M2480 3865 c0 -42 3 -55 15 -55 12 0 15 13 15 55 0 42 -3 55 -15 55
-12 0 -15 -13 -15 -55z"/>
<path d="M2626 3904 c-19 -18 -21 -65 -4 -82 13 -13 47 -16 72 -6 27 10 18 22
-15 20 -18 0 -34 5 -36 12 -3 8 7 12 31 12 28 0 36 4 36 18 0 40 -54 57 -84
26z m54 -14 c0 -5 -9 -10 -21 -10 -11 0 -17 5 -14 10 3 6 13 10 21 10 8 0 14
-4 14 -10z"/>
<path d="M3431 3854 c0 -11 3 -14 6 -6 3 7 2 16 -1 19 -3 4 -6 -2 -5 -13z"/>
<path d="M3431 3825 c0 -5 6 -21 14 -35 8 -14 14 -20 14 -15 0 6 -6 21 -14 35
-8 14 -14 21 -14 15z"/>
<path d="M1790 3776 c0 -2 7 -9 15 -16 12 -10 15 -10 15 4 0 9 -7 16 -15 16
-8 0 -15 -2 -15 -4z"/>
<path d="M1780 3739 c0 -5 5 -7 10 -4 6 3 10 8 10 11 0 2 -4 4 -10 4 -5 0 -10
-5 -10 -11z"/>
<path d="M3421 3732 c-17 -31 -13 -40 5 -14 9 13 14 26 11 29 -3 2 -10 -4 -16
-15z"/>
<path d="M1740 3724 c0 -8 5 -12 10 -9 6 3 10 1 10 -6 0 -7 2 -10 5 -7 8 7 -5
38 -16 38 -5 0 -9 -7 -9 -16z"/>
<path d="M1740 3665 c0 -8 2 -15 4 -15 2 0 6 7 10 15 3 8 1 15 -4 15 -6 0 -10
-7 -10 -15z"/>
<path d="M1700 3646 c-7 -9 -10 -22 -7 -30 3 -7 0 -19 -6 -25 -6 -6 -7 -14 -3
-18 12 -12 26 20 19 47 -6 22 -5 24 10 11 18 -14 22 -5 8 17 -6 10 -10 10 -21
-2z"/>
<path d="M1633 3578 c-4 -7 -8 -17 -9 -23 0 -5 -2 -17 -3 -25 -1 -13 -2 -13
-11 0 -8 12 -10 13 -10 1 0 -8 -7 -22 -15 -31 -14 -16 -14 -23 5 -72 11 -31
17 -63 14 -73 -5 -13 -2 -16 11 -14 17 4 44 60 59 122 5 20 3 27 -9 27 -8 0
-17 -11 -21 -25 -8 -33 -17 -32 -31 5 -8 21 -8 32 -1 37 7 4 8 1 3 -8 -5 -8
-4 -10 0 -6 5 4 10 14 11 22 1 8 9 28 17 45 15 29 7 43 -10 18z"/>
<path d="M1459 3538 c0 -2 -1 -38 -2 -81 -2 -67 0 -77 16 -77 13 0 17 9 17 39
0 42 16 63 31 40 5 -8 9 -29 9 -46 0 -23 5 -33 15 -33 11 0 15 11 15 38 0 49
-20 77 -49 69 -18 -4 -21 -1 -21 24 0 19 -5 29 -15 29 -8 0 -15 -1 -16 -2z"/>
<path d="M1927 3533 c-4 -3 -7 -39 -7 -80 0 -66 2 -73 20 -73 17 0 20 7 20 39
0 42 16 63 31 40 5 -8 9 -29 9 -46 0 -23 5 -33 15 -33 11 0 15 11 15 38 0 49
-20 77 -49 69 -18 -4 -21 -1 -21 24 0 27 -17 39 -33 22z"/>
<path d="M2057 3533 c-13 -12 -7 -23 13 -23 11 0 20 7 20 15 0 15 -21 21 -33
8z"/>
<path d="M1000 3510 c-29 -29 -27 -94 2 -114 12 -9 34 -16 48 -16 45 0 70 26
70 74 0 29 -6 48 -18 59 -25 23 -78 21 -102 -3z m82 -25 c17 -38 0 -80 -32
-80 -18 0 -27 8 -34 27 -13 36 6 78 34 78 12 0 25 -10 32 -25z"/>
<path d="M2120 3506 c0 -8 -6 -17 -12 -19 -10 -4 -10 -8 -1 -14 6 -4 13 -26
15 -48 2 -33 7 -41 26 -43 12 -2 22 1 22 7 0 6 -4 11 -10 11 -5 0 -10 16 -10
35 0 27 4 35 18 35 16 1 16 1 0 14 -10 7 -18 18 -18 25 0 6 -7 11 -15 11 -8 0
-15 -6 -15 -14z"/>
<path d="M1146 3473 c4 -10 7 -27 7 -38 0 -11 -3 -28 -7 -37 -5 -12 -4 -18 4
-18 7 0 19 8 26 18 12 16 13 16 19 0 4 -10 16 -18 27 -18 19 0 19 1 1 30 -13
23 -15 32 -5 42 7 7 12 18 12 25 0 19 -27 16 -35 -4 -6 -17 -7 -17 -16 0 -6 9
-17 17 -26 17 -11 0 -13 -5 -7 -17z"/>
<path d="M1261 3435 c12 -32 18 -64 14 -76 -5 -16 -3 -20 10 -17 17 3 44 60
59 121 9 40 -19 36 -34 -5 l-13 -33 -10 33 c-6 21 -16 32 -28 32 -18 0 -18 -2
2 -55z"/>
<path d="M1370 3433 c0 -40 4 -53 15 -53 11 0 15 11 15 36 0 27 5 37 19 41 29
8 14 32 -20 31 -28 -1 -29 -2 -29 -55z"/>
<path d="M1694 3434 c0 -46 3 -54 18 -54 14 0 18 8 18 39 0 42 16 63 31 40 5
-8 9 -29 9 -46 0 -23 5 -33 15 -33 11 0 15 12 15 44 0 52 -12 64 -65 63 l-40
0 -1 -53z"/>
<path d="M1838 3479 c-22 -12 -24 -71 -4 -88 18 -15 68 -11 73 6 3 8 -6 11
-24 10 -25 -2 -28 1 -28 28 0 27 3 30 28 28 18 -1 27 2 24 10 -5 16 -47 20
-69 6z"/>
<path d="M2056 3444 c-6 -50 -2 -64 20 -64 10 0 14 14 14 55 0 71 -24 77 -34
9z"/>
<path d="M2206 3474 c-23 -22 -20 -71 3 -84 27 -14 56 -13 70 4 10 12 6 14
-20 13 -18 -1 -34 4 -36 11 -3 8 7 12 31 12 28 0 36 4 36 18 0 40 -54 57 -84
26z m54 -14 c0 -5 -9 -10 -21 -10 -11 0 -17 5 -14 10 3 6 13 10 21 10 8 0 14
-4 14 -10z"/>
<path d="M1570 3393 c1 -18 18 -35 24 -24 4 6 4 16 1 21 -7 12 -25 13 -25 3z"/>
<path d="M1535 3361 c-3 -5 -1 -12 5 -16 5 -3 10 1 10 9 0 18 -6 21 -15 7z"/>
<path d="M1561 3314 c0 -11 3 -14 6 -6 3 7 2 16 -1 19 -3 4 -6 -2 -5 -13z"/>
<path d="M1515 3291 c-3 -5 -3 -26 -1 -45 3 -27 1 -36 -10 -36 -8 0 -20 -15
-27 -32 l-13 -33 -12 33 c-6 17 -18 32 -26 32 -20 0 -20 2 5 -55 12 -28 18
-56 15 -71 -4 -15 -2 -24 5 -24 14 0 59 47 52 54 -3 3 -2 13 2 23 4 10 9 26
10 35 1 10 5 21 8 25 7 6 11 -29 9 -74 -1 -16 5 -23 18 -23 17 0 20 7 20 39 0
42 16 63 31 40 5 -8 9 -29 9 -46 0 -23 5 -33 15 -33 11 0 15 12 15 44 0 48
-16 68 -52 65 -45 -4 -60 0 -55 16 4 8 2 17 -3 20 -6 4 -10 11 -10 16 0 6 4 8
8 5 4 -2 8 4 8 15 0 20 -11 25 -21 10z"/>
<path d="M2060 3179 c0 -60 3 -80 13 -77 19 7 21 158 1 158 -11 0 -14 -17 -14
-81z"/>
<path d="M2117 3254 c-9 -10 2 -24 19 -24 8 0 14 7 14 15 0 15 -21 21 -33 9z"/>
<path d="M1317 3236 c-10 -8 -21 -32 -24 -54 -7 -51 22 -85 69 -80 42 4 47 23
6 23 -25 0 -33 5 -40 26 -5 16 -5 37 2 54 9 24 14 27 41 21 22 -4 29 -2 27 7
-6 17 -60 19 -81 3z"/>
<path d="M2180 3226 c0 -8 -6 -17 -12 -19 -10 -4 -10 -8 -1 -14 6 -4 13 -26
15 -48 2 -33 7 -41 26 -43 12 -2 22 1 22 7 0 6 -4 11 -10 11 -5 0 -10 16 -10
35 0 24 5 35 15 35 8 0 15 5 15 10 0 6 -7 10 -15 10 -8 0 -15 7 -15 15 0 8 -7
15 -15 15 -8 0 -15 -6 -15 -14z"/>
<path d="M1675 3194 c-26 -26 -16 -77 17 -88 44 -15 78 6 78 48 0 25 -6 38
-19 46 -28 15 -57 12 -76 -6z m60 -39 c0 -23 -4 -30 -20 -30 -21 0 -31 25 -21
51 11 28 41 12 41 -21z"/>
<path d="M1799 3148 c-1 -32 -2 -64 -3 -70 -1 -7 6 -13 14 -13 9 0 15 9 14 22
0 19 4 21 27 16 30 -6 49 17 49 60 0 33 -18 45 -62 44 l-38 -1 -1 -58z m66 6
c0 -19 -5 -29 -15 -29 -16 0 -25 28 -16 51 10 25 31 10 31 -22z"/>
<path d="M1936 3194 c-33 -32 -9 -94 35 -94 36 0 59 19 59 50 0 35 -23 60 -55
60 -13 0 -31 -7 -39 -16z m59 -39 c0 -23 -4 -30 -20 -30 -21 0 -31 25 -21 51
11 28 41 12 41 -21z"/>
<path d="M2120 3155 c0 -30 5 -55 10 -55 6 0 10 6 11 13 0 6 3 31 5 55 4 33 2
42 -10 42 -13 0 -16 -12 -16 -55z"/>
<path d="M2266 3194 c-23 -22 -20 -71 3 -84 27 -14 56 -13 70 4 10 12 6 14
-20 13 -18 -1 -34 4 -36 11 -3 8 7 12 31 12 28 0 36 4 36 18 0 40 -54 57 -84
26z m54 -14 c0 -5 -9 -10 -21 -10 -11 0 -17 5 -14 10 3 6 13 10 21 10 8 0 14
-4 14 -10z"/>
<path d="M1495 3080 c3 -5 8 -10 11 -10 2 0 4 5 4 10 0 6 -5 10 -11 10 -5 0
-7 -4 -4 -10z"/>
<path d="M1455 3000 c-21 -23 -9 -46 15 -29 12 8 12 12 2 16 -10 4 -9 8 5 19
10 7 13 14 7 14 -6 0 -19 -9 -29 -20z"/>
<path d="M1496 3003 c-6 -14 -5 -15 5 -6 7 7 10 15 7 18 -3 3 -9 -2 -12 -12z"/>
<path d="M1402 2915 c-10 -22 -9 -25 8 -25 21 0 26 16 12 38 -6 9 -12 6 -20
-13z"/>
<path d="M1380 2866 c0 -9 5 -16 10 -16 6 0 10 4 10 9 0 6 -4 13 -10 16 -5 3
-10 -1 -10 -9z"/>
<path d="M1400 2824 c0 -17 22 -14 28 4 2 7 -3 12 -12 12 -9 0 -16 -7 -16 -16z"/>
<path d="M1420 2776 c0 -9 5 -16 10 -16 6 0 10 4 10 9 0 6 -4 13 -10 16 -5 3
-10 -1 -10 -9z"/>
<path d="M1380 2718 c0 -19 2 -20 11 -8 8 12 9 8 6 -15 -6 -34 16 -95 34 -95
6 0 17 -7 23 -15 9 -13 11 -11 12 10 1 14 -2 25 -7 25 -18 0 -49 41 -49 64 0
31 -10 56 -21 56 -5 0 -9 -10 -9 -22z"/>
<path d="M1501 2552 c-1 -7 -5 -10 -11 -7 -5 3 -10 -1 -10 -10 0 -9 5 -13 11
-9 8 4 9 0 4 -15 -4 -15 -3 -21 7 -19 7 2 14 -6 16 -17 2 -18 -3 -20 -48 -19
-31 1 -50 -3 -51 -10 -5 -74 -3 -91 13 -94 13 -3 17 6 20 39 2 25 9 44 17 47
11 4 13 -4 7 -36 -5 -35 -3 -43 14 -52 11 -6 20 -9 21 -8 0 2 6 22 12 46 14
52 32 52 32 -1 0 -29 4 -37 18 -37 15 0 18 7 15 47 -2 39 -7 50 -28 60 -16 8
-31 29 -42 60 -9 26 -17 42 -17 35z"/>
<path d="M2010 2430 c0 -61 3 -81 13 -77 16 5 15 149 -2 155 -7 2 -11 -22 -11
-78z"/>
<path d="M2067 2504 c-9 -10 2 -24 19 -24 8 0 14 7 14 15 0 15 -21 21 -33 9z"/>
<path d="M1060 2425 c0 -60 3 -75 15 -75 10 0 15 10 15 30 0 25 4 30 25 30 21
0 25 -5 25 -30 0 -23 4 -30 20 -30 18 0 20 7 20 75 0 68 -2 75 -20 75 -16 0
-20 -7 -20 -35 0 -31 -3 -35 -25 -35 -22 0 -25 4 -25 35 0 24 -5 35 -15 35
-12 0 -15 -15 -15 -75z"/>
<path d="M2130 2476 c0 -8 -6 -17 -12 -20 -10 -5 -10 -7 0 -12 6 -3 12 -23 12
-45 0 -42 16 -57 48 -44 16 8 16 8 0 12 -13 3 -18 14 -18 39 0 26 4 34 18 34
16 1 16 1 0 14 -10 7 -18 18 -18 25 0 6 -7 11 -15 11 -8 0 -15 -6 -15 -14z"/>
<path d="M1218 2449 c-22 -12 -24 -71 -4 -88 18 -15 78 -11 83 6 3 7 -8 10
-28 10 -18 -1 -34 4 -36 11 -3 8 7 12 31 12 28 0 36 4 36 18 0 37 -44 54 -82
31z m52 -19 c0 -5 -9 -10 -21 -10 -11 0 -17 5 -14 10 3 6 13 10 21 10 8 0 14
-4 14 -10z"/>
<path d="M1330 2403 c0 -40 4 -53 15 -53 11 0 15 11 15 35 0 22 6 38 15 41 27
11 17 33 -15 32 -29 -1 -30 -2 -30 -55z"/>
<path d="M1626 2444 c-19 -18 -21 -65 -4 -82 31 -31 98 -5 98 38 0 35 -23 60
-55 60 -13 0 -31 -7 -39 -16z m59 -39 c0 -23 -4 -30 -20 -30 -21 0 -31 25 -21
51 11 28 41 12 41 -21z"/>
<path d="M1750 2382 c0 -55 3 -73 13 -69 6 2 12 14 11 25 0 18 4 20 23 16 32
-8 53 12 53 51 0 41 -15 54 -62 52 l-38 -1 0 -74z m65 22 c0 -19 -5 -29 -15
-29 -16 0 -25 28 -16 51 10 25 31 10 31 -22z"/>
<path d="M1886 2444 c-33 -32 -9 -94 35 -94 39 0 59 19 59 55 0 24 -6 38 -19
45 -28 14 -57 12 -75 -6z m59 -39 c0 -23 -4 -30 -20 -30 -21 0 -31 25 -21 51
11 28 41 12 41 -21z"/>
<path d="M2070 2404 c0 -40 3 -55 13 -51 17 5 18 107 0 107 -9 0 -13 -16 -13
-56z"/>
<path d="M2216 2444 c-9 -8 -16 -29 -16 -45 0 -35 34 -55 74 -45 36 9 32 24
-5 22 -18 0 -34 5 -36 12 -3 8 7 12 31 12 28 0 36 4 36 18 0 40 -54 57 -84 26z
m54 -14 c0 -5 -9 -10 -21 -10 -11 0 -17 5 -14 10 3 6 13 10 21 10 8 0 14 -4
14 -10z"/>
<path d="M1476 2322 c-3 -5 1 -17 8 -27 10 -14 15 -15 21 -5 6 9 4 11 -5 5
-10 -6 -12 -4 -7 8 7 17 -8 33 -17 19z"/>
<path d="M1510 2321 c0 -6 4 -13 10 -16 6 -3 7 1 4 9 -7 18 -14 21 -14 7z"/>
<path d="M1544 2277 c3 -10 6 -25 6 -33 0 -9 5 -12 10 -9 14 9 13 18 -6 41
-14 17 -15 17 -10 1z"/>
<path d="M1520 2215 c0 -8 -4 -15 -9 -15 -4 0 -6 -11 -3 -25 2 -14 8 -22 13
-19 5 3 9 -1 9 -9 0 -8 7 -17 15 -21 19 -7 19 4 -1 32 -10 14 -14 32 -10 48 4
14 2 24 -4 24 -5 0 -10 -7 -10 -15z"/>
<path d="M1535 2100 c-3 -5 -2 -10 4 -10 5 0 13 5 16 10 3 6 2 10 -4 10 -5 0
-13 -4 -16 -10z"/>
<path d="M1481 2018 c-14 -23 -14 -51 0 -43 6 4 8 13 5 21 -3 8 1 14 8 14 8 0
16 6 19 13 8 20 -19 16 -32 -5z"/>
<path d="M1486 1961 c-4 -5 -3 -17 0 -26 4 -9 1 -28 -7 -41 -9 -18 -10 -27 -2
-32 6 -4 13 -18 15 -32 2 -20 8 -25 31 -23 17 1 27 -3 27 -12 0 -17 17 -28 30
-20 17 10 -1 34 -36 47 -19 6 -34 17 -34 24 0 7 -5 14 -11 16 -7 2 -9 13 -5
26 4 12 12 20 17 17 5 -4 9 3 9 14 0 13 -7 21 -16 21 -14 0 -14 3 -4 15 8 9 9
15 2 15 -6 0 -13 -4 -16 -9z"/>
<path d="M1610 1770 c0 -5 5 -10 11 -10 5 0 7 5 4 10 -3 6 -8 10 -11 10 -2 0
-4 -4 -4 -10z"/>
<path d="M1581 1733 c-1 -12 4 -25 10 -28 14 -9 27 4 13 13 -6 4 -14 14 -17
22 -4 10 -6 8 -6 -7z"/>
<path d="M1650 1684 c0 -8 5 -12 10 -9 6 3 10 10 10 16 0 5 -4 9 -10 9 -5 0
-10 -7 -10 -16z"/>
<path d="M1640 1650 c0 -14 29 -32 47 -28 14 3 11 7 -14 20 -18 9 -33 13 -33
8z"/>
<path d="M1705 1650 c-4 -6 7 -10 27 -9 27 0 30 2 13 9 -27 12 -33 12 -40 0z"/>
<path d="M1756 1615 c-11 -8 -16 -15 -10 -15 5 0 15 -10 23 -21 11 -18 11 -23
-1 -30 -10 -7 -9 -9 3 -9 24 0 34 32 14 43 -10 5 -14 16 -10 28 7 23 6 23 -19
4z"/>
<path d="M1826 1561 c10 -10 21 -17 23 -15 6 6 -20 34 -32 34 -6 0 -2 -8 9
-19z"/>
<path d="M1856 1512 c-9 -15 10 -25 33 -17 10 3 25 0 33 -8 7 -7 20 -11 28 -9
13 5 13 3 0 -13 -11 -14 -12 -19 -2 -22 6 -3 12 -11 12 -18 0 -8 3 -16 8 -19
16 -9 -1 73 -18 89 -22 20 -58 27 -66 13 -4 -7 -9 -6 -14 2 -5 8 -10 9 -14 2z"/>
<path d="M1963 1380 c10 -30 32 -70 38 -70 4 0 10 8 13 17 4 10 4 14 0 11 -7
-8 -24 7 -43 37 -7 11 -10 13 -8 5z"/>
<path d="M2030 1310 c0 -5 5 -10 11 -10 5 0 7 5 4 10 -3 6 -8 10 -11 10 -2 0
-4 -4 -4 -10z"/>
<path d="M2027 1279 c7 -7 15 -10 18 -7 3 3 -2 9 -12 12 -14 6 -15 5 -6 -5z"/>
<path d="M2060 1272 c0 -6 6 -13 13 -15 9 -4 9 -6 -1 -6 -7 -1 -10 -6 -6 -12
4 -8 9 -7 14 2 7 10 11 10 24 0 9 -8 16 -11 16 -8 0 3 -13 15 -30 27 -16 12
-30 17 -30 12z"/>
<path d="M2143 1183 c2 -18 -1 -29 -6 -26 -5 3 -8 0 -6 -6 3 -7 8 -12 13 -11
4 1 14 -7 22 -17 7 -10 14 -13 14 -7 0 5 -4 14 -9 20 -5 5 -14 25 -20 44 l-11
35 3 -32z"/>
<path d="M2121 1184 c0 -11 3 -14 6 -6 3 7 2 16 -1 19 -3 4 -6 -2 -5 -13z"/>
<path d="M2173 1083 c-16 -6 -17 -39 -1 -49 7 -4 8 -3 4 5 -4 6 -2 19 5 27 13
16 10 23 -8 17z"/>
<path d="M2227 965 c16 -22 43 -34 43 -19 0 8 -43 43 -53 44 -4 0 0 -11 10
-25z"/>
<path d="M2280 954 c0 -13 18 -39 24 -34 2 3 -2 14 -10 24 -8 11 -14 16 -14
10z"/>
<path d="M2277 887 c-10 -25 -10 -24 20 -30 15 -3 36 -1 46 5 14 7 22 5 32 -9
13 -17 14 -17 11 2 -3 17 -11 20 -49 19 -34 0 -47 4 -49 15 -3 13 -5 13 -11
-2z"/>
<path d="M2366 815 c4 -8 8 -15 10 -15 2 0 4 7 4 15 0 8 -4 15 -10 15 -5 0 -7
-7 -4 -15z"/>
<path d="M2437 768 c11 -13 23 -30 25 -38 4 -10 8 -5 13 14 8 31 -4 46 -39 46
-19 0 -19 -1 1 -22z m33 -9 c0 -6 -4 -7 -10 -4 -5 3 -10 11 -10 16 0 6 5 7 10
4 6 -3 10 -11 10 -16z"/>
<path d="M2350 752 c0 -5 6 -12 14 -15 18 -7 56 3 56 14 0 13 -14 11 -28 -3
-8 -8 -15 -8 -27 2 -8 7 -15 8 -15 2z"/>
<path d="M2458 678 c-2 -36 2 -62 11 -71 5 -5 8 7 8 25 -1 18 2 41 6 51 4 11
2 17 -8 17 -8 0 -16 -10 -17 -22z"/>
<path d="M2517 581 c6 -7 9 -21 6 -30 -4 -14 -3 -14 6 -1 11 15 12 13 15 -24
0 -11 8 -21 16 -23 13 -4 13 -3 0 6 -12 9 -12 13 -2 19 9 6 3 16 -20 38 -18
16 -28 23 -21 15z"/>
<path d="M2586 491 c-4 -5 4 -15 16 -22 22 -12 22 -11 8 7 -8 10 -15 20 -16
22 -1 2 -5 -1 -8 -7z"/>
<path d="M2635 460 c3 -5 10 -10 16 -10 5 0 9 5 9 10 0 6 -7 10 -16 10 -8 0
-12 -4 -9 -10z"/>
<path d="M2663 433 c-10 -4 -10 -9 1 -25 8 -11 12 -26 10 -32 -3 -7 2 -13 11
-13 19 0 20 33 0 41 -8 3 -12 12 -9 21 6 16 6 16 -13 8z"/>
<path d="M2775 340 c-6 -10 1 -14 18 -11 4 0 7 -6 7 -14 0 -9 9 -15 23 -14 12
0 16 3 9 6 -6 2 -10 8 -7 12 2 5 -7 13 -20 19 -15 7 -26 8 -30 2z"/>
<path d="M2736 314 c-4 -10 -13 -13 -25 -9 -11 3 -22 1 -26 -5 -9 -15 61 -12
74 3 6 8 8 17 4 20 -11 11 -21 8 -27 -9z"/>
<path d="M3330 295 c0 -8 -11 -22 -25 -31 -33 -21 -32 -29 5 -31 27 -2 30 0
24 21 -3 13 -1 27 5 30 14 9 14 26 1 26 -5 0 -10 -7 -10 -15z"/>
<path d="M2830 280 c-13 -9 -11 -13 10 -29 30 -23 40 -19 17 7 -10 10 -14 22
-10 25 9 10 0 8 -17 -3z"/>
<path d="M3410 245 c10 -12 16 -13 27 -3 12 9 19 6 39 -17 26 -31 29 -42 13
-47 -7 -2 -7 -11 0 -28 11 -28 11 -28 16 22 5 48 -29 88 -76 88 -27 0 -30 -2
-19 -15z"/>
<path d="M3118 226 c-10 -7 -18 -20 -18 -29 0 -9 -9 -17 -20 -19 -14 -2 -17
-7 -10 -18 7 -12 12 -12 29 4 12 11 21 25 21 31 0 20 32 43 37 28 3 -7 12 -13
21 -13 15 1 14 3 -2 15 -24 18 -36 18 -58 1z"/>
<path d="M2915 210 c3 -5 1 -10 -4 -10 -6 0 -11 -9 -11 -21 0 -11 5 -19 11
-17 15 5 21 58 8 58 -6 0 -7 -4 -4 -10z"/>
<path d="M3218 213 c6 -2 18 -2 25 0 6 3 1 5 -13 5 -14 0 -19 -2 -12 -5z"/>
<path d="M2990 185 c-7 -9 -10 -19 -6 -23 4 -4 13 1 20 10 7 10 17 14 21 10 5
-4 5 -1 1 6 -10 16 -21 15 -36 -3z"/>
<path d="M2920 134 c0 -10 3 -15 6 -11 4 3 13 0 21 -8 11 -12 18 -12 33 -2 24
14 26 27 4 27 -8 0 -12 -4 -9 -10 3 -5 -1 -10 -9 -10 -9 0 -15 5 -13 12 1 6
-6 14 -15 16 -12 2 -18 -3 -18 -14z"/>
<path d="M3487 63 c-11 -10 -8 -20 7 -26 10 -4 12 0 9 14 -6 21 -7 22 -16 12z"/>
<path d="M3456 15 c-3 -8 -1 -15 3 -15 5 0 11 7 15 15 3 8 1 15 -3 15 -5 0
-11 -7 -15 -15z"/>
</g>
</svg>
