<?xml version="1.0" standalone="no"?>
<!DOCTYPE svg PUBLIC "-//W3C//DTD SVG 20010904//EN"
 "http://www.w3.org/TR/2001/REC-SVG-20010904/DTD/svg10.dtd">
<svg version="1.0" xmlns="http://www.w3.org/2000/svg"
 width="1124.000000pt" height="399.000000pt" viewBox="0 0 1124.000000 399.000000"
 preserveAspectRatio="xMidYMid meet">

<g transform="translate(0.000000,399.000000) scale(0.100000,-0.100000)"
fill="#000000" stroke="none">
<path d="M1550 3761 c0 -24 -3 -28 -23 -24 -44 9 -71 -42 -47 -87 8 -14 20
-19 50 -17 l40 1 0 78 c0 45 -4 78 -10 78 -5 0 -10 -13 -10 -29z m-5 -76 c0
-21 -5 -31 -19 -33 -26 -5 -40 12 -32 43 5 20 12 26 29 23 17 -2 22 -10 22
-33z"/>
<path d="M2620 3710 c0 -47 4 -80 10 -80 6 0 10 33 10 80 0 47 -4 80 -10 80
-6 0 -10 -33 -10 -80z"/>
<path d="M2857 3763 c-15 -30 -11 -133 4 -133 5 0 9 20 9 45 0 33 4 45 15 45
8 0 15 5 15 10 0 6 -7 10 -15 10 -8 0 -15 7 -15 15 0 8 9 15 21 15 11 0 17 5
14 10 -11 19 -34 10 -48 -17z"/>
<path d="M8497 3763 c-15 -30 -11 -133 4 -133 5 0 9 20 9 45 0 33 4 45 15 45
8 0 15 5 15 10 0 6 -7 10 -15 10 -8 0 -15 7 -15 15 0 8 9 15 21 15 11 0 17 5
14 10 -11 19 -34 10 -48 -17z"/>
<path d="M2130 3770 c0 -5 5 -10 10 -10 6 0 10 5 10 10 0 6 -4 10 -10 10 -5 0
-10 -4 -10 -10z"/>
<path d="M8130 3770 c0 -5 4 -10 9 -10 6 0 13 5 16 10 3 6 -1 10 -9 10 -9 0
-16 -4 -16 -10z"/>
<path d="M2050 3755 c0 -8 -5 -15 -12 -15 -9 0 -9 -3 0 -12 7 -7 12 -24 12
-39 0 -15 3 -34 6 -43 7 -17 44 -22 44 -6 0 6 -7 10 -15 10 -10 0 -15 11 -15
35 0 24 5 35 15 35 8 0 15 5 15 10 0 6 -7 10 -15 10 -8 0 -15 7 -15 15 0 8 -4
15 -10 15 -5 0 -10 -7 -10 -15z"/>
<path d="M2430 3755 c0 -8 -5 -15 -12 -15 -9 0 -9 -3 0 -12 7 -7 12 -24 12
-39 0 -15 3 -34 6 -43 7 -17 44 -22 44 -6 0 6 -7 10 -15 10 -10 0 -15 11 -15
35 0 24 5 35 15 35 8 0 15 5 15 10 0 6 -7 10 -15 10 -8 0 -15 7 -15 15 0 8 -4
15 -10 15 -5 0 -10 -7 -10 -15z"/>
<path d="M3430 3755 c0 -8 -5 -15 -12 -15 -9 0 -9 -3 0 -12 7 -7 12 -24 12
-39 0 -15 3 -34 6 -43 7 -17 44 -22 44 -6 0 6 -7 10 -15 10 -10 0 -15 11 -15
35 0 24 5 35 15 35 8 0 15 5 15 10 0 6 -7 10 -15 10 -8 0 -15 7 -15 15 0 8 -4
15 -10 15 -5 0 -10 -7 -10 -15z"/>
<path d="M9070 3755 c0 -8 -5 -15 -12 -15 -9 0 -9 -3 0 -12 7 -7 12 -24 12
-39 0 -15 3 -34 6 -43 7 -17 44 -22 44 -6 0 6 -7 10 -15 10 -10 0 -15 11 -15
35 0 24 5 35 15 35 8 0 15 5 15 10 0 6 -7 10 -15 10 -8 0 -15 7 -15 15 0 8 -4
15 -10 15 -5 0 -10 -7 -10 -15z"/>
<path d="M1617 3722 c-34 -37 -11 -92 38 -92 37 0 39 18 3 22 -49 5 -48 28 1
28 45 0 54 16 25 44 -21 21 -47 20 -67 -2z m58 -12 c4 -6 -7 -10 -25 -10 -18
0 -29 4 -25 10 3 6 15 10 25 10 10 0 22 -4 25 -10z"/>
<path d="M1730 3683 c0 -63 18 -71 22 -10 2 34 7 42 23 42 16 0 21 -9 26 -45
6 -47 10 -46 14 5 2 17 3 34 4 38 1 5 11 7 24 5 18 -2 23 -10 25 -45 2 -24 7
-43 11 -43 10 0 6 84 -4 100 -8 13 -42 13 -50 0 -5 -8 -11 -8 -19 -1 -7 6 -27
9 -44 8 -32 -2 -32 -3 -32 -54z"/>
<path d="M1927 3722 c-21 -24 -22 -56 -1 -77 24 -23 66 -15 83 16 13 24 13 29
-2 53 -21 31 -56 34 -80 8z m68 -21 c10 -31 -5 -52 -34 -49 -26 3 -38 26 -27
54 8 21 53 18 61 -5z"/>
<path d="M2130 3685 c0 -30 5 -55 10 -55 6 0 10 25 10 55 0 30 -4 55 -10 55
-5 0 -10 -25 -10 -55z"/>
<path d="M2196 3724 c-32 -32 -10 -94 34 -94 31 0 33 18 3 22 -24 3 -28 8 -28
33 0 25 4 30 28 33 15 2 25 8 22 13 -9 14 -42 11 -59 -7z"/>
<path d="M2340 3725 c-15 -18 -6 -33 27 -46 30 -11 20 -33 -14 -26 -15 3 -22
0 -20 -7 2 -6 17 -11 33 -11 40 0 47 39 10 57 -33 14 -33 28 -1 28 14 0 25 5
25 10 0 15 -46 12 -60 -5z"/>
<path d="M2500 3730 c0 -5 7 -28 16 -50 9 -22 14 -52 11 -66 -9 -49 16 -18 44
54 29 76 21 101 -10 30 l-18 -43 -13 43 c-12 38 -30 58 -30 32z"/>
<path d="M2687 3722 c-34 -37 -11 -92 38 -92 37 0 39 18 3 22 -49 5 -48 28 1
28 45 0 54 16 25 44 -21 21 -47 20 -67 -2z m58 -12 c4 -6 -7 -10 -25 -10 -18
0 -29 4 -25 10 3 6 15 10 25 10 10 0 22 -4 25 -10z"/>
<path d="M2917 3722 c-35 -39 -8 -96 42 -90 17 2 30 13 39 31 12 24 11 31 -2
53 -20 29 -56 32 -79 6z m68 -21 c10 -31 -5 -52 -34 -49 -26 3 -38 26 -27 54
8 21 53 18 61 -5z"/>
<path d="M3040 3683 c0 -29 5 -53 10 -53 6 0 10 18 10 41 0 32 4 42 20 46 30
8 24 22 -10 21 -29 -1 -30 -2 -30 -55z"/>
<path d="M3120 3683 c0 -63 17 -72 22 -10 2 34 7 42 23 42 16 0 21 -8 23 -42
2 -24 7 -43 12 -43 5 0 7 13 5 29 -5 36 16 67 39 58 11 -4 16 -19 16 -47 0
-22 4 -40 9 -40 9 0 6 84 -4 100 -8 13 -42 13 -50 0 -5 -7 -11 -8 -19 -1 -6 5
-26 9 -44 9 -32 -1 -32 -1 -32 -55z"/>
<path d="M3317 3733 c-14 -14 -6 -19 23 -15 40 6 39 -14 -1 -23 -59 -13 -45
-65 17 -63 33 1 34 2 34 43 0 22 -5 46 -12 53 -13 13 -50 16 -61 5z m51 -65
c-5 -15 -48 -24 -48 -10 0 14 12 22 33 22 10 0 17 -5 15 -12z"/>
<path d="M7765 3715 c-28 -124 -28 -125 -16 -125 5 0 12 11 15 24 4 18 11 22
29 19 32 -6 59 27 55 69 -3 31 -5 33 -41 33 -30 1 -39 -4 -42 -20z m63 -27
c-2 -23 -9 -34 -22 -36 -31 -6 -41 14 -22 42 24 38 48 34 44 -6z"/>
<path d="M7894 3726 c-10 -8 -17 -28 -18 -52 l-1 -39 39 0 c39 1 40 1 51 51
l11 50 -32 1 c-18 1 -40 -5 -50 -11z m56 -22 c0 -27 -20 -54 -40 -54 -23 0
-28 38 -8 58 17 17 48 15 48 -4z"/>
<path d="M8015 3726 c-11 -8 -18 -27 -19 -52 -1 -38 0 -39 32 -37 43 2 37 -21
-6 -25 -18 -2 -32 -8 -32 -13 0 -6 15 -9 32 -7 38 3 55 30 64 99 6 43 5 44
-24 46 -16 1 -37 -4 -47 -11z m55 -22 c0 -27 -20 -54 -40 -54 -23 0 -28 38 -8
58 17 17 48 15 48 -4z"/>
<path d="M8126 3723 c-14 -49 -18 -93 -7 -93 6 0 11 6 11 13 1 6 5 31 9 55 8
40 -2 60 -13 25z"/>
<path d="M8185 3720 c-2 -8 -7 -32 -11 -52 -8 -46 11 -52 20 -6 7 37 23 58 43
58 12 0 14 -9 9 -45 -5 -28 -3 -45 3 -45 12 0 26 84 16 99 -9 16 -74 9 -80 -9z"/>
<path d="M8314 3726 c-10 -8 -17 -28 -18 -52 l-1 -39 41 -1 41 -1 10 52 9 51
-33 1 c-17 1 -39 -5 -49 -11z m56 -22 c0 -27 -20 -54 -40 -54 -22 0 -26 20
-10 51 13 23 50 26 50 3z"/>
<path d="M8557 3722 c-21 -23 -22 -56 -1 -76 23 -24 61 -20 80 8 34 53 -37
115 -79 68z m68 -21 c10 -31 -5 -52 -34 -49 -26 3 -38 26 -27 54 8 21 53 18
61 -5z"/>
<path d="M8680 3683 c0 -29 5 -53 10 -53 6 0 10 18 10 41 0 32 4 42 20 46 30
8 24 22 -10 21 -29 -1 -30 -2 -30 -55z"/>
<path d="M8760 3683 c0 -63 18 -71 22 -10 2 34 7 42 23 42 16 0 21 -8 23 -42
2 -24 7 -43 13 -43 5 0 7 15 5 33 -5 41 5 60 30 55 14 -2 20 -13 22 -46 2 -23
7 -42 12 -42 8 0 5 70 -5 98 -5 15 -41 16 -50 2 -5 -8 -11 -8 -19 -1 -7 6 -27
9 -44 8 -32 -2 -32 -3 -32 -54z"/>
<path d="M8957 3733 c-14 -14 -6 -19 23 -15 40 6 39 -14 -1 -23 -59 -13 -45
-65 17 -63 33 1 34 2 34 43 0 22 -5 46 -12 53 -13 13 -50 16 -61 5z m51 -65
c-5 -15 -48 -24 -48 -10 0 14 12 22 33 22 10 0 17 -5 15 -12z"/>
<path d="M1590 3415 c0 -43 4 -75 10 -75 6 0 10 13 10 28 0 23 6 30 33 37 60
18 45 85 -19 85 l-34 0 0 -75z m70 30 c0 -20 -5 -25 -25 -25 -20 0 -25 5 -25
25 0 20 5 25 25 25 20 0 25 -5 25 -25z"/>
<path d="M1750 3463 c-17 -21 -20 -36 -16 -63 7 -42 31 -62 70 -58 43 4 42 23
-1 23 -32 0 -39 4 -47 27 -7 19 -6 35 2 54 11 22 17 26 47 22 22 -2 34 0 32 6
-2 6 -17 12 -34 14 -24 2 -36 -3 -53 -25z"/>
<path d="M1990 3480 c0 -5 5 -10 10 -10 6 0 10 5 10 10 0 6 -4 10 -10 10 -5 0
-10 -4 -10 -10z"/>
<path d="M2160 3481 c0 -6 16 -11 35 -13 l35 -3 -35 -52 c-19 -29 -35 -57 -35
-63 0 -5 22 -10 50 -10 28 0 50 5 50 10 0 6 -18 10 -40 10 l-41 0 36 52 c46
69 45 78 -10 78 -25 0 -45 -4 -45 -9z"/>
<path d="M2644 3469 c-19 -21 -19 -22 4 -15 21 7 22 5 22 -43 0 -38 -4 -51
-14 -51 -8 0 -18 -4 -21 -10 -4 -6 12 -10 42 -10 42 1 46 2 31 14 -14 10 -18
28 -18 75 0 67 -12 78 -46 40z"/>
<path d="M2800 3455 c0 -30 3 -35 24 -35 29 0 49 -22 40 -45 -5 -12 -15 -16
-40 -13 -35 4 -46 -5 -18 -16 31 -12 54 -6 70 19 21 31 12 54 -26 68 -39 15
-39 37 0 37 17 0 30 5 30 10 0 6 -18 10 -40 10 -39 0 -40 -1 -40 -35z"/>
<path d="M2926 3474 c-34 -33 -8 -81 39 -72 15 3 25 1 25 -6 0 -20 -23 -36
-53 -36 -16 0 -26 -4 -22 -10 10 -17 54 -11 75 10 40 40 19 130 -30 130 -10 0
-26 -7 -34 -16z m62 -31 c3 -19 -1 -23 -22 -23 -28 0 -41 14 -32 36 9 24 50
13 54 -13z"/>
<path d="M3047 3472 c-22 -24 -22 -95 -1 -116 39 -40 84 -7 84 63 0 26 -5 52
-12 59 -18 18 -53 15 -71 -6z m58 -57 c0 -47 -2 -50 -25 -50 -22 0 -25 5 -28
39 -4 52 3 68 30 64 20 -3 23 -9 23 -53z"/>
<path d="M3167 3483 c-13 -13 -7 -19 20 -18 41 0 40 -27 -1 -73 -20 -22 -36
-42 -36 -46 0 -3 23 -6 50 -6 28 0 50 5 50 10 0 6 -14 10 -30 10 l-31 0 26 37
c28 41 31 63 13 81 -13 13 -50 16 -61 5z"/>
<path d="M3280 3455 c0 -30 3 -35 24 -35 29 0 49 -22 40 -45 -5 -12 -15 -16
-40 -13 -35 4 -46 -5 -18 -16 28 -11 51 -6 68 13 25 27 17 53 -21 71 -41 19
-43 40 -3 40 17 0 30 5 30 10 0 6 -18 10 -40 10 -39 0 -40 -1 -40 -35z"/>
<path d="M8020 3415 c0 -43 4 -75 10 -75 6 0 10 13 10 28 0 23 6 30 33 37 60
18 45 85 -19 85 l-34 0 0 -75z m70 30 c0 -20 -5 -25 -25 -25 -20 0 -25 5 -25
25 0 20 5 25 25 25 20 0 25 -5 25 -25z"/>
<path d="M8141 3471 c-15 -27 -5 -47 30 -61 40 -17 35 -45 -9 -45 -38 0 -37
-19 2 -23 63 -8 78 54 20 81 -40 20 -41 42 0 42 33 -1 28 19 -7 23 -17 2 -29
-3 -36 -17z"/>
<path d="M8250 3415 c0 -43 4 -75 10 -75 6 0 10 32 10 75 0 43 -4 75 -10 75
-6 0 -10 -32 -10 -75z"/>
<path d="M8386 3475 c-25 -25 -31 -81 -12 -110 26 -39 86 -26 86 19 0 31 -24
50 -55 44 -28 -6 -29 -4 -15 23 6 11 21 19 35 19 14 0 25 5 25 10 0 16 -47 12
-64 -5z m54 -90 c0 -20 -5 -25 -25 -25 -14 0 -25 4 -25 9 0 5 -3 16 -6 25 -5
13 1 16 25 16 26 0 31 -4 31 -25z"/>
<path d="M8540 3455 c0 -30 3 -35 24 -35 29 0 49 -22 40 -45 -5 -12 -15 -16
-40 -13 -35 4 -46 -5 -18 -16 31 -12 54 -6 70 19 21 31 12 54 -26 68 -39 15
-39 37 0 37 17 0 30 5 30 10 0 6 -18 10 -40 10 -39 0 -40 -1 -40 -35z"/>
<path d="M8650 3480 c0 -5 18 -10 40 -10 l41 0 -15 -27 c-29 -57 -45 -103 -35
-103 9 0 69 121 69 140 0 6 -22 10 -50 10 -27 0 -50 -4 -50 -10z"/>
<path d="M8794 3469 c-19 -21 -19 -22 4 -15 21 7 22 5 22 -43 0 -38 -4 -51
-14 -51 -8 0 -18 -4 -21 -10 -4 -6 12 -10 42 -10 42 1 46 2 31 14 -14 10 -18
28 -18 75 0 67 -12 78 -46 40z"/>
<path d="M1877 3443 c-14 -14 -6 -19 23 -15 40 6 39 -14 -1 -23 -59 -13 -45
-65 17 -63 33 1 34 2 34 43 0 22 -5 46 -12 53 -13 13 -50 16 -61 5z m51 -65
c-5 -15 -48 -24 -48 -10 0 14 12 22 33 22 10 0 17 -5 15 -12z"/>
<path d="M1990 3395 c0 -30 5 -55 10 -55 6 0 10 25 10 55 0 30 -4 55 -10 55
-5 0 -10 -25 -10 -55z"/>
<path d="M2050 3393 c0 -29 5 -53 10 -53 6 0 10 18 10 41 0 32 4 42 20 46 31
8 24 22 -10 20 -29 -2 -30 -3 -30 -54z"/>
<path d="M2287 3432 c-34 -37 -11 -92 38 -92 37 0 39 18 3 22 -49 5 -48 28 1
28 45 0 54 16 25 44 -21 21 -47 20 -67 -2z m58 -12 c4 -6 -7 -10 -25 -10 -18
0 -29 4 -25 10 3 6 15 10 25 10 10 0 22 -4 25 -10z"/>
<path d="M2400 3393 c0 -63 17 -72 22 -10 2 35 7 43 26 45 20 3 22 -1 22 -42
0 -25 5 -46 10 -46 15 0 12 86 -3 98 -7 6 -27 10 -45 10 -32 -1 -32 -1 -32
-55z"/>
<path d="M1680 3355 c0 -8 5 -15 10 -15 6 0 10 7 10 15 0 8 -4 15 -10 15 -5 0
-10 -7 -10 -15z"/>
<path d="M2110 3355 c0 -8 5 -15 10 -15 6 0 10 7 10 15 0 8 -4 15 -10 15 -5 0
-10 -7 -10 -15z"/>
<path d="M2530 3355 c0 -8 5 -15 10 -15 6 0 10 7 10 15 0 8 -4 15 -10 15 -5 0
-10 -7 -10 -15z"/>
<path d="M1877 3193 c-13 -13 -7 -19 20 -18 41 0 40 -27 -1 -73 -20 -22 -36
-42 -36 -46 0 -3 23 -6 50 -6 28 0 50 5 50 10 0 6 -13 10 -30 10 -36 0 -37 3
-5 38 27 29 32 61 13 80 -13 13 -50 16 -61 5z"/>
<path d="M1990 3165 c0 -30 3 -35 24 -35 29 0 49 -22 40 -45 -5 -12 -15 -16
-40 -13 -35 4 -46 -5 -18 -16 28 -11 51 -6 68 13 25 27 17 53 -21 71 -41 19
-43 40 -3 40 17 0 30 5 30 10 0 6 -18 10 -40 10 -39 0 -40 -1 -40 -35z"/>
<path d="M2123 3194 c-16 -7 -17 -50 -2 -59 7 -5 4 -14 -7 -27 -14 -14 -16
-23 -8 -36 13 -21 60 -28 80 -11 19 15 18 48 -1 56 -14 5 -14 8 2 25 13 15 15
23 7 36 -11 17 -48 25 -71 16z m55 -31 c2 -7 -4 -16 -12 -19 -19 -7 -49 14
-40 28 8 13 46 6 52 -9z m-10 -55 c21 -21 13 -38 -18 -38 -18 0 -30 5 -30 13
0 13 19 37 30 37 3 0 11 -5 18 -12z"/>
<path d="M2307 3193 c-13 -13 -7 -19 20 -18 41 0 40 -27 -1 -73 -20 -22 -36
-42 -36 -46 0 -3 23 -6 50 -6 28 0 50 5 50 10 0 6 -17 10 -37 10 l-38 0 27 25
c33 31 45 70 28 90 -13 15 -51 20 -63 8z"/>
<path d="M2420 3165 c0 -30 3 -35 24 -35 29 0 49 -22 40 -45 -5 -12 -15 -16
-40 -13 -35 4 -46 -5 -18 -16 28 -11 51 -6 68 13 25 27 17 53 -21 71 -41 19
-43 40 -3 40 17 0 30 5 30 10 0 6 -18 10 -40 10 -39 0 -40 -1 -40 -35z"/>
<path d="M2556 3185 c-25 -25 -31 -81 -12 -110 28 -43 86 -26 86 25 0 23 -5
31 -25 36 -14 3 -31 4 -39 1 -12 -5 -13 -1 -7 16 5 14 18 23 35 25 14 2 26 8
26 13 0 15 -47 10 -64 -6z m54 -90 c0 -20 -5 -25 -24 -25 -24 0 -41 23 -30 41
3 5 16 9 30 9 19 0 24 -5 24 -25z"/>
<path d="M2730 3125 l0 -75 31 0 c17 0 39 5 50 10 20 11 26 45 9 55 -6 3 -7
17 -4 31 8 33 -12 54 -52 54 l-34 0 0 -75z m70 35 c0 -15 -7 -20 -25 -20 -18
0 -25 5 -25 20 0 15 7 20 25 20 18 0 25 -5 25 -20z m5 -65 c0 -14 -8 -21 -27
-23 -24 -3 -28 0 -28 23 0 23 4 26 28 23 19 -2 27 -9 27 -23z"/>
<path d="M2870 3173 c-17 -21 -20 -36 -16 -63 7 -42 31 -62 70 -58 43 4 42 23
-1 23 -30 0 -38 4 -45 26 -5 16 -5 37 2 54 9 24 15 27 45 23 22 -2 34 0 32 6
-2 6 -17 12 -34 14 -24 2 -36 -3 -53 -25z"/>
<path d="M2990 3125 l0 -75 46 0 c27 0 43 4 39 10 -3 6 -19 10 -36 10 -24 0
-29 4 -29 25 0 21 5 25 31 25 17 0 28 4 24 10 -3 6 -17 10 -31 10 -17 0 -24 5
-24 20 0 16 7 20 30 20 17 0 30 5 30 10 0 6 -18 10 -40 10 l-40 0 0 -75z"/>
<path d="M7847 3193 c-13 -13 -7 -19 20 -18 41 0 40 -27 -1 -73 -20 -22 -36
-42 -36 -46 0 -3 23 -6 50 -6 28 0 50 5 50 10 0 6 -13 10 -30 10 -36 0 -37 2
-5 36 27 29 32 63 13 82 -13 13 -50 16 -61 5z"/>
<path d="M7960 3165 c0 -30 3 -35 24 -35 29 0 49 -22 40 -45 -5 -12 -15 -16
-40 -13 -35 4 -46 -5 -18 -16 28 -11 51 -6 68 13 25 27 17 53 -21 71 -41 19
-43 40 -3 40 17 0 30 5 30 10 0 6 -18 10 -40 10 -39 0 -40 -1 -40 -35z"/>
<path d="M8087 3193 c-13 -13 -7 -19 20 -18 41 0 40 -27 -1 -73 -20 -22 -36
-42 -36 -46 0 -3 23 -6 50 -6 28 0 50 5 50 10 0 6 -13 10 -30 10 -36 0 -37 2
-5 36 27 29 32 63 13 82 -13 13 -50 16 -61 5z"/>
<path d="M8277 3193 c-13 -13 -7 -19 20 -18 41 0 40 -27 -1 -73 -20 -22 -36
-42 -36 -46 0 -3 23 -6 50 -6 28 0 50 5 50 10 0 6 -17 10 -37 10 l-37 0 32 33
c33 34 40 65 20 85 -13 13 -50 16 -61 5z"/>
<path d="M8390 3165 c0 -30 3 -35 24 -35 29 0 49 -22 40 -45 -5 -12 -15 -16
-40 -13 -35 4 -46 -5 -18 -16 28 -11 51 -6 68 13 25 27 17 53 -21 71 -41 19
-43 40 -3 40 17 0 30 5 30 10 0 6 -18 10 -40 10 -39 0 -40 -1 -40 -35z"/>
<path d="M8524 3179 c-19 -21 -19 -22 4 -15 21 7 22 5 22 -43 0 -38 -4 -51
-14 -51 -8 0 -18 -4 -21 -10 -4 -6 12 -10 42 -10 42 1 46 2 31 14 -14 10 -18
28 -18 75 0 67 -12 78 -46 40z"/>
<path d="M8700 3125 l0 -75 31 0 c17 0 39 5 50 10 20 11 26 45 9 55 -6 3 -7
17 -4 31 8 33 -12 54 -52 54 l-34 0 0 -75z m70 35 c0 -15 -7 -20 -25 -20 -18
0 -25 5 -25 20 0 15 7 20 25 20 18 0 25 -5 25 -20z m5 -65 c0 -14 -8 -21 -27
-23 -24 -3 -28 0 -28 23 0 23 4 26 28 23 19 -2 27 -9 27 -23z"/>
<path d="M8840 3173 c-17 -21 -20 -36 -16 -63 7 -42 31 -62 70 -58 43 4 42 23
-1 23 -31 0 -38 4 -46 28 -6 20 -6 37 2 54 10 21 17 24 46 21 22 -2 34 0 32 6
-2 6 -17 12 -34 14 -24 2 -36 -3 -53 -25z"/>
<path d="M8960 3125 l0 -75 40 0 c22 0 40 5 40 10 0 6 -13 10 -30 10 -25 0
-30 4 -30 25 0 20 5 25 25 25 14 0 25 5 25 10 0 6 -11 10 -25 10 -18 0 -25 5
-25 20 0 16 7 20 30 20 17 0 30 5 30 10 0 6 -18 10 -40 10 l-40 0 0 -75z"/>
<path d="M2220 3110 c0 -5 11 -10 25 -10 14 0 25 5 25 10 0 6 -11 10 -25 10
-14 0 -25 -4 -25 -10z"/>
<path d="M8190 3110 c0 -5 14 -10 31 -10 17 0 28 4 24 10 -3 6 -17 10 -31 10
-13 0 -24 -4 -24 -10z"/>
<path d="M2214 2729 c-19 -21 -19 -22 4 -15 21 7 22 5 22 -43 0 -38 -4 -51
-14 -51 -8 0 -18 -4 -21 -10 -4 -6 12 -10 42 -10 42 1 46 2 31 14 -14 10 -18
28 -18 75 0 67 -12 78 -46 40z"/>
<path d="M2327 2732 c-22 -24 -22 -95 -1 -116 37 -38 84 -7 84 55 0 22 -5 49
-10 60 -13 24 -52 25 -73 1z m58 -57 c0 -47 -2 -50 -25 -50 -22 0 -25 5 -28
39 -4 52 3 68 30 64 20 -3 23 -9 23 -53z"/>
<path d="M8084 2729 c-19 -21 -19 -22 4 -15 21 7 22 5 22 -43 0 -38 -4 -51
-14 -51 -8 0 -18 -4 -21 -10 -4 -6 12 -10 42 -10 42 1 46 2 31 14 -14 10 -18
28 -18 75 0 67 -12 78 -46 40z"/>
<path d="M8206 2735 c-25 -25 -31 -81 -12 -110 26 -39 86 -26 86 19 0 31 -24
50 -55 44 -28 -6 -29 -4 -15 23 7 12 21 19 41 19 18 0 28 4 24 10 -9 15 -52
12 -69 -5z m54 -90 c0 -20 -5 -25 -24 -25 -24 0 -41 23 -30 41 3 5 16 9 30 9
19 0 24 -5 24 -25z"/>
<path d="M8383 2744 c-16 -7 -17 -50 -2 -59 7 -5 4 -14 -7 -27 -14 -14 -16
-23 -8 -36 13 -21 60 -28 80 -11 19 15 18 48 -1 56 -14 5 -14 8 2 25 13 15 15
23 7 36 -11 17 -48 25 -71 16z m52 -34 c0 -22 -39 -19 -43 3 -3 15 1 18 20 15
12 -2 23 -10 23 -18z m-7 -52 c20 -20 14 -38 -12 -38 -30 0 -42 16 -26 35 15
18 22 19 38 3z"/>
<path d="M2506 2694 c-32 -32 -10 -94 34 -94 31 0 33 18 3 22 -24 3 -28 8 -28
33 0 25 4 30 28 33 15 2 25 8 22 13 -9 14 -42 11 -59 -7z"/>
<path d="M2600 2653 c0 -63 17 -72 22 -10 2 34 7 42 23 42 16 0 21 -9 26 -45
7 -50 10 -51 13 -2 5 68 56 71 56 2 0 -22 4 -40 9 -40 10 0 7 83 -4 100 -8 13
-42 13 -50 0 -5 -7 -11 -8 -19 -1 -6 5 -26 9 -44 9 -32 -1 -32 -1 -32 -55z"/>
<path d="M8556 2694 c-32 -32 -10 -94 34 -94 31 0 33 18 3 22 -24 3 -28 8 -28
33 0 25 4 30 28 33 15 2 25 8 22 13 -9 14 -42 11 -59 -7z"/>
<path d="M8650 2653 c0 -63 18 -71 22 -10 2 34 7 42 23 42 16 0 21 -8 25 -45
5 -42 6 -43 13 -17 4 15 5 32 2 36 -8 13 23 34 40 27 10 -3 15 -19 15 -48 0
-29 3 -38 9 -29 8 13 6 59 -4 89 -5 15 -41 16 -50 2 -5 -8 -11 -8 -19 -1 -7 6
-27 9 -44 8 -32 -2 -32 -3 -32 -54z"/>
<path d="M8310 2615 c0 -8 5 -15 10 -15 6 0 10 7 10 15 0 8 -4 15 -10 15 -5 0
-10 -7 -10 -15z"/>
<path d="M190 1645 l0 -825 5415 0 5415 0 0 825 0 825 -5415 0 -5415 0 0 -825z
m10800 0 l0 -795 -5385 0 -5385 0 0 795 0 795 5385 0 5385 0 0 -795z"/>
<path d="M327 1633 c-15 -30 -11 -133 4 -133 5 0 9 20 9 45 0 41 2 45 25 45
23 0 25 -4 25 -45 0 -25 5 -45 10 -45 6 0 10 25 10 55 l0 55 -35 0 c-24 0 -35
5 -35 15 0 8 7 15 15 15 8 0 15 5 15 10 0 21 -30 9 -43 -17z"/>
<path d="M450 1582 l0 -79 34 -1 c41 -2 59 17 59 59 0 35 -18 51 -50 46 -19
-4 -23 0 -23 24 0 16 -4 29 -10 29 -6 0 -10 -33 -10 -78z m72 -9 c7 -33 -4
-54 -26 -51 -37 5 -34 68 3 68 11 0 21 -8 23 -17z"/>
<path d="M1070 1655 c0 -5 14 -24 32 -42 l32 -33 -77 0 c-45 0 -77 -4 -77 -10
0 -6 32 -10 77 -10 l77 0 -34 -35 c-18 -19 -31 -37 -29 -40 3 -2 25 16 49 40
l44 45 -47 48 c-26 25 -47 43 -47 37z"/>
<path d="M390 1640 c0 -5 5 -10 10 -10 6 0 10 5 10 10 0 6 -4 10 -10 10 -5 0
-10 -4 -10 -10z"/>
<path d="M2857 1643 c-15 -14 -6 -19 24 -15 26 4 30 2 27 -14 -2 -11 -13 -20
-26 -22 -27 -4 -30 -22 -3 -22 24 0 42 -22 32 -39 -6 -9 -20 -12 -40 -9 -35 5
-42 -7 -10 -17 53 -17 98 28 64 65 -11 12 -13 20 -6 25 16 10 13 42 -5 49 -21
8 -49 8 -57 -1z"/>
<path d="M2984 1629 c-19 -21 -19 -22 4 -15 21 7 22 5 22 -43 0 -38 -4 -51
-14 -51 -8 0 -18 -4 -21 -10 -4 -6 12 -10 42 -10 42 1 46 2 31 14 -14 10 -18
28 -18 75 0 67 -12 78 -46 40z"/>
<path d="M3150 1615 c0 -30 3 -35 24 -35 29 0 49 -22 40 -45 -5 -12 -15 -16
-40 -13 -35 4 -46 -5 -18 -16 31 -12 54 -6 70 19 21 31 12 54 -26 68 -39 15
-39 37 0 37 17 0 30 5 30 10 0 6 -18 10 -40 10 -39 0 -40 -1 -40 -35z"/>
<path d="M7147 1643 c-13 -13 -7 -19 20 -18 41 0 40 -27 -1 -73 -20 -22 -36
-42 -36 -46 0 -3 23 -6 50 -6 28 0 50 5 50 10 0 6 -14 10 -30 10 l-31 0 26 37
c28 41 31 63 13 81 -13 13 -50 16 -61 5z"/>
<path d="M7273 1644 c-16 -7 -17 -50 -2 -59 7 -5 4 -14 -7 -27 -14 -14 -16
-23 -8 -36 13 -21 60 -28 80 -11 19 15 18 48 -1 56 -14 5 -14 8 2 25 13 15 15
23 7 36 -11 17 -48 25 -71 16z m52 -34 c0 -8 -10 -16 -22 -18 -18 -3 -23 2
-23 18 0 16 5 21 23 18 12 -2 22 -10 22 -18z m-7 -52 c20 -20 14 -38 -12 -38
-30 0 -42 16 -26 35 15 18 22 19 38 3z"/>
<path d="M7446 1634 c-34 -33 -8 -81 39 -72 15 3 25 1 25 -6 0 -20 -23 -36
-53 -36 -16 0 -26 -4 -22 -10 9 -14 48 -12 69 3 26 19 33 98 11 120 -21 21
-49 22 -69 1z m62 -31 c3 -20 -1 -23 -27 -23 -23 0 -31 5 -31 18 0 25 10 33
35 30 12 -2 21 -12 23 -25z"/>
<path d="M580 1553 c0 -29 5 -53 10 -53 6 0 10 18 10 41 0 32 4 42 20 46 31 8
24 22 -10 20 -29 -2 -30 -3 -30 -54z"/>
<path d="M667 1592 c-34 -37 -11 -92 38 -92 37 0 39 18 3 22 -49 5 -48 28 1
28 45 0 54 16 25 44 -21 21 -47 20 -67 -2z m58 -12 c4 -6 -7 -10 -25 -10 -18
0 -29 4 -25 10 3 6 15 10 25 10 10 0 22 -4 25 -10z"/>
<path d="M782 1598 c-18 -18 -15 -27 20 -48 26 -16 29 -20 15 -26 -9 -3 -24
-3 -33 0 -10 4 -14 1 -12 -6 3 -7 18 -13 34 -13 40 0 47 39 10 57 -33 14 -33
28 -1 28 14 0 25 5 25 10 0 14 -43 13 -58 -2z"/>
<path d="M3336 1594 c-32 -32 -10 -94 34 -94 31 0 33 18 3 22 -24 3 -28 8 -28
33 0 25 4 30 28 33 15 2 25 8 22 13 -9 14 -42 11 -59 -7z"/>
<path d="M3430 1553 c0 -63 18 -71 22 -10 2 34 7 42 23 42 16 0 21 -9 26 -45
7 -53 15 -44 18 21 1 26 5 30 24 27 18 -2 23 -10 25 -45 2 -24 7 -43 11 -43 9
0 6 83 -3 99 -9 14 -43 14 -51 1 -5 -8 -11 -8 -19 -1 -7 6 -27 9 -44 8 -32 -2
-32 -3 -32 -54z"/>
<path d="M7626 1594 c-32 -32 -10 -94 34 -94 31 0 33 18 3 22 -24 3 -28 8 -28
33 0 25 4 30 28 33 15 2 25 8 22 13 -9 14 -42 11 -59 -7z"/>
<path d="M7720 1553 c0 -63 18 -71 22 -10 2 34 7 42 23 42 16 0 21 -8 23 -42
4 -52 17 -57 19 -7 2 72 52 74 54 2 1 -39 2 -40 8 -13 14 63 -11 101 -50 77
-11 -7 -20 -8 -24 -2 -3 6 -22 9 -41 7 l-34 -2 0 -52z"/>
<path d="M3090 1515 c0 -8 5 -15 10 -15 6 0 10 7 10 15 0 8 -4 15 -10 15 -5 0
-10 -7 -10 -15z"/>
<path d="M7380 1515 c0 -8 5 -15 10 -15 6 0 10 7 10 15 0 8 -4 15 -10 15 -5 0
-10 -7 -10 -15z"/>
<path d="M3967 1063 c-31 -89 -38 -117 -21 -101 5 6 74 186 74 194 0 2 -4 4
-9 4 -5 0 -24 -44 -44 -97z"/>
<path d="M6690 1156 c0 -2 -16 -47 -35 -100 -19 -53 -31 -96 -26 -96 7 0 81
178 81 195 0 3 -4 5 -10 5 -5 0 -10 -2 -10 -4z"/>
<path d="M3680 1121 c0 -24 -3 -28 -23 -24 -44 9 -71 -42 -47 -87 8 -14 20
-19 50 -17 l40 1 0 78 c0 45 -4 78 -10 78 -5 0 -10 -13 -10 -29z m-5 -76 c0
-25 -4 -30 -25 -30 -16 0 -26 6 -28 18 -6 30 6 49 30 45 18 -2 23 -9 23 -33z"/>
<path d="M3820 1070 c0 -83 17 -112 22 -37 2 35 7 43 26 45 20 3 22 -1 22 -42
0 -25 5 -46 10 -46 6 0 10 20 10 44 0 48 -18 71 -50 63 -17 -4 -20 0 -20 24 0
16 -4 29 -10 29 -6 0 -10 -33 -10 -80z"/>
<path d="M4040 1070 c0 -83 17 -112 22 -37 2 35 7 43 26 45 20 3 22 -1 22 -42
0 -25 5 -46 10 -46 6 0 10 20 10 44 0 48 -18 71 -50 63 -17 -4 -20 0 -20 24 0
16 -4 29 -10 29 -6 0 -10 -33 -10 -80z"/>
<path d="M4460 1070 c0 -83 17 -112 22 -37 2 35 7 43 26 45 20 3 22 -1 22 -42
0 -25 5 -46 10 -46 6 0 10 20 10 44 0 48 -18 71 -50 63 -17 -4 -20 0 -20 24 0
16 -4 29 -10 29 -6 0 -10 -33 -10 -80z"/>
<path d="M6370 1121 c0 -24 -3 -28 -23 -24 -44 9 -71 -42 -47 -87 8 -14 20
-19 50 -17 l40 1 0 78 c0 45 -4 78 -10 78 -5 0 -10 -13 -10 -29z m-5 -76 c0
-21 -5 -31 -19 -33 -26 -5 -40 12 -32 43 5 20 12 26 29 23 17 -2 22 -10 22
-33z"/>
<path d="M6510 1070 c0 -83 17 -112 22 -37 2 35 7 43 26 45 20 3 22 -1 22 -42
0 -25 5 -46 10 -46 6 0 10 20 10 44 0 48 -18 71 -50 63 -17 -4 -20 0 -20 24 0
16 -4 29 -10 29 -6 0 -10 -33 -10 -80z"/>
<path d="M6730 1070 c0 -83 17 -112 22 -37 2 35 7 43 26 45 20 3 22 -1 22 -42
0 -25 5 -46 10 -46 6 0 10 20 10 44 0 48 -18 71 -50 63 -17 -4 -20 0 -20 24 0
16 -4 29 -10 29 -6 0 -10 -33 -10 -80z"/>
<path d="M7150 1070 c0 -83 17 -112 22 -37 2 35 7 43 26 45 20 3 22 -1 22 -42
0 -25 5 -46 10 -46 6 0 10 20 10 44 0 48 -18 71 -50 63 -17 -4 -20 0 -20 24 0
16 -4 29 -10 29 -6 0 -10 -33 -10 -80z"/>
<path d="M3150 1130 c0 -5 5 -10 10 -10 6 0 10 5 10 10 0 6 -4 10 -10 10 -5 0
-10 -4 -10 -10z"/>
<path d="M3550 1130 c0 -5 5 -10 10 -10 6 0 10 5 10 10 0 6 -4 10 -10 10 -5 0
-10 -4 -10 -10z"/>
<path d="M4290 1130 c0 -5 5 -10 10 -10 6 0 10 5 10 10 0 6 -4 10 -10 10 -5 0
-10 -4 -10 -10z"/>
<path d="M4777 1122 c-22 -24 -22 -95 -1 -116 37 -38 84 -7 84 55 0 22 -5 49
-10 60 -13 24 -52 25 -73 1z m58 -57 c0 -47 -2 -50 -25 -50 -22 0 -25 5 -28
39 -4 52 3 68 30 64 20 -3 23 -9 23 -53z"/>
<path d="M4957 1133 c-15 -14 -6 -19 24 -15 26 4 30 2 27 -14 -2 -11 -13 -20
-26 -22 -27 -4 -30 -22 -3 -22 24 0 42 -22 32 -39 -6 -9 -20 -12 -40 -9 -35 5
-42 -7 -10 -17 28 -9 66 2 73 21 4 9 0 27 -9 40 -9 14 -11 25 -5 29 16 10 12
42 -6 49 -21 8 -49 8 -57 -1z"/>
<path d="M5077 1133 c-13 -13 -7 -19 20 -18 41 0 40 -27 -1 -73 -20 -22 -36
-42 -36 -46 0 -3 23 -6 50 -6 54 0 69 17 19 22 l-31 3 26 30 c28 32 33 64 14
83 -13 13 -50 16 -61 5z"/>
<path d="M5840 1130 c0 -5 5 -10 10 -10 6 0 10 5 10 10 0 6 -4 10 -10 10 -5 0
-10 -4 -10 -10z"/>
<path d="M6240 1130 c0 -5 5 -10 10 -10 6 0 10 5 10 10 0 6 -4 10 -10 10 -5 0
-10 -4 -10 -10z"/>
<path d="M6980 1130 c0 -5 5 -10 10 -10 6 0 10 5 10 10 0 6 -4 10 -10 10 -5 0
-10 -4 -10 -10z"/>
<path d="M7467 1122 c-22 -24 -22 -95 -1 -116 37 -38 84 -7 84 55 0 22 -5 49
-10 60 -13 24 -52 25 -73 1z m58 -57 c0 -47 -2 -50 -25 -50 -20 0 -26 6 -28
29 -6 49 6 78 31 74 19 -3 22 -9 22 -53z"/>
<path d="M7640 1105 c0 -30 3 -35 24 -35 29 0 49 -22 40 -45 -5 -12 -15 -16
-40 -13 -35 4 -46 -5 -18 -16 28 -11 51 -6 68 13 25 27 17 53 -21 71 -41 19
-43 40 -3 40 17 0 30 5 30 10 0 6 -18 10 -40 10 -39 0 -40 -1 -40 -35z"/>
<path d="M7773 1133 c-16 -6 -17 -49 -2 -58 7 -5 4 -14 -7 -27 -14 -14 -16
-23 -8 -36 13 -21 60 -28 80 -11 18 15 18 48 -1 55 -12 5 -12 9 2 30 12 19 13
27 3 39 -12 15 -43 18 -67 8z m52 -33 c0 -8 -10 -16 -22 -18 -18 -3 -23 2 -23
18 0 16 5 21 23 18 12 -2 22 -10 22 -18z m-7 -52 c21 -21 13 -38 -18 -38 -18
0 -30 5 -30 13 0 13 19 37 30 37 3 0 11 -5 18 -12z"/>
<path d="M3070 1115 c0 -8 -5 -15 -12 -15 -9 0 -9 -3 0 -12 7 -7 12 -24 12
-39 0 -15 3 -34 6 -43 7 -17 44 -22 44 -6 0 6 -7 10 -15 10 -10 0 -15 11 -15
35 0 24 5 35 15 35 8 0 15 5 15 10 0 6 -7 10 -15 10 -8 0 -15 7 -15 15 0 8 -4
15 -10 15 -5 0 -10 -7 -10 -15z"/>
<path d="M3740 1115 c0 -8 -5 -15 -12 -15 -9 0 -9 -3 0 -12 7 -7 12 -24 12
-39 0 -15 3 -34 6 -43 7 -17 44 -22 44 -6 0 6 -7 10 -15 10 -10 0 -15 11 -15
35 0 24 5 35 15 35 8 0 15 5 15 10 0 6 -7 10 -15 10 -8 0 -15 7 -15 15 0 8 -4
15 -10 15 -5 0 -10 -7 -10 -15z"/>
<path d="M4590 1115 c0 -8 -5 -15 -12 -15 -9 0 -9 -3 0 -12 7 -7 12 -24 12
-39 0 -15 3 -34 6 -43 7 -17 44 -22 44 -6 0 6 -7 10 -15 10 -10 0 -15 11 -15
35 0 24 5 35 15 35 8 0 15 5 15 10 0 6 -7 10 -15 10 -8 0 -15 7 -15 15 0 8 -4
15 -10 15 -5 0 -10 -7 -10 -15z"/>
<path d="M5760 1115 c0 -8 -5 -15 -12 -15 -9 0 -9 -3 0 -12 7 -7 12 -24 12
-39 0 -15 3 -34 6 -43 7 -17 44 -22 44 -6 0 6 -7 10 -15 10 -10 0 -15 11 -15
35 0 24 5 35 15 35 8 0 15 5 15 10 0 6 -7 10 -15 10 -8 0 -15 7 -15 15 0 8 -4
15 -10 15 -5 0 -10 -7 -10 -15z"/>
<path d="M6430 1115 c0 -8 -5 -15 -12 -15 -9 0 -9 -3 0 -12 7 -7 12 -24 12
-39 0 -15 3 -34 6 -43 7 -17 44 -22 44 -6 0 6 -7 10 -15 10 -10 0 -15 11 -15
35 0 24 5 35 15 35 8 0 15 5 15 10 0 6 -7 10 -15 10 -8 0 -15 7 -15 15 0 8 -4
15 -10 15 -5 0 -10 -7 -10 -15z"/>
<path d="M7280 1115 c0 -8 -5 -15 -12 -15 -9 0 -9 -3 0 -12 7 -7 12 -24 12
-39 0 -15 3 -34 6 -43 7 -17 44 -22 44 -6 0 6 -7 10 -15 10 -10 0 -15 11 -15
35 0 24 5 35 15 35 8 0 15 5 15 10 0 6 -7 10 -15 10 -8 0 -15 7 -15 15 0 8 -4
15 -10 15 -5 0 -10 -7 -10 -15z"/>
<path d="M2870 1043 c0 -29 5 -53 10 -53 6 0 10 18 10 41 0 32 4 42 20 46 31
8 24 22 -10 20 -29 -2 -30 -3 -30 -54z"/>
<path d="M2957 1093 c-14 -14 -6 -19 23 -15 40 6 39 -14 -1 -23 -59 -13 -45
-65 17 -63 33 1 34 2 34 43 0 22 -5 46 -12 53 -13 13 -50 16 -61 5z m51 -65
c-5 -15 -48 -24 -48 -10 0 14 12 22 33 22 10 0 17 -5 15 -12z"/>
<path d="M3150 1045 c0 -30 5 -55 10 -55 6 0 10 25 10 55 0 30 -4 55 -10 55
-5 0 -10 -25 -10 -55z"/>
<path d="M3217 1082 c-35 -39 -8 -96 42 -90 17 2 30 13 39 31 12 24 11 31 -2
53 -20 29 -56 32 -79 6z m68 -21 c10 -31 -5 -52 -34 -49 -26 3 -38 26 -27 54
8 21 53 18 61 -5z"/>
<path d="M3370 1092 c0 -5 7 -29 16 -55 17 -49 31 -59 40 -29 18 56 21 58 31
22 5 -19 15 -35 23 -35 13 0 38 55 39 88 2 30 -18 9 -25 -28 -8 -42 -21 -37
-30 11 -8 44 -24 39 -39 -12 l-12 -39 -13 43 c-11 37 -30 58 -30 34z"/>
<path d="M3550 1045 c0 -30 5 -55 10 -55 6 0 10 25 10 55 0 30 -4 55 -10 55
-5 0 -10 -25 -10 -55z"/>
<path d="M4177 1082 c-34 -37 -11 -92 38 -92 37 0 39 18 3 22 -49 5 -48 28 1
28 45 0 54 16 25 44 -21 21 -47 20 -67 -2z m58 -12 c4 -6 -7 -10 -25 -10 -18
0 -29 4 -25 10 3 6 15 10 25 10 10 0 22 -4 25 -10z"/>
<path d="M4290 1045 c0 -30 5 -55 10 -55 6 0 10 25 10 55 0 30 -4 55 -10 55
-5 0 -10 -25 -10 -55z"/>
<path d="M4352 1083 c-5 -10 -8 -43 -8 -73 1 -54 2 -55 32 -58 39 -4 71 23 53
44 -6 8 -26 14 -43 15 l-31 1 33 9 c24 7 32 15 32 32 0 13 5 28 12 35 9 9 3
12 -30 12 -29 0 -44 -5 -50 -17z m53 -23 c0 -22 -39 -19 -43 3 -3 15 1 18 20
15 12 -2 23 -10 23 -18z m10 -80 c-3 -5 -17 -10 -31 -10 -13 0 -24 5 -24 10 0
6 14 10 31 10 17 0 28 -4 24 -10z"/>
<path d="M4670 1086 c0 -9 7 -16 16 -16 9 0 14 5 12 12 -6 18 -28 21 -28 4z"/>
<path d="M5560 1043 c0 -29 5 -53 10 -53 6 0 10 18 10 41 0 32 4 42 20 46 30
8 24 22 -10 21 -29 -1 -30 -2 -30 -55z"/>
<path d="M5647 1093 c-14 -14 -6 -19 23 -15 40 6 39 -14 -1 -23 -59 -13 -45
-65 17 -63 33 1 34 2 34 43 0 22 -5 46 -12 53 -13 13 -50 16 -61 5z m51 -65
c-5 -15 -48 -24 -48 -10 0 14 12 22 33 22 10 0 17 -5 15 -12z"/>
<path d="M5840 1045 c0 -30 5 -55 10 -55 6 0 10 25 10 55 0 30 -4 55 -10 55
-5 0 -10 -25 -10 -55z"/>
<path d="M5907 1082 c-34 -37 -11 -92 37 -92 29 0 49 22 49 55 0 52 -53 74
-86 37z m68 -21 c10 -31 -5 -52 -34 -49 -26 3 -38 26 -27 54 8 21 53 18 61 -5z"/>
<path d="M6060 1092 c0 -5 7 -29 16 -55 17 -49 44 -64 44 -24 0 12 4 28 9 36
7 11 12 6 18 -20 13 -49 33 -42 54 19 13 37 14 52 6 49 -6 -2 -17 -21 -23 -42
-11 -42 -18 -39 -29 13 -9 42 -25 37 -40 -14 l-12 -39 -13 43 c-11 37 -30 58
-30 34z"/>
<path d="M6240 1045 c0 -30 5 -55 10 -55 6 0 10 25 10 55 0 30 -4 55 -10 55
-5 0 -10 -25 -10 -55z"/>
<path d="M6867 1082 c-34 -37 -11 -92 38 -92 37 0 39 18 3 22 -49 5 -48 28 1
28 45 0 54 16 25 44 -21 21 -47 20 -67 -2z m58 -12 c4 -6 -7 -10 -25 -10 -18
0 -29 4 -25 10 3 6 15 10 25 10 10 0 22 -4 25 -10z"/>
<path d="M6980 1045 c0 -30 5 -55 10 -55 6 0 10 25 10 55 0 30 -4 55 -10 55
-5 0 -10 -25 -10 -55z"/>
<path d="M7042 1083 c-5 -10 -8 -43 -8 -73 1 -59 11 -68 62 -56 19 5 25 12 22
29 -2 17 -12 23 -38 27 l-35 6 33 7 c25 5 32 12 32 30 0 13 5 28 12 35 9 9 3
12 -30 12 -29 0 -44 -5 -50 -17z m53 -23 c0 -22 -39 -19 -43 3 -3 15 1 18 20
15 12 -2 23 -10 23 -18z m10 -80 c-3 -5 -17 -10 -31 -10 -13 0 -24 5 -24 10 0
6 14 10 31 10 17 0 28 -4 24 -10z"/>
<path d="M7360 1085 c0 -9 5 -15 11 -13 6 2 11 8 11 13 0 5 -5 11 -11 13 -6 2
-11 -4 -11 -13z"/>
<path d="M4670 1005 c0 -9 5 -15 11 -13 6 2 11 8 11 13 0 5 -5 11 -11 13 -6 2
-11 -4 -11 -13z"/>
<path d="M4890 1005 c0 -8 5 -15 10 -15 6 0 10 7 10 15 0 8 -4 15 -10 15 -5 0
-10 -7 -10 -15z"/>
<path d="M7360 1005 c0 -9 5 -15 11 -13 6 2 11 8 11 13 0 5 -5 11 -11 13 -6 2
-11 -4 -11 -13z"/>
<path d="M7580 1005 c0 -8 5 -15 10 -15 6 0 10 7 10 15 0 8 -4 15 -10 15 -5 0
-10 -7 -10 -15z"/>
<path d="M7170 280 c0 -47 4 -80 10 -80 6 0 10 33 10 80 0 47 -4 80 -10 80 -6
0 -10 -33 -10 -80z"/>
<path d="M7550 331 c0 -24 -3 -28 -23 -24 -44 9 -71 -42 -47 -87 8 -14 20 -19
50 -17 l40 1 0 78 c0 45 -4 78 -10 78 -5 0 -10 -13 -10 -29z m-5 -76 c0 -21
-5 -31 -19 -33 -26 -5 -40 12 -32 43 5 20 12 26 29 23 17 -2 22 -10 22 -33z"/>
<path d="M8157 333 c-15 -30 -11 -133 4 -133 5 0 9 20 9 45 0 33 4 45 15 45 8
0 15 5 15 10 0 6 -7 10 -15 10 -8 0 -15 7 -15 15 0 8 9 15 21 15 11 0 17 5 14
10 -11 19 -34 10 -48 -17z"/>
<path d="M10460 331 c0 -24 -3 -28 -23 -24 -44 9 -71 -42 -47 -87 8 -14 20
-19 50 -17 l40 1 0 78 c0 45 -4 78 -10 78 -5 0 -10 -13 -10 -29z m-5 -76 c0
-21 -5 -31 -19 -33 -26 -5 -40 12 -32 43 5 20 12 26 29 23 17 -2 22 -10 22
-33z"/>
<path d="M8681 331 c-15 -27 -5 -47 30 -61 40 -17 35 -45 -9 -45 -38 0 -37
-19 2 -23 58 -7 80 56 27 78 -16 6 -32 18 -35 26 -7 17 17 29 40 20 10 -4 14
-1 12 6 -8 22 -55 21 -67 -1z"/>
<path d="M9070 340 c0 -5 5 -10 10 -10 6 0 10 5 10 10 0 6 -4 10 -10 10 -5 0
-10 -4 -10 -10z"/>
<path d="M9187 343 c-13 -13 -7 -19 20 -18 41 0 40 -27 -1 -73 -20 -22 -36
-42 -36 -46 0 -3 23 -6 50 -6 28 0 50 5 50 10 0 6 -15 10 -34 10 l-34 0 29 31
c30 33 37 67 17 87 -13 13 -50 16 -61 5z"/>
<path d="M9307 332 c-22 -24 -22 -95 -1 -116 20 -20 48 -20 68 0 18 18 21 85
6 115 -13 24 -52 25 -73 1z m58 -57 c0 -47 -2 -50 -25 -50 -20 0 -26 6 -28 29
-6 49 6 78 31 74 19 -3 22 -9 22 -53z"/>
<path d="M9434 329 c-19 -21 -19 -22 4 -15 21 7 22 5 22 -43 0 -38 -4 -51 -14
-51 -8 0 -18 -4 -21 -10 -4 -6 12 -10 42 -10 42 1 46 2 31 14 -14 10 -18 28
-18 75 0 67 -12 78 -46 40z"/>
<path d="M9553 344 c-16 -7 -17 -50 -2 -59 7 -5 4 -14 -7 -27 -14 -14 -16 -23
-8 -36 13 -21 60 -28 80 -11 19 15 18 48 -1 56 -14 5 -14 8 2 25 13 15 15 23
7 36 -11 17 -48 25 -71 16z m52 -34 c0 -22 -39 -19 -43 3 -3 15 1 18 20 15 12
-2 23 -10 23 -18z m-7 -52 c20 -20 14 -38 -12 -38 -30 0 -42 16 -26 35 15 18
22 19 38 3z"/>
<path d="M9846 334 c-34 -33 -8 -81 39 -72 15 3 25 1 25 -6 0 -20 -23 -36 -53
-36 -16 0 -26 -4 -22 -10 10 -17 54 -11 75 10 40 40 19 130 -30 130 -10 0 -26
-7 -34 -16z m62 -31 c3 -20 -1 -23 -27 -23 -23 0 -31 5 -31 18 0 25 10 33 35
30 12 -2 21 -12 23 -25z"/>
<path d="M9960 315 c0 -30 3 -35 24 -35 29 0 49 -22 40 -45 -5 -12 -15 -16
-40 -13 -35 4 -46 -5 -18 -16 28 -11 51 -6 68 13 25 27 17 53 -21 71 -41 19
-43 40 -3 40 17 0 30 5 30 10 0 6 -18 10 -40 10 -39 0 -40 -1 -40 -35z"/>
<path d="M10574 329 c-19 -21 -19 -22 4 -15 21 7 22 5 22 -43 0 -38 -4 -51
-14 -51 -8 0 -18 -4 -21 -10 -4 -6 12 -10 42 -10 42 1 46 2 31 14 -14 10 -18
28 -18 75 0 67 -12 78 -46 40z"/>
<path d="M10687 332 c-22 -24 -22 -95 -1 -116 20 -20 48 -20 68 0 18 18 21 85
6 115 -13 24 -52 25 -73 1z m58 -57 c0 -47 -2 -50 -25 -50 -22 0 -25 5 -28 39
-4 52 3 68 30 64 20 -3 23 -9 23 -53z"/>
<path d="M10814 329 c-19 -21 -19 -22 4 -15 21 7 22 5 22 -43 0 -38 -4 -51
-14 -51 -8 0 -18 -4 -21 -10 -4 -6 12 -10 42 -10 42 1 46 2 31 14 -14 10 -18
28 -18 75 0 67 -12 78 -46 40z"/>
<path d="M6517 292 c-34 -37 -11 -92 38 -92 37 0 39 18 3 22 -49 5 -48 28 1
28 45 0 54 16 25 44 -21 21 -47 20 -67 -2z m58 -12 c4 -6 -7 -10 -25 -10 -18
0 -29 4 -25 10 3 6 15 10 25 10 10 0 22 -4 25 -10z"/>
<path d="M6620 303 c0 -5 7 -17 15 -27 13 -17 13 -23 -1 -44 -9 -13 -13 -27
-9 -30 6 -6 19 9 29 33 2 6 11 0 21 -12 23 -32 39 -29 18 3 -16 25 -16 28 0
55 19 33 6 40 -17 8 l-14 -21 -11 21 c-11 20 -31 29 -31 14z"/>
<path d="M6737 303 c-14 -14 -6 -19 23 -15 40 6 39 -14 -1 -23 -59 -13 -45
-65 17 -63 33 1 34 2 34 43 0 22 -5 46 -12 53 -13 13 -50 16 -61 5z m51 -65
c-5 -15 -48 -24 -48 -10 0 14 12 22 33 22 10 0 17 -5 15 -12z"/>
<path d="M6850 253 c0 -63 17 -72 22 -10 2 34 7 42 23 42 16 0 21 -8 23 -42 2
-24 7 -43 12 -43 5 0 7 13 5 29 -4 36 16 67 39 58 11 -4 16 -19 16 -47 0 -23
4 -39 8 -36 9 5 6 81 -3 96 -8 13 -42 13 -50 0 -5 -7 -11 -8 -19 -1 -6 5 -26
9 -44 9 -32 -1 -32 -1 -32 -55z"/>
<path d="M7040 233 c0 -42 4 -73 10 -73 6 0 10 11 10 24 0 19 4 22 23 19 41
-8 67 48 41 86 -11 14 -25 20 -49 19 l-35 -1 0 -74z m72 40 c7 -33 -4 -54 -26
-51 -37 5 -34 68 3 68 11 0 21 -8 23 -17z"/>
<path d="M7237 292 c-34 -37 -11 -92 38 -92 37 0 39 18 3 22 -49 5 -48 28 1
28 45 0 54 16 25 44 -21 21 -47 20 -67 -2z m58 -12 c4 -6 -7 -10 -25 -10 -18
0 -29 4 -25 10 3 6 15 10 25 10 10 0 22 -4 25 -10z"/>
<path d="M7352 298 c-18 -18 -15 -27 20 -48 26 -16 29 -20 15 -26 -9 -3 -24
-3 -33 0 -10 4 -14 1 -12 -6 3 -7 18 -13 34 -13 40 0 47 39 10 57 -33 14 -33
28 -1 28 14 0 25 5 25 10 0 14 -43 13 -58 -2z"/>
<path d="M7610 253 c0 -29 5 -53 10 -53 6 0 10 18 10 41 0 32 4 42 20 46 30 8
24 22 -10 21 -29 -1 -30 -2 -30 -55z"/>
<path d="M7697 303 c-14 -14 -6 -19 23 -15 40 6 39 -14 -1 -23 -59 -13 -45
-65 17 -63 33 1 34 2 34 43 0 22 -5 46 -12 53 -13 13 -50 16 -61 5z m51 -65
c-5 -15 -48 -24 -48 -10 0 14 12 22 33 22 10 0 17 -5 15 -12z"/>
<path d="M7800 302 c0 -5 7 -29 16 -55 17 -49 31 -59 40 -29 18 56 21 58 31
22 13 -50 33 -43 54 18 13 37 14 52 6 49 -6 -2 -17 -21 -23 -42 -11 -42 -18
-39 -29 13 -9 42 -25 37 -40 -14 l-12 -39 -13 43 c-11 37 -30 58 -30 34z"/>
<path d="M7980 253 c0 -63 17 -72 22 -10 2 35 7 43 26 45 20 3 22 -1 22 -42 0
-25 5 -46 10 -46 15 0 12 86 -3 98 -7 6 -27 10 -45 10 -32 -1 -32 -1 -32 -55z"/>
<path d="M8220 253 c0 -29 5 -53 10 -53 6 0 10 18 10 41 0 32 4 42 20 46 31 8
24 22 -10 20 -29 -2 -30 -3 -30 -54z"/>
<path d="M8307 292 c-21 -24 -22 -56 -1 -77 24 -23 66 -15 83 16 13 24 13 29
-2 53 -21 31 -56 34 -80 8z m68 -21 c10 -31 -5 -52 -34 -49 -26 3 -38 26 -27
54 8 21 53 18 61 -5z"/>
<path d="M8430 253 c0 -63 18 -72 22 -10 2 34 7 42 23 42 16 0 21 -8 23 -42 2
-24 7 -43 12 -43 5 0 7 15 6 34 -4 41 6 59 30 54 14 -2 20 -13 22 -46 2 -23 7
-42 11 -42 4 0 7 10 5 23 -1 12 -3 35 -3 50 -1 32 -25 45 -52 29 -11 -7 -20
-8 -24 -2 -3 5 -21 9 -40 8 l-35 -1 0 -54z"/>
<path d="M8797 303 c-14 -14 -6 -19 23 -15 40 6 39 -14 -1 -23 -59 -13 -45
-65 17 -63 33 1 34 2 34 43 0 22 -5 46 -12 53 -13 13 -50 16 -61 5z m51 -65
c-5 -15 -48 -24 -48 -10 0 14 12 22 33 22 10 0 17 -5 15 -12z"/>
<path d="M8910 253 c0 -29 5 -53 10 -53 6 0 10 18 10 41 0 32 4 42 20 46 30 8
24 22 -10 21 -29 -1 -30 -2 -30 -55z"/>
<path d="M8990 253 c0 -29 5 -53 10 -53 6 0 10 18 10 41 0 32 4 42 20 46 30 8
24 22 -10 21 -29 -1 -30 -2 -30 -55z"/>
<path d="M9070 255 c0 -30 5 -55 10 -55 6 0 10 25 10 55 0 30 -4 55 -10 55 -5
0 -10 -25 -10 -55z"/>
<path d="M9720 296 c0 -9 7 -16 16 -16 17 0 14 22 -4 28 -7 2 -12 -3 -12 -12z"/>
<path d="M10147 303 c-14 -14 -6 -19 23 -15 40 6 39 -14 -1 -23 -59 -13 -45
-65 17 -63 33 1 34 2 34 43 0 22 -5 46 -12 53 -13 13 -50 16 -61 5z m51 -65
c-5 -15 -48 -24 -48 -10 0 14 12 22 33 22 10 0 17 -5 15 -12z"/>
<path d="M10260 253 c0 -63 17 -72 22 -10 2 35 7 43 26 45 20 3 22 -1 22 -42
0 -25 5 -46 10 -46 15 0 12 86 -3 98 -7 6 -27 10 -45 10 -32 -1 -32 -1 -32
-55z"/>
<path d="M9720 216 c0 -9 7 -16 16 -16 17 0 14 22 -4 28 -7 2 -12 -3 -12 -12z"/>
</g>
</svg>
