<?xml version="1.0" standalone="no"?>
<!DOCTYPE svg PUBLIC "-//W3C//DTD SVG 20010904//EN"
 "http://www.w3.org/TR/2001/REC-SVG-20010904/DTD/svg10.dtd">
<svg version="1.0" xmlns="http://www.w3.org/2000/svg"
 width="813.000000pt" height="720.000000pt" viewBox="0 0 813.000000 720.000000"
 preserveAspectRatio="xMidYMid meet">

<g transform="translate(0.000000,720.000000) scale(0.100000,-0.100000)"
fill="#000000" stroke="none">
<path d="M6520 6900 c0 -83 17 -112 22 -37 2 35 7 43 26 45 20 3 22 -1 22 -42
0 -25 5 -46 10 -46 6 0 10 20 10 44 0 48 -18 71 -50 63 -17 -4 -20 0 -20 24 0
16 -4 29 -10 29 -6 0 -10 -33 -10 -80z"/>
<path d="M880 6895 c0 -43 4 -75 10 -75 6 0 10 13 10 28 0 23 6 30 33 37 60
18 45 85 -19 85 l-34 0 0 -75z m70 30 c0 -20 -5 -25 -25 -25 -20 0 -25 5 -25
25 0 20 5 25 25 25 20 0 25 -5 25 -25z"/>
<path d="M1045 6946 c-32 -32 -32 -70 0 -101 42 -43 95 -31 95 21 0 30 -3 34
-25 34 -14 0 -25 -4 -25 -10 0 -5 7 -10 15 -10 8 0 15 -9 15 -20 0 -14 -7 -20
-22 -20 -33 0 -47 12 -54 46 -8 42 18 67 63 62 20 -3 32 0 30 6 -2 6 -18 12
-35 14 -23 2 -38 -4 -57 -22z"/>
<path d="M1554 6949 c-19 -21 -19 -22 4 -15 21 7 22 5 22 -43 0 -38 -4 -51
-14 -51 -8 0 -18 -4 -21 -10 -4 -6 12 -10 42 -10 42 1 46 2 31 14 -14 10 -18
28 -18 75 0 67 -12 78 -46 40z"/>
<path d="M1727 6963 c-13 -13 -7 -19 20 -18 41 0 40 -27 -1 -73 -20 -22 -36
-42 -36 -46 0 -3 23 -6 50 -6 28 0 50 5 50 10 0 6 -14 10 -30 10 l-31 0 26 37
c28 41 31 63 13 81 -13 13 -50 16 -61 5z"/>
<path d="M1897 6963 c-15 -14 -6 -19 24 -15 26 4 30 2 27 -14 -2 -11 -13 -20
-26 -22 -27 -4 -30 -22 -3 -22 24 0 42 -22 32 -39 -6 -9 -20 -12 -40 -9 -35 5
-42 -7 -10 -17 28 -9 66 2 73 21 4 9 -1 27 -9 40 -9 13 -11 24 -5 24 16 0 11
47 -6 54 -21 8 -49 8 -57 -1z"/>
<path d="M2000 6960 c0 -5 18 -10 40 -10 l41 0 -15 -27 c-28 -56 -45 -103 -36
-103 9 0 70 123 70 141 0 5 -22 9 -50 9 -27 0 -50 -4 -50 -10z"/>
<path d="M6000 6895 c0 -43 4 -75 10 -75 6 0 10 13 10 28 0 23 6 30 33 37 60
18 45 85 -19 85 l-34 0 0 -75z m70 30 c0 -20 -5 -25 -25 -25 -20 0 -25 5 -25
25 0 20 5 25 25 25 20 0 25 -5 25 -25z"/>
<path d="M6150 6895 c0 -91 18 -101 22 -12 l3 62 24 -63 c13 -34 28 -61 33
-60 6 2 20 27 32 55 31 74 36 74 36 5 0 -34 4 -62 8 -62 5 0 8 34 8 75 0 62
-3 75 -16 75 -11 0 -26 -22 -41 -61 l-26 -61 -26 61 c-38 87 -57 83 -57 -14z"/>
<path d="M6360 6960 c0 -5 5 -10 10 -10 6 0 10 5 10 10 0 6 -4 10 -10 10 -5 0
-10 -4 -10 -10z"/>
<path d="M6766 6954 c-34 -33 -8 -81 39 -72 15 3 25 1 25 -6 0 -20 -23 -36
-53 -36 -16 0 -26 -4 -22 -10 11 -17 54 -11 76 11 17 17 20 30 16 66 -7 61
-45 83 -81 47z m62 -31 c3 -20 -1 -23 -27 -23 -23 0 -31 5 -31 18 0 25 10 33
35 30 12 -2 21 -12 23 -25z"/>
<path d="M6930 6935 c0 -30 3 -35 24 -35 29 0 49 -22 40 -45 -5 -12 -15 -16
-40 -13 -35 4 -46 -5 -18 -16 31 -12 54 -6 70 19 21 31 12 54 -26 68 -39 15
-39 37 0 37 17 0 30 5 30 10 0 6 -18 10 -40 10 -39 0 -40 -1 -40 -35z"/>
<path d="M7057 6963 c-15 -14 -6 -19 24 -15 26 4 30 2 27 -14 -2 -11 -13 -20
-26 -22 -27 -4 -30 -22 -3 -22 24 0 42 -22 32 -39 -6 -9 -20 -12 -40 -9 -35 5
-42 -7 -10 -17 53 -17 98 28 64 65 -11 12 -13 20 -6 25 16 10 13 42 -5 49 -21
8 -49 8 -57 -1z"/>
<path d="M7186 6955 c-25 -25 -31 -81 -12 -110 26 -39 86 -26 86 19 0 31 -24
50 -54 44 -21 -4 -23 -2 -17 16 6 14 19 22 40 24 17 2 29 8 26 13 -9 14 -52
11 -69 -6z m54 -90 c0 -20 -5 -25 -25 -25 -14 0 -25 4 -25 9 0 5 -3 16 -6 25
-5 13 1 16 25 16 26 0 31 -4 31 -25z"/>
<path d="M1187 6912 c-34 -37 -11 -92 38 -92 37 0 39 18 3 22 -49 5 -48 28 1
28 45 0 54 16 25 44 -21 21 -47 20 -67 -2z m58 -12 c4 -6 -7 -10 -25 -10 -18
0 -29 4 -25 10 3 6 15 10 25 10 10 0 22 -4 25 -10z"/>
<path d="M1300 6873 c0 -63 17 -72 22 -10 2 35 7 43 26 45 20 3 22 -1 22 -42
0 -25 5 -46 10 -46 15 0 12 86 -3 98 -7 6 -27 10 -45 10 -32 -1 -32 -1 -32
-55z"/>
<path d="M6360 6875 c0 -30 5 -55 10 -55 6 0 10 25 10 55 0 30 -4 55 -10 55
-5 0 -10 -25 -10 -55z"/>
<path d="M6426 6914 c-32 -32 -10 -94 34 -94 31 0 33 18 3 22 -24 3 -28 8 -28
33 0 25 4 30 28 33 15 2 25 8 22 13 -9 14 -42 11 -59 -7z"/>
<path d="M970 6835 c0 -8 5 -15 10 -15 6 0 10 7 10 15 0 8 -4 15 -10 15 -5 0
-10 -7 -10 -15z"/>
<path d="M1430 6835 c0 -8 5 -15 10 -15 6 0 10 7 10 15 0 8 -4 15 -10 15 -5 0
-10 -7 -10 -15z"/>
<path d="M6090 6835 c0 -8 5 -15 10 -15 6 0 10 7 10 15 0 8 -4 15 -10 15 -5 0
-10 -7 -10 -15z"/>
<path d="M6650 6835 c0 -8 5 -15 10 -15 6 0 10 7 10 15 0 8 -4 15 -10 15 -5 0
-10 -7 -10 -15z"/>
<path d="M789 6653 c-40 -103 -45 -123 -29 -123 6 0 10 9 10 20 0 16 7 20 36
20 27 0 37 -5 41 -20 6 -22 23 -28 22 -7 -1 25 -46 131 -57 135 -7 2 -17 -9
-23 -25z m41 -50 c0 -7 -9 -13 -20 -13 -22 0 -23 3 -13 39 6 23 7 23 20 6 7
-11 13 -25 13 -32z"/>
<path d="M1070 6670 c0 -5 5 -10 10 -10 6 0 10 5 10 10 0 6 -4 10 -10 10 -5 0
-10 -4 -10 -10z"/>
<path d="M1390 6670 c0 -5 5 -10 10 -10 6 0 10 5 10 10 0 6 -4 10 -10 10 -5 0
-10 -4 -10 -10z"/>
<path d="M5927 6648 c-24 -57 -39 -109 -34 -115 3 -2 10 5 17 16 15 29 70 29
77 1 3 -11 11 -20 18 -20 16 0 -36 142 -53 148 -6 2 -17 -12 -25 -30z m43 -45
c0 -7 -9 -13 -20 -13 -22 0 -23 3 -13 39 6 23 7 23 20 6 7 -11 13 -25 13 -32z"/>
<path d="M6210 6670 c0 -5 5 -10 10 -10 6 0 10 5 10 10 0 6 -4 10 -10 10 -5 0
-10 -4 -10 -10z"/>
<path d="M6530 6670 c0 -5 5 -10 10 -10 6 0 10 5 10 10 0 6 -4 10 -10 10 -5 0
-10 -4 -10 -10z"/>
<path d="M1450 6655 c0 -8 -5 -15 -12 -15 -9 0 -9 -3 0 -12 7 -7 12 -24 12
-39 0 -15 3 -34 6 -43 7 -17 44 -22 44 -6 0 6 -7 10 -15 10 -10 0 -15 11 -15
35 0 24 5 35 15 35 8 0 15 5 15 10 0 6 -7 10 -15 10 -8 0 -15 7 -15 15 0 8 -4
15 -10 15 -5 0 -10 -7 -10 -15z"/>
<path d="M6590 6655 c0 -8 -5 -15 -12 -15 -9 0 -9 -3 0 -12 7 -7 12 -24 12
-39 0 -15 3 -34 6 -43 7 -17 44 -22 44 -6 0 6 -7 10 -15 10 -10 0 -15 11 -15
35 0 24 5 35 15 35 8 0 15 5 15 10 0 6 -7 10 -15 10 -8 0 -15 7 -15 15 0 8 -4
15 -10 15 -5 0 -10 -7 -10 -15z"/>
<path d="M900 6583 c0 -29 5 -53 10 -53 6 0 10 18 10 41 0 32 4 42 20 46 31 8
24 22 -10 20 -29 -2 -30 -3 -30 -54z"/>
<path d="M982 6628 c-18 -18 -15 -27 20 -48 26 -16 29 -20 15 -26 -9 -3 -24
-3 -33 0 -10 4 -14 1 -12 -6 3 -7 18 -13 34 -13 40 0 47 39 10 57 -33 14 -33
28 -1 28 14 0 25 5 25 10 0 14 -43 13 -58 -2z"/>
<path d="M1070 6585 c0 -30 5 -55 10 -55 6 0 10 25 10 55 0 30 -4 55 -10 55
-5 0 -10 -25 -10 -55z"/>
<path d="M1130 6583 c0 -63 17 -72 22 -10 2 35 7 43 26 45 20 3 22 -1 22 -42
0 -25 5 -46 10 -46 15 0 12 86 -3 98 -7 6 -27 10 -45 10 -32 -1 -32 -1 -32
-55z"/>
<path d="M1267 6622 c-21 -24 -22 -56 -1 -77 24 -23 66 -15 83 16 13 24 13 29
-2 53 -21 31 -56 34 -80 8z m68 -21 c10 -31 -5 -52 -34 -49 -26 3 -38 26 -27
54 8 21 53 18 61 -5z"/>
<path d="M1390 6585 c0 -30 5 -55 10 -55 6 0 10 25 10 55 0 30 -4 55 -10 55
-5 0 -10 -25 -10 -55z"/>
<path d="M1537 6622 c-34 -37 -11 -92 38 -92 37 0 39 18 3 22 -49 5 -48 28 1
28 45 0 54 16 25 44 -21 21 -47 20 -67 -2z m58 -12 c4 -6 -7 -10 -25 -10 -18
0 -29 4 -25 10 3 6 15 10 25 10 10 0 22 -4 25 -10z"/>
<path d="M1690 6583 c0 -63 17 -72 22 -10 2 35 7 43 26 45 20 3 22 -1 22 -42
0 -25 5 -46 10 -46 15 0 12 86 -3 98 -7 6 -27 10 -45 10 -32 -1 -32 -1 -32
-55z"/>
<path d="M1827 6622 c-21 -24 -22 -56 -1 -77 24 -23 66 -15 83 16 13 24 13 29
-2 53 -21 31 -56 34 -80 8z m68 -21 c10 -31 -5 -52 -34 -49 -26 3 -38 26 -27
54 8 21 53 18 61 -5z"/>
<path d="M1950 6583 c0 -63 18 -71 22 -10 2 34 7 42 23 42 16 0 21 -8 25 -45
5 -45 23 -43 20 3 -4 42 0 48 23 45 18 -2 23 -10 25 -45 2 -24 7 -43 12 -43 9
0 4 86 -6 101 -7 12 -41 11 -49 -1 -5 -8 -11 -8 -19 -1 -7 6 -27 9 -44 8 -32
-2 -32 -3 -32 -54z"/>
<path d="M2147 6622 c-34 -37 -11 -92 38 -92 37 0 39 18 3 22 -49 5 -48 28 1
28 45 0 54 16 25 44 -21 21 -47 20 -67 -2z m58 -12 c4 -6 -7 -10 -25 -10 -18
0 -29 4 -25 10 3 6 15 10 25 10 10 0 22 -4 25 -10z"/>
<path d="M6040 6583 c0 -29 5 -53 10 -53 6 0 10 18 10 41 0 32 4 42 20 46 30
8 24 22 -10 21 -29 -1 -30 -2 -30 -55z"/>
<path d="M6122 6628 c-18 -18 -15 -27 20 -48 26 -16 29 -20 15 -26 -9 -3 -24
-3 -33 0 -10 4 -14 1 -12 -6 3 -7 18 -13 34 -13 40 0 47 39 10 57 -33 14 -33
28 -1 28 14 0 25 5 25 10 0 14 -43 13 -58 -2z"/>
<path d="M6210 6585 c0 -30 5 -55 10 -55 6 0 10 25 10 55 0 30 -4 55 -10 55
-5 0 -10 -25 -10 -55z"/>
<path d="M6270 6583 c0 -63 18 -71 22 -10 2 35 7 43 26 45 20 3 22 -1 22 -42
0 -25 5 -46 10 -46 15 0 12 86 -3 99 -7 6 -28 9 -45 8 -32 -2 -32 -3 -32 -54z"/>
<path d="M6407 6622 c-34 -37 -11 -92 37 -92 29 0 49 22 49 55 0 52 -53 74
-86 37z m68 -21 c10 -31 -5 -52 -34 -49 -26 3 -38 26 -27 54 8 21 53 18 61 -5z"/>
<path d="M6530 6585 c0 -30 5 -55 10 -55 6 0 10 25 10 55 0 30 -4 55 -10 55
-5 0 -10 -25 -10 -55z"/>
<path d="M6677 6622 c-34 -37 -11 -92 38 -92 37 0 39 18 3 22 -49 5 -48 28 1
28 45 0 54 16 25 44 -21 21 -47 20 -67 -2z m58 -12 c4 -6 -7 -10 -25 -10 -18
0 -29 4 -25 10 3 6 15 10 25 10 10 0 22 -4 25 -10z"/>
<path d="M6830 6583 c0 -63 18 -71 22 -10 2 35 7 43 26 45 20 3 22 -1 22 -42
0 -25 5 -46 10 -46 15 0 12 86 -3 99 -7 6 -28 9 -45 8 -32 -2 -32 -3 -32 -54z"/>
<path d="M6967 6622 c-34 -37 -11 -92 37 -92 29 0 49 22 49 55 0 52 -53 74
-86 37z m68 -21 c10 -31 -5 -52 -34 -49 -26 3 -38 26 -27 54 8 21 53 18 61 -5z"/>
<path d="M7090 6583 c0 -63 17 -72 22 -10 2 34 7 42 23 42 16 0 21 -9 26 -45
7 -49 12 -38 18 36 1 10 9 14 24 12 18 -2 23 -10 25 -45 2 -24 7 -43 11 -43 9
0 5 85 -4 100 -8 13 -42 13 -50 0 -5 -7 -11 -8 -19 -1 -6 5 -26 9 -44 9 -32
-1 -32 -1 -32 -55z"/>
<path d="M7287 6622 c-34 -37 -11 -92 38 -92 37 0 39 18 3 22 -49 5 -48 28 1
28 45 0 54 16 25 44 -21 21 -47 20 -67 -2z m58 -12 c4 -6 -7 -10 -25 -10 -18
0 -29 4 -25 10 3 6 15 10 25 10 10 0 22 -4 25 -10z"/>
<path d="M1184 6369 c-19 -21 -19 -22 4 -15 21 7 22 5 22 -43 0 -38 -4 -51
-14 -51 -8 0 -18 -4 -21 -10 -4 -6 12 -10 42 -10 42 1 46 2 31 14 -14 10 -18
28 -18 75 0 67 -12 78 -46 40z"/>
<path d="M1303 6384 c-16 -7 -17 -50 -2 -59 7 -5 4 -14 -7 -27 -14 -14 -16
-23 -8 -36 13 -21 60 -28 80 -11 19 15 18 48 -1 56 -14 5 -14 8 2 25 13 15 15
23 7 36 -11 17 -48 25 -71 16z m55 -31 c2 -7 -4 -16 -12 -19 -19 -7 -49 14
-40 28 8 13 46 6 52 -9z m-10 -55 c21 -21 13 -38 -18 -38 -18 0 -30 5 -30 13
0 13 19 37 30 37 3 0 11 -5 18 -12z"/>
<path d="M1426 6375 c-25 -25 -31 -81 -12 -110 28 -43 86 -26 86 25 0 23 -5
31 -25 36 -14 3 -31 4 -39 1 -12 -5 -13 -1 -7 16 5 14 18 23 35 25 14 2 26 8
26 13 0 15 -47 10 -64 -6z m54 -90 c0 -20 -5 -25 -24 -25 -22 0 -36 16 -36 41
0 5 14 9 30 9 25 0 30 -4 30 -25z"/>
<path d="M1600 6363 c-17 -21 -20 -36 -16 -63 7 -42 31 -62 70 -58 43 4 42 23
-1 23 -31 0 -38 4 -46 28 -6 20 -6 37 2 54 10 21 17 24 46 21 22 -2 34 0 32 6
-2 6 -17 12 -34 14 -24 2 -36 -3 -53 -25z"/>
<path d="M1720 6315 l0 -75 40 0 c22 0 40 5 40 10 0 6 -13 10 -30 10 -25 0
-30 4 -30 25 0 21 5 25 31 25 17 0 28 4 24 10 -3 6 -17 10 -31 10 -17 0 -24 5
-24 20 0 16 7 20 30 20 17 0 30 5 30 10 0 6 -18 10 -40 10 l-40 0 0 -75z"/>
<path d="M6324 6369 c-19 -21 -19 -22 4 -15 21 7 22 5 22 -43 0 -38 -4 -51
-14 -51 -8 0 -18 -4 -21 -10 -4 -6 12 -10 42 -10 42 1 46 2 31 14 -14 10 -18
28 -18 75 0 67 -12 78 -46 40z"/>
<path d="M6443 6384 c-16 -7 -17 -50 -2 -59 7 -5 4 -14 -7 -27 -14 -14 -16
-23 -8 -36 13 -21 60 -28 80 -11 19 15 18 48 -1 56 -14 5 -14 8 2 25 13 15 15
23 7 36 -11 17 -48 25 -71 16z m55 -31 c2 -7 -4 -16 -12 -19 -19 -7 -49 14
-40 28 8 13 46 6 52 -9z m-10 -55 c21 -21 13 -38 -18 -38 -18 0 -30 5 -30 13
0 13 19 37 30 37 3 0 11 -5 18 -12z"/>
<path d="M6550 6355 c0 -30 3 -35 24 -35 29 0 49 -22 40 -45 -5 -12 -15 -16
-40 -13 -35 4 -46 -5 -18 -16 28 -11 51 -6 68 13 25 27 17 53 -21 71 -41 19
-43 40 -3 40 17 0 30 5 30 10 0 6 -18 10 -40 10 -39 0 -40 -1 -40 -35z"/>
<path d="M6740 6363 c-17 -21 -20 -36 -16 -63 7 -42 31 -62 70 -58 43 4 42 23
-1 23 -30 0 -38 4 -45 26 -5 16 -5 37 2 54 9 24 15 27 45 23 22 -2 34 0 32 6
-2 6 -17 12 -34 14 -24 2 -36 -3 -53 -25z"/>
<path d="M6860 6315 l0 -75 40 0 c22 0 40 5 40 10 0 6 -13 10 -30 10 -25 0
-30 4 -30 25 0 21 5 25 31 25 17 0 28 4 24 10 -3 6 -17 10 -31 10 -17 0 -24 5
-24 20 0 16 7 20 30 20 17 0 30 5 30 10 0 6 -18 10 -40 10 l-40 0 0 -75z"/>
<path d="M1910 6030 c0 -47 4 -80 10 -80 6 0 10 33 10 80 0 47 -4 80 -10 80
-6 0 -10 -33 -10 -80z"/>
<path d="M7100 6030 c0 -47 4 -80 10 -80 6 0 10 33 10 80 0 47 -4 80 -10 80
-6 0 -10 -33 -10 -80z"/>
<path d="M920 6090 c0 -5 5 -10 10 -10 6 0 10 5 10 10 0 6 -4 10 -10 10 -5 0
-10 -4 -10 -10z"/>
<path d="M1310 6090 c0 -5 5 -10 10 -10 6 0 10 5 10 10 0 6 -4 10 -10 10 -5 0
-10 -4 -10 -10z"/>
<path d="M1970 6090 c0 -5 5 -10 10 -10 6 0 10 5 10 10 0 6 -4 10 -10 10 -5 0
-10 -4 -10 -10z"/>
<path d="M6010 6090 c0 -5 5 -10 10 -10 6 0 10 5 10 10 0 6 -4 10 -10 10 -5 0
-10 -4 -10 -10z"/>
<path d="M6400 6090 c0 -5 5 -10 10 -10 6 0 10 5 10 10 0 6 -4 10 -10 10 -5 0
-10 -4 -10 -10z"/>
<path d="M7160 6090 c0 -5 5 -10 10 -10 6 0 10 5 10 10 0 6 -4 10 -10 10 -5 0
-10 -4 -10 -10z"/>
<path d="M1230 6075 c0 -8 -5 -15 -12 -15 -9 0 -9 -3 0 -12 7 -7 12 -24 12
-39 0 -15 3 -34 6 -43 7 -17 44 -22 44 -6 0 6 -7 10 -15 10 -10 0 -15 11 -15
35 0 24 5 35 15 35 8 0 15 5 15 10 0 6 -7 10 -15 10 -8 0 -15 7 -15 15 0 8 -4
15 -10 15 -5 0 -10 -7 -10 -15z"/>
<path d="M1660 6075 c0 -8 -5 -15 -12 -15 -9 0 -9 -3 0 -12 7 -7 12 -24 12
-39 0 -15 3 -34 6 -43 7 -17 44 -22 44 -6 0 6 -7 10 -15 10 -10 0 -15 11 -15
35 0 24 5 35 15 35 8 0 15 5 15 10 0 6 -7 10 -15 10 -8 0 -15 7 -15 15 0 8 -4
15 -10 15 -5 0 -10 -7 -10 -15z"/>
<path d="M2030 6075 c0 -8 -5 -15 -12 -15 -9 0 -9 -3 0 -12 7 -7 12 -24 12
-39 0 -15 3 -34 6 -43 7 -17 44 -22 44 -6 0 6 -7 10 -15 10 -10 0 -15 11 -15
35 0 24 5 35 15 35 8 0 15 5 15 10 0 6 -7 10 -15 10 -8 0 -15 7 -15 15 0 8 -4
15 -10 15 -5 0 -10 -7 -10 -15z"/>
<path d="M6320 6075 c0 -8 -5 -15 -12 -15 -9 0 -9 -3 0 -12 7 -7 12 -24 12
-39 0 -15 3 -34 6 -43 7 -17 44 -22 44 -6 0 6 -7 10 -15 10 -10 0 -15 11 -15
35 0 24 5 35 15 35 8 0 15 5 15 10 0 6 -7 10 -15 10 -8 0 -15 7 -15 15 0 8 -4
15 -10 15 -5 0 -10 -7 -10 -15z"/>
<path d="M6840 6075 c0 -8 -5 -15 -12 -15 -9 0 -9 -3 0 -12 7 -7 12 -24 12
-39 0 -15 3 -34 6 -43 7 -17 44 -22 44 -6 0 6 -7 10 -15 10 -10 0 -15 11 -15
35 0 24 5 35 15 35 8 0 15 5 15 10 0 6 -7 10 -15 10 -8 0 -15 7 -15 15 0 8 -4
15 -10 15 -5 0 -10 -7 -10 -15z"/>
<path d="M7220 6075 c0 -8 -5 -15 -12 -15 -9 0 -9 -3 0 -12 7 -7 12 -24 12
-39 0 -15 3 -34 6 -43 7 -17 44 -22 44 -6 0 6 -7 10 -15 10 -10 0 -15 11 -15
35 0 24 5 35 15 35 8 0 15 5 15 10 0 6 -7 10 -15 10 -8 0 -15 7 -15 15 0 8 -4
15 -10 15 -5 0 -10 -7 -10 -15z"/>
<path d="M470 6003 c0 -63 18 -71 22 -10 2 35 7 43 26 45 20 3 22 -1 22 -42 0
-25 5 -46 10 -46 15 0 12 86 -3 99 -7 6 -28 9 -45 8 -32 -2 -32 -3 -32 -54z"/>
<path d="M607 6042 c-21 -23 -22 -56 -1 -76 23 -24 61 -20 80 8 34 53 -37 115
-79 68z m68 -21 c10 -31 -5 -52 -34 -49 -26 3 -38 26 -27 54 8 21 53 18 61 -5z"/>
<path d="M730 6003 c0 -63 18 -71 22 -10 2 34 7 42 23 42 16 0 21 -8 23 -42 2
-24 7 -43 12 -43 5 0 7 13 5 29 -5 36 16 67 39 58 11 -4 16 -19 16 -47 0 -22
4 -40 10 -40 9 0 5 84 -6 101 -7 12 -41 11 -49 -1 -5 -8 -11 -8 -19 -1 -7 6
-27 9 -44 8 -32 -2 -32 -3 -32 -54z"/>
<path d="M920 6005 c0 -30 5 -55 10 -55 6 0 10 25 10 55 0 30 -4 55 -10 55 -5
0 -10 -25 -10 -55z"/>
<path d="M980 6003 c0 -63 17 -72 22 -10 2 35 7 43 26 45 20 3 22 -1 22 -42 0
-25 5 -46 10 -46 15 0 12 86 -3 98 -7 6 -27 10 -45 10 -32 -1 -32 -1 -32 -55z"/>
<path d="M1117 6053 c-14 -14 -6 -19 23 -15 40 6 39 -14 -1 -23 -59 -13 -45
-65 17 -63 33 1 34 2 34 43 0 22 -5 46 -12 53 -13 13 -50 16 -61 5z m51 -65
c-5 -15 -48 -24 -48 -10 0 14 12 22 33 22 10 0 17 -5 15 -12z"/>
<path d="M1310 6005 c0 -30 5 -55 10 -55 6 0 10 25 10 55 0 30 -4 55 -10 55
-5 0 -10 -25 -10 -55z"/>
<path d="M1377 6042 c-35 -39 -8 -96 42 -90 17 2 30 13 39 31 12 24 11 31 -2
53 -20 29 -56 32 -79 6z m68 -21 c10 -31 -5 -52 -34 -49 -26 3 -38 26 -27 54
8 21 53 18 61 -5z"/>
<path d="M1500 6003 c0 -63 17 -72 22 -10 2 35 7 43 26 45 20 3 22 -1 22 -42
0 -25 5 -46 10 -46 15 0 12 86 -3 98 -7 6 -27 10 -45 10 -32 -1 -32 -1 -32
-55z"/>
<path d="M1747 6042 c-21 -24 -22 -56 -1 -77 24 -23 66 -15 83 16 13 24 13 29
-2 53 -21 31 -56 34 -80 8z m68 -21 c10 -31 -5 -52 -34 -49 -26 3 -38 26 -27
54 8 21 53 18 61 -5z"/>
<path d="M1970 6005 c0 -30 5 -55 10 -55 6 0 10 25 10 55 0 30 -4 55 -10 55
-5 0 -10 -25 -10 -55z"/>
<path d="M2110 6010 c0 -27 3 -51 8 -51 4 -1 24 -3 45 -4 l37 -2 0 53 c0 64
-17 73 -22 12 -2 -36 -7 -44 -25 -46 -21 -3 -23 1 -23 42 0 25 -4 46 -10 46
-5 0 -10 -22 -10 -50z"/>
<path d="M2240 6003 c0 -29 5 -53 10 -53 6 0 10 18 10 41 0 32 4 42 20 46 31
8 24 22 -10 20 -29 -2 -30 -3 -30 -54z"/>
<path d="M2322 6043 c-5 -10 -8 -43 -8 -73 1 -59 11 -68 62 -56 19 5 25 12 22
29 -2 17 -12 23 -38 27 l-35 6 33 7 c25 5 32 12 32 30 0 13 5 28 12 35 9 9 3
12 -30 12 -29 0 -44 -5 -50 -17z m53 -23 c0 -22 -39 -19 -43 3 -3 15 1 18 20
15 12 -2 23 -10 23 -18z m10 -80 c-3 -5 -17 -10 -31 -10 -13 0 -24 5 -24 10 0
6 14 10 31 10 17 0 28 -4 24 -10z"/>
<path d="M2420 6050 c0 -5 7 -28 16 -50 9 -22 14 -52 11 -66 -9 -49 16 -18 44
54 29 76 21 101 -10 30 l-18 -43 -13 43 c-12 38 -30 58 -30 32z"/>
<path d="M5560 6003 c0 -63 17 -72 22 -10 2 35 7 43 26 45 20 3 22 -1 22 -42
0 -25 5 -46 10 -46 15 0 12 86 -3 98 -7 6 -27 10 -45 10 -32 -1 -32 -1 -32
-55z"/>
<path d="M5697 6042 c-35 -39 -8 -96 42 -90 17 2 30 13 39 31 12 24 11 31 -2
53 -20 29 -56 32 -79 6z m68 -21 c10 -31 -5 -52 -34 -49 -26 3 -38 26 -27 54
8 21 53 18 61 -5z"/>
<path d="M5820 6003 c0 -63 18 -71 22 -10 2 34 7 42 23 42 16 0 21 -8 25 -45
3 -27 8 -40 13 -33 4 7 6 23 3 37 -5 28 16 51 39 42 10 -3 15 -19 15 -46 0
-22 4 -40 9 -40 4 0 7 10 6 23 -1 12 -3 35 -4 50 -1 32 -25 45 -52 29 -11 -7
-20 -8 -24 -2 -3 6 -22 9 -41 7 l-34 -2 0 -52z"/>
<path d="M6010 6005 c0 -30 5 -55 10 -55 6 0 10 25 10 55 0 30 -4 55 -10 55
-5 0 -10 -25 -10 -55z"/>
<path d="M6070 6003 c0 -63 18 -71 22 -10 2 35 7 43 26 45 20 3 22 -1 22 -42
0 -25 5 -46 10 -46 15 0 12 86 -3 99 -7 6 -28 9 -45 8 -32 -2 -32 -3 -32 -54z"/>
<path d="M6207 6053 c-14 -14 -6 -19 23 -15 40 6 39 -14 -1 -23 -59 -13 -45
-65 17 -63 33 1 34 2 34 43 0 22 -5 46 -12 53 -13 13 -50 16 -61 5z m51 -65
c-5 -15 -48 -24 -48 -10 0 14 12 22 33 22 10 0 17 -5 15 -12z"/>
<path d="M6400 6005 c0 -30 5 -55 10 -55 6 0 10 25 10 55 0 30 -4 55 -10 55
-5 0 -10 -25 -10 -55z"/>
<path d="M6467 6042 c-21 -23 -22 -56 -1 -76 23 -24 61 -20 80 8 34 53 -37
115 -79 68z m68 -21 c10 -31 -5 -52 -34 -49 -26 3 -38 26 -27 54 8 21 53 18
61 -5z"/>
<path d="M6590 6003 c0 -63 18 -71 22 -10 2 35 7 43 26 45 20 3 22 -1 22 -42
0 -25 5 -46 10 -46 15 0 12 86 -3 99 -7 6 -28 9 -45 8 -32 -2 -32 -3 -32 -54z"/>
<path d="M6722 6048 c-18 -18 -15 -27 20 -48 26 -16 29 -20 15 -26 -9 -3 -24
-3 -33 0 -10 4 -14 1 -12 -6 3 -7 18 -13 34 -13 40 0 47 39 10 57 -33 14 -33
28 -1 28 14 0 25 5 25 10 0 14 -43 13 -58 -2z"/>
<path d="M6927 6042 c-21 -23 -22 -56 -1 -76 23 -24 61 -20 80 8 34 53 -37
115 -79 68z m68 -21 c10 -31 -5 -52 -34 -49 -26 3 -38 26 -27 54 8 21 53 18
61 -5z"/>
<path d="M7160 6005 c0 -30 5 -55 10 -55 6 0 10 25 10 55 0 30 -4 55 -10 55
-5 0 -10 -25 -10 -55z"/>
<path d="M7300 6010 c0 -27 3 -51 8 -51 4 -1 24 -3 45 -4 l37 -2 0 53 c0 64
-17 73 -22 12 -2 -36 -7 -44 -25 -46 -21 -3 -23 1 -23 42 0 25 -4 46 -10 46
-5 0 -10 -22 -10 -50z"/>
<path d="M7430 6003 c0 -29 5 -53 10 -53 6 0 10 18 10 41 0 32 4 42 20 46 31
8 24 22 -10 20 -29 -2 -30 -3 -30 -54z"/>
<path d="M7512 6043 c-5 -10 -8 -43 -8 -73 1 -54 2 -55 32 -58 39 -4 71 23 53
44 -6 8 -26 14 -43 15 l-31 1 33 9 c24 7 32 15 32 32 0 13 5 28 12 35 9 9 3
12 -30 12 -29 0 -44 -5 -50 -17z m53 -23 c0 -8 -10 -16 -22 -18 -22 -3 -32 16
-16 32 12 11 38 2 38 -14z m10 -80 c-3 -5 -17 -10 -31 -10 -13 0 -24 5 -24 10
0 6 14 10 31 10 17 0 28 -4 24 -10z"/>
<path d="M7610 6050 c0 -5 7 -28 16 -50 9 -22 14 -52 11 -66 -9 -49 16 -18 44
54 29 76 21 101 -10 30 l-18 -43 -13 43 c-12 38 -30 58 -30 32z"/>
<path d="M661 5799 c-20 -58 -7 -179 20 -179 5 0 4 12 -1 26 -6 14 -10 49 -10
79 0 30 4 65 10 79 5 14 6 26 1 26 -5 0 -14 -14 -20 -31z"/>
<path d="M2307 5800 c10 -46 10 -106 -1 -149 -12 -51 9 -30 24 23 14 50 6 114
-16 143 -14 16 -14 15 -7 -17z"/>
<path d="M1050 5740 c0 -47 4 -80 10 -80 6 0 10 33 10 80 0 47 -4 80 -10 80
-6 0 -10 -33 -10 -80z"/>
<path d="M2010 5740 c0 -47 4 -80 10 -80 6 0 10 33 10 80 0 47 -4 80 -10 80
-6 0 -10 -33 -10 -80z"/>
<path d="M2070 5800 c0 -5 5 -10 10 -10 6 0 10 5 10 10 0 6 -4 10 -10 10 -5 0
-10 -4 -10 -10z"/>
<path d="M1890 5785 c0 -8 -5 -15 -12 -15 -9 0 -9 -3 0 -12 7 -7 12 -24 12
-39 0 -15 3 -34 6 -43 7 -17 44 -22 44 -6 0 6 -7 10 -15 10 -10 0 -15 11 -15
35 0 24 5 35 15 35 8 0 15 5 15 10 0 6 -7 10 -15 10 -8 0 -15 7 -15 15 0 8 -4
15 -10 15 -5 0 -10 -7 -10 -15z"/>
<path d="M2220 5785 c0 -8 -5 -15 -12 -15 -9 0 -9 -3 0 -12 7 -7 12 -24 12
-39 0 -15 3 -34 6 -43 7 -17 44 -22 44 -6 0 6 -7 10 -15 10 -10 0 -15 11 -15
35 0 24 5 35 15 35 8 0 15 5 15 10 0 6 -7 10 -15 10 -8 0 -15 7 -15 15 0 8 -4
15 -10 15 -5 0 -10 -7 -10 -15z"/>
<path d="M720 5713 c0 -29 5 -53 10 -53 6 0 10 18 10 41 0 32 4 42 20 46 30 8
24 22 -10 21 -29 -1 -30 -2 -30 -55z"/>
<path d="M807 5752 c-34 -37 -11 -92 38 -92 37 0 39 18 3 22 -49 5 -48 28 1
28 45 0 54 16 25 44 -21 21 -47 20 -67 -2z m58 -12 c4 -6 -7 -10 -25 -10 -18
0 -29 4 -25 10 3 6 15 10 25 10 10 0 22 -4 25 -10z"/>
<path d="M920 5693 c0 -42 4 -73 10 -73 6 0 10 11 10 24 0 19 4 22 23 19 30
-6 50 19 49 59 -1 37 -16 48 -59 45 l-33 -2 0 -72z m72 40 c7 -33 -4 -54 -26
-51 -37 5 -34 68 3 68 11 0 21 -8 23 -17z"/>
<path d="M1117 5763 c-14 -14 -6 -19 23 -15 40 6 39 -14 -1 -23 -59 -13 -45
-65 17 -63 33 1 34 2 34 43 0 22 -5 46 -12 53 -13 13 -50 16 -61 5z m51 -65
c-5 -15 -48 -24 -48 -10 0 14 12 22 33 22 10 0 17 -5 15 -12z"/>
<path d="M1236 5754 c-32 -32 -10 -94 34 -94 31 0 33 18 3 22 -24 3 -28 8 -28
33 0 25 4 30 28 33 15 2 25 8 22 13 -9 14 -42 11 -59 -7z"/>
<path d="M1337 5752 c-34 -37 -11 -92 38 -92 37 0 39 18 3 22 -49 5 -48 28 1
28 45 0 54 16 25 44 -21 21 -47 20 -67 -2z m58 -12 c4 -6 -7 -10 -25 -10 -18
0 -29 4 -25 10 3 6 15 10 25 10 10 0 22 -4 25 -10z"/>
<path d="M1450 5713 c0 -63 17 -72 22 -10 2 34 7 42 23 42 16 0 21 -8 23 -42
3 -47 19 -59 20 -15 0 61 1 63 25 60 18 -2 23 -10 25 -45 2 -24 7 -43 11 -43
9 0 6 83 -4 99 -8 14 -42 14 -50 1 -5 -7 -11 -8 -19 -1 -6 5 -26 9 -44 9 -32
-1 -32 -1 -32 -55z"/>
<path d="M1647 5752 c-34 -37 -11 -92 38 -92 37 0 39 18 3 22 -49 5 -48 28 1
28 45 0 54 16 25 44 -21 21 -47 20 -67 -2z m58 -12 c4 -6 -7 -10 -25 -10 -18
0 -29 4 -25 10 3 6 15 10 25 10 10 0 22 -4 25 -10z"/>
<path d="M1760 5713 c0 -63 17 -72 22 -10 2 35 7 43 26 45 20 3 22 -1 22 -42
0 -25 5 -46 10 -46 15 0 12 86 -3 98 -7 6 -27 10 -45 10 -32 -1 -32 -1 -32
-55z"/>
<path d="M2070 5715 c0 -30 5 -55 10 -55 6 0 10 25 10 55 0 30 -4 55 -10 55
-5 0 -10 -25 -10 -55z"/>
<path d="M2132 5758 c-18 -18 -15 -27 20 -48 26 -16 29 -20 15 -26 -9 -3 -24
-3 -33 0 -10 4 -14 1 -12 -6 3 -7 18 -13 34 -13 40 0 47 39 10 57 -33 14 -33
28 -1 28 14 0 25 5 25 10 0 14 -43 13 -58 -2z"/>
<path d="M1234 5349 c-19 -21 -19 -22 4 -15 21 7 22 5 22 -43 0 -38 -4 -51
-14 -51 -8 0 -18 -4 -21 -10 -4 -6 12 -10 42 -10 42 1 46 2 31 14 -14 10 -18
28 -18 75 0 67 -12 78 -46 40z"/>
<path d="M1347 5352 c-22 -24 -22 -95 -1 -116 39 -40 84 -7 84 63 0 26 -5 52
-12 59 -18 18 -53 15 -71 -6z m58 -57 c0 -47 -2 -50 -25 -50 -22 0 -25 5 -28
39 -4 52 3 68 30 64 20 -3 23 -9 23 -53z"/>
<path d="M6364 5339 c-19 -21 -19 -22 4 -15 21 7 22 5 22 -43 0 -38 -4 -51
-14 -51 -8 0 -18 -4 -21 -10 -4 -6 12 -10 42 -10 42 1 46 2 31 14 -14 10 -18
28 -18 75 0 67 -12 78 -46 40z"/>
<path d="M6477 5342 c-22 -24 -22 -95 -1 -116 37 -38 84 -7 84 55 0 22 -5 49
-10 60 -13 24 -52 25 -73 1z m58 -57 c0 -47 -2 -50 -25 -50 -22 0 -25 5 -28
39 -4 52 3 68 30 64 20 -3 23 -9 23 -53z"/>
<path d="M1526 5314 c-32 -32 -10 -94 34 -94 31 0 33 18 3 22 -24 3 -28 8 -28
33 0 25 4 30 28 33 15 2 25 8 22 13 -9 14 -42 11 -59 -7z"/>
<path d="M1620 5273 c0 -63 18 -72 22 -10 2 34 7 42 23 42 16 0 21 -8 23 -42
2 -24 7 -43 12 -43 5 0 7 15 6 34 -4 41 6 59 30 54 14 -2 20 -13 22 -46 2 -23
7 -42 13 -42 5 0 7 10 5 23 -3 12 -5 35 -5 50 -1 32 -25 45 -52 29 -11 -7 -20
-8 -24 -2 -3 5 -21 9 -40 8 l-35 -1 0 -54z"/>
<path d="M6656 5304 c-32 -32 -10 -94 34 -94 31 0 33 18 3 22 -24 3 -28 8 -28
33 0 25 4 30 28 33 15 2 25 8 22 13 -9 14 -42 11 -59 -7z"/>
<path d="M6750 5263 c0 -63 17 -72 22 -10 2 34 7 42 23 42 16 0 21 -8 23 -42
2 -24 8 -43 13 -43 5 0 9 10 8 23 -5 54 0 68 24 65 18 -2 23 -10 25 -45 2 -24
7 -43 11 -43 9 0 5 85 -4 101 -8 12 -42 12 -50 -1 -5 -7 -11 -8 -19 -1 -6 5
-26 9 -44 9 -32 -1 -32 -1 -32 -55z"/>
<path d="M340 2575 l0 -2555 1165 0 1165 0 0 2555 0 2555 -1165 0 -1165 0 0
-2555z m2300 0 l0 -2525 -1135 0 -1135 0 0 2525 0 2525 1135 0 1135 0 0 -2525z"/>
<path d="M1400 3490 c0 -5 5 -10 10 -10 6 0 10 5 10 10 0 6 -4 10 -10 10 -5 0
-10 -4 -10 -10z"/>
<path d="M1790 3490 c0 -5 5 -10 10 -10 6 0 10 5 10 10 0 6 -4 10 -10 10 -5 0
-10 -4 -10 -10z"/>
<path d="M1710 3475 c0 -8 -5 -15 -12 -15 -9 0 -9 -3 0 -12 7 -7 12 -24 12
-39 0 -15 3 -34 6 -43 7 -17 44 -22 44 -6 0 6 -7 10 -15 10 -10 0 -15 11 -15
35 0 24 5 35 15 35 8 0 15 5 15 10 0 6 -7 10 -15 10 -8 0 -15 7 -15 15 0 8 -4
15 -10 15 -5 0 -10 -7 -10 -15z"/>
<path d="M950 3403 c0 -63 17 -72 22 -10 2 35 7 43 26 45 20 3 22 -1 22 -42 0
-25 5 -46 10 -46 15 0 12 86 -3 98 -7 6 -27 10 -45 10 -32 -1 -32 -1 -32 -55z"/>
<path d="M1086 3444 c-9 -8 -16 -26 -16 -39 0 -56 71 -73 99 -24 13 24 13 29
-2 53 -20 30 -57 35 -81 10z m69 -23 c10 -31 -5 -52 -34 -49 -26 3 -38 26 -27
54 8 21 53 18 61 -5z"/>
<path d="M1210 3403 c0 -63 18 -72 22 -10 2 34 7 42 23 42 16 0 21 -8 23 -42
2 -24 7 -43 12 -43 5 0 10 19 12 43 2 34 7 42 23 42 16 0 21 -8 23 -42 2 -24
7 -43 13 -43 12 0 12 51 0 83 -9 22 -14 24 -80 24 l-71 0 0 -54z"/>
<path d="M1400 3405 c0 -30 5 -55 10 -55 6 0 10 25 10 55 0 30 -4 55 -10 55
-5 0 -10 -25 -10 -55z"/>
<path d="M1460 3403 c0 -63 17 -72 22 -10 2 35 7 43 26 45 20 3 22 -1 22 -42
0 -25 5 -46 10 -46 15 0 12 86 -3 98 -7 6 -27 10 -45 10 -32 -1 -32 -1 -32
-55z"/>
<path d="M1597 3453 c-14 -14 -6 -19 23 -15 40 6 39 -14 -1 -23 -59 -13 -45
-65 17 -63 33 1 34 2 34 43 0 22 -5 46 -12 53 -13 13 -50 16 -61 5z m51 -65
c-5 -15 -48 -24 -48 -10 0 14 12 22 33 22 10 0 17 -5 15 -12z"/>
<path d="M1790 3405 c0 -30 5 -55 10 -55 6 0 10 25 10 55 0 30 -4 55 -10 55
-5 0 -10 -25 -10 -55z"/>
<path d="M1857 3442 c-21 -24 -22 -56 -1 -77 24 -23 66 -15 83 16 13 24 13 29
-2 53 -21 31 -56 34 -80 8z m68 -21 c10 -31 -5 -52 -34 -49 -26 3 -38 26 -27
54 8 21 53 18 61 -5z"/>
<path d="M1980 3403 c0 -63 17 -72 22 -10 2 35 7 43 26 45 20 3 22 -1 22 -42
0 -25 5 -46 10 -46 15 0 12 86 -3 98 -7 6 -27 10 -45 10 -32 -1 -32 -1 -32
-55z"/>
<path d="M1360 731 c0 -24 -3 -28 -23 -24 -44 9 -71 -42 -47 -88 8 -14 20 -18
50 -17 l40 1 0 79 c0 45 -4 78 -10 78 -5 0 -10 -13 -10 -29z m-5 -76 c0 -21
-5 -31 -19 -33 -26 -5 -40 12 -32 43 5 20 12 26 29 23 17 -2 22 -10 22 -33z"/>
<path d="M1540 725 c0 -8 -5 -15 -12 -15 -9 0 -9 -3 0 -12 7 -7 12 -24 12 -39
0 -15 3 -34 6 -43 7 -17 44 -22 44 -6 0 6 -7 10 -15 10 -10 0 -15 11 -15 35 0
24 5 35 15 35 8 0 15 5 15 10 0 6 -7 10 -15 10 -8 0 -15 7 -15 15 0 8 -4 15
-10 15 -5 0 -10 -7 -10 -15z"/>
<path d="M1427 703 c-14 -14 -6 -19 23 -15 40 6 39 -14 -1 -23 -59 -13 -45
-65 17 -63 33 1 34 2 34 43 0 22 -5 46 -12 53 -13 13 -50 16 -61 5z m51 -65
c-5 -15 -48 -24 -48 -10 0 14 12 22 33 22 10 0 17 -5 15 -12z"/>
<path d="M1627 692 c-34 -37 -11 -92 38 -92 37 0 39 18 3 22 -49 5 -48 28 1
28 42 0 48 8 31 41 -13 24 -52 25 -73 1z m58 -12 c4 -6 -7 -10 -25 -10 -18 0
-29 4 -25 10 3 6 15 10 25 10 10 0 22 -4 25 -10z"/>
<path d="M5470 3330 l0 -1780 1165 0 1165 0 0 1780 0 1780 -1165 0 -1165 0 0
-1780z m2300 0 l0 -1750 -1135 0 -1135 0 0 1750 0 1750 1135 0 1135 0 0 -1750z"/>
<path d="M6530 4000 c0 -5 5 -10 10 -10 6 0 10 5 10 10 0 6 -4 10 -10 10 -5 0
-10 -4 -10 -10z"/>
<path d="M6920 4000 c0 -5 5 -10 10 -10 6 0 10 5 10 10 0 6 -4 10 -10 10 -5 0
-10 -4 -10 -10z"/>
<path d="M6840 3985 c0 -8 -5 -15 -12 -15 -9 0 -9 -3 0 -12 7 -7 12 -24 12
-39 0 -15 3 -34 6 -43 7 -17 44 -22 44 -6 0 6 -7 10 -15 10 -10 0 -15 11 -15
35 0 24 5 35 15 35 8 0 15 5 15 10 0 6 -7 10 -15 10 -8 0 -15 7 -15 15 0 8 -4
15 -10 15 -5 0 -10 -7 -10 -15z"/>
<path d="M6080 3913 c0 -63 17 -72 22 -10 2 35 7 43 26 45 20 3 22 -1 22 -42
0 -25 5 -46 10 -46 15 0 12 86 -3 98 -7 6 -27 10 -45 10 -32 -1 -32 -1 -32
-55z"/>
<path d="M6217 3952 c-21 -24 -22 -56 -1 -77 24 -23 66 -15 83 16 13 24 13 29
-2 53 -21 31 -56 34 -80 8z m68 -21 c10 -31 -5 -52 -34 -49 -26 3 -38 26 -27
54 8 21 53 18 61 -5z"/>
<path d="M6340 3913 c0 -63 18 -72 22 -10 2 34 7 42 23 42 16 0 21 -8 23 -42
2 -24 7 -43 12 -43 5 0 10 19 12 43 2 34 7 42 23 42 16 0 21 -8 23 -42 2 -24
7 -43 13 -43 12 0 12 51 0 83 -9 22 -14 24 -80 24 l-71 0 0 -54z"/>
<path d="M6530 3915 c0 -30 5 -55 10 -55 6 0 10 25 10 55 0 30 -4 55 -10 55
-5 0 -10 -25 -10 -55z"/>
<path d="M6590 3913 c0 -63 17 -72 22 -10 2 35 7 43 26 45 20 3 22 -1 22 -42
0 -25 5 -46 10 -46 15 0 12 86 -3 98 -7 6 -27 10 -45 10 -32 -1 -32 -1 -32
-55z"/>
<path d="M6727 3963 c-14 -14 -6 -19 23 -15 40 6 39 -14 -1 -23 -59 -13 -45
-65 17 -63 33 1 34 2 34 43 0 22 -5 46 -12 53 -13 13 -50 16 -61 5z m51 -65
c-5 -15 -48 -24 -48 -10 0 14 12 22 33 22 10 0 17 -5 15 -12z"/>
<path d="M6920 3915 c0 -30 5 -55 10 -55 6 0 10 25 10 55 0 30 -4 55 -10 55
-5 0 -10 -25 -10 -55z"/>
<path d="M6987 3952 c-21 -24 -22 -56 -1 -77 24 -23 66 -15 83 16 13 24 13 29
-2 53 -21 31 -56 34 -80 8z m68 -21 c10 -31 -5 -52 -34 -49 -26 3 -38 26 -27
54 8 21 53 18 61 -5z"/>
<path d="M7110 3913 c0 -63 17 -72 22 -10 2 35 7 43 26 45 20 3 22 -1 22 -42
0 -25 5 -46 10 -46 15 0 12 86 -3 98 -7 6 -27 10 -45 10 -32 -1 -32 -1 -32
-55z"/>
<path d="M6710 2650 c0 -5 5 -10 10 -10 6 0 10 5 10 10 0 6 -4 10 -10 10 -5 0
-10 -4 -10 -10z"/>
<path d="M6950 2650 c0 -5 5 -10 10 -10 6 0 10 5 10 10 0 6 -4 10 -10 10 -5 0
-10 -4 -10 -10z"/>
<path d="M6020 2635 c0 -8 -5 -15 -12 -15 -9 0 -9 -3 0 -12 7 -7 12 -24 12
-39 0 -15 3 -34 6 -43 7 -17 44 -22 44 -6 0 6 -7 10 -15 10 -10 0 -15 11 -15
35 0 24 5 35 15 35 8 0 15 5 15 10 0 6 -7 10 -15 10 -8 0 -15 7 -15 15 0 8 -4
15 -10 15 -5 0 -10 -7 -10 -15z"/>
<path d="M6100 2563 c0 -29 5 -53 10 -53 6 0 10 18 10 41 0 32 4 42 20 46 30
8 24 22 -10 21 -29 -1 -30 -2 -30 -55z"/>
<path d="M6187 2613 c-14 -14 -6 -19 23 -15 40 6 39 -14 -1 -23 -59 -13 -45
-65 17 -63 33 1 34 2 34 43 0 22 -5 46 -12 53 -13 13 -50 16 -61 5z m51 -65
c-5 -15 -48 -24 -48 -10 0 14 12 22 33 22 10 0 17 -5 15 -12z"/>
<path d="M6300 2563 c0 -63 17 -72 22 -10 2 35 7 43 26 45 20 3 22 -1 22 -42
0 -25 5 -46 10 -46 15 0 12 86 -3 98 -7 6 -27 10 -45 10 -32 -1 -32 -1 -32
-55z"/>
<path d="M6432 2608 c-18 -18 -15 -27 20 -48 26 -16 29 -20 15 -26 -9 -3 -24
-3 -33 0 -10 4 -14 1 -12 -6 3 -7 18 -13 34 -13 40 0 47 39 10 57 -33 14 -33
28 -1 28 14 0 25 5 25 10 0 14 -43 13 -58 -2z"/>
<path d="M6520 2563 c0 -63 18 -72 22 -10 2 34 7 42 23 42 16 0 21 -8 23 -42
2 -24 7 -43 12 -43 5 0 10 19 12 43 2 34 7 42 23 42 17 0 20 -7 20 -42 0 -28
4 -43 12 -43 15 0 17 48 4 83 -9 22 -14 24 -80 24 l-71 0 0 -54z"/>
<path d="M6710 2565 c0 -30 5 -55 10 -55 6 0 10 25 10 55 0 30 -4 55 -10 55
-5 0 -10 -25 -10 -55z"/>
<path d="M6772 2608 c-18 -18 -15 -27 20 -48 26 -16 29 -20 15 -26 -9 -3 -24
-3 -33 0 -10 4 -14 1 -12 -6 3 -7 18 -13 34 -13 40 0 47 39 10 57 -33 14 -33
28 -1 28 14 0 25 5 25 10 0 14 -43 13 -58 -2z"/>
<path d="M6862 2608 c-18 -18 -15 -27 20 -48 26 -16 29 -20 15 -26 -9 -3 -24
-3 -33 0 -10 4 -14 1 -12 -6 3 -7 18 -13 34 -13 40 0 47 39 10 57 -33 14 -33
28 -1 28 14 0 25 5 25 10 0 14 -43 13 -58 -2z"/>
<path d="M6950 2565 c0 -30 5 -55 10 -55 6 0 10 25 10 55 0 30 -4 55 -10 55
-5 0 -10 -25 -10 -55z"/>
<path d="M7017 2602 c-21 -24 -22 -56 -1 -77 24 -23 66 -15 83 16 13 24 13 29
-2 53 -21 31 -56 34 -80 8z m68 -21 c10 -31 -5 -52 -34 -49 -26 3 -38 26 -27
54 8 21 53 18 61 -5z"/>
<path d="M7140 2563 c0 -63 17 -72 22 -10 2 34 7 42 23 42 16 0 21 -8 23 -42
4 -56 22 -55 22 1 0 51 -13 65 -58 64 -32 -1 -32 -1 -32 -55z"/>
<path d="M6390 2351 c0 -24 -3 -28 -23 -24 -44 9 -71 -42 -47 -88 8 -14 20
-18 50 -17 l40 1 0 79 c0 45 -4 78 -10 78 -5 0 -10 -13 -10 -29z m-5 -76 c0
-21 -5 -31 -19 -33 -26 -5 -40 12 -32 43 5 20 12 26 29 23 17 -2 22 -10 22
-33z"/>
<path d="M6680 2300 c0 -47 4 -80 10 -80 6 0 10 12 10 28 l1 27 24 -30 c30
-36 45 -26 16 11 l-21 27 22 24 c27 29 12 30 -19 1 l-23 -21 0 46 c0 26 -4 47
-10 47 -6 0 -10 -33 -10 -80z"/>
<path d="M6900 2345 c0 -8 -5 -15 -12 -15 -9 0 -9 -3 0 -12 7 -7 12 -24 12
-39 0 -15 3 -34 6 -43 7 -17 44 -22 44 -6 0 6 -7 10 -15 10 -10 0 -15 11 -15
35 0 24 5 35 15 35 8 0 15 5 15 10 0 6 -7 10 -15 10 -8 0 -15 7 -15 15 0 8 -4
15 -10 15 -5 0 -10 -7 -10 -15z"/>
<path d="M6457 2312 c-21 -24 -22 -56 -1 -77 24 -23 66 -15 83 16 13 24 13 29
-2 53 -21 31 -56 34 -80 8z m68 -21 c10 -31 -5 -52 -34 -49 -26 3 -38 26 -27
54 8 21 53 18 61 -5z"/>
<path d="M6586 2314 c-34 -33 -12 -94 34 -94 38 0 39 18 3 22 -24 3 -28 8 -28
33 0 25 4 30 28 33 15 2 27 8 27 13 0 15 -47 10 -64 -7z"/>
<path d="M6787 2312 c-34 -37 -11 -92 38 -92 37 0 39 18 3 22 -49 5 -48 28 1
28 42 0 48 8 31 41 -13 24 -52 25 -73 1z m58 -12 c4 -6 -7 -10 -25 -10 -18 0
-29 4 -25 10 3 6 15 10 25 10 10 0 22 -4 25 -10z"/>
<path d="M6490 1861 c0 -24 -3 -28 -23 -24 -44 9 -71 -42 -47 -88 8 -14 20
-18 50 -17 l40 1 0 79 c0 45 -4 78 -10 78 -5 0 -10 -13 -10 -29z m-5 -76 c0
-21 -5 -31 -19 -33 -26 -5 -40 12 -32 43 5 20 12 26 29 23 17 -2 22 -10 22
-33z"/>
<path d="M6670 1855 c0 -8 -5 -15 -12 -15 -9 0 -9 -3 0 -12 7 -7 12 -24 12
-39 0 -15 3 -34 6 -43 7 -17 44 -22 44 -6 0 6 -7 10 -15 10 -10 0 -15 11 -15
35 0 24 5 35 15 35 8 0 15 5 15 10 0 6 -7 10 -15 10 -8 0 -15 7 -15 15 0 8 -4
15 -10 15 -5 0 -10 -7 -10 -15z"/>
<path d="M6557 1833 c-14 -14 -6 -19 23 -15 40 6 39 -14 -1 -23 -59 -13 -45
-65 17 -63 33 1 34 2 34 43 0 22 -5 46 -12 53 -13 13 -50 16 -61 5z m51 -65
c-5 -15 -48 -24 -48 -10 0 14 12 22 33 22 10 0 17 -5 15 -12z"/>
<path d="M6757 1822 c-34 -37 -11 -92 38 -92 37 0 39 18 3 22 -49 5 -48 28 1
28 42 0 48 8 31 41 -13 24 -52 25 -73 1z m58 -12 c4 -6 -7 -10 -25 -10 -18 0
-29 4 -25 10 3 6 15 10 25 10 10 0 22 -4 25 -10z"/>
<path d="M2867 2653 c-13 -13 -7 -19 20 -18 41 0 40 -27 -1 -73 -20 -22 -36
-42 -36 -46 0 -3 23 -6 50 -6 28 0 50 5 50 10 0 6 -16 10 -36 10 l-37 0 26 24
c32 29 44 71 27 91 -13 15 -51 20 -63 8z"/>
<path d="M2994 2639 c-19 -21 -19 -22 4 -15 21 7 22 5 22 -43 0 -38 -4 -51
-14 -51 -8 0 -18 -4 -21 -10 -4 -6 12 -10 42 -10 42 1 46 2 31 14 -14 10 -18
28 -18 75 0 67 -12 78 -46 40z"/>
<path d="M3160 2625 c0 -30 3 -35 24 -35 29 0 49 -22 40 -45 -5 -12 -15 -16
-40 -13 -35 4 -46 -5 -18 -16 31 -12 54 -6 70 19 21 31 12 54 -26 68 -39 15
-39 37 0 37 17 0 30 5 30 10 0 6 -18 10 -40 10 -39 0 -40 -1 -40 -35z"/>
<path d="M4724 2639 c-19 -21 -19 -22 4 -15 21 7 22 5 22 -43 0 -38 -4 -51
-14 -51 -8 0 -18 -4 -21 -10 -4 -6 12 -10 42 -10 42 1 46 2 31 14 -14 10 -18
28 -18 75 0 67 -12 78 -46 40z"/>
<path d="M4820 2650 c0 -5 18 -10 40 -10 l41 0 -15 -27 c-29 -57 -45 -103 -35
-103 9 0 69 122 69 141 0 5 -22 9 -50 9 -27 0 -50 -4 -50 -10z"/>
<path d="M3346 2604 c-32 -32 -10 -94 34 -94 31 0 33 18 3 22 -24 3 -28 8 -28
33 0 25 4 30 28 33 15 2 25 8 22 13 -9 14 -42 11 -59 -7z"/>
<path d="M3440 2563 c0 -63 17 -72 22 -10 2 34 7 42 23 42 16 0 21 -9 26 -45
6 -46 10 -46 14 0 1 14 3 31 4 38 0 8 10 12 24 10 18 -2 23 -10 25 -45 2 -24
7 -43 12 -43 9 0 4 85 -6 101 -7 12 -41 11 -49 -1 -5 -7 -11 -8 -19 -1 -6 5
-26 9 -44 9 -32 -1 -32 -1 -32 -55z"/>
<path d="M5016 2604 c-32 -32 -10 -94 34 -94 31 0 33 18 3 22 -24 3 -28 8 -28
33 0 25 4 30 28 33 15 2 25 8 22 13 -9 14 -42 11 -59 -7z"/>
<path d="M5110 2563 c0 -63 18 -71 22 -10 2 34 7 42 23 42 16 0 21 -8 23 -42
4 -51 19 -59 17 -9 -2 43 7 59 31 54 14 -2 20 -13 22 -46 4 -48 17 -57 20 -13
3 43 -14 81 -37 81 -11 0 -23 -5 -26 -10 -5 -8 -11 -8 -19 -1 -7 6 -27 9 -44
8 -32 -2 -32 -3 -32 -54z"/>
<path d="M3100 2525 c0 -8 5 -15 10 -15 6 0 10 7 10 15 0 8 -4 15 -10 15 -5 0
-10 -7 -10 -15z"/>
</g>
</svg>
